<svg xmlns="http://www.w3.org/2000/svg" viewBox="0 0 603.29 979.53"><defs><style>.cls-1,.cls-3,.cls-4{fill:#fff;}.cls-1,.cls-4,.cls-5{stroke:#ecad0f;stroke-width:5px;}.cls-1{stroke-miterlimit:10;}.cls-2{fill:#ecad0f;}.cls-4,.cls-5{stroke-miterlimit:12;}.cls-4{stroke-dasharray:17;}.cls-5{fill:none;stroke-dasharray:17.2 17.2;}</style></defs><g id="Layer_2" data-name="Layer 2"><ellipse class="cls-1" cx="280.16" cy="437.49" rx="254.33" ry="254.31"/><ellipse class="cls-2" cx="475.74" cy="628.95" rx="103.41" ry="103.4"/><path class="cls-3" d="M418.82,603.94l2-.34v-14l-2-.34v-1.55h6.4v1.55l-2,.34v6h1.84l5-6.15-1.33-.17v-1.55h5.65v1.55l-1.68.31-5.44,6.75,5.94,7.35,1.68.3v1.54H429v-1.54l1.36-.17-5.08-6.32h-2.07v6.15l2,.34v1.54h-6.4Z"/><path class="cls-3" d="M445.43,605.48c-.07-.36-.13-.68-.17-1a8.33,8.33,0,0,1-.08-.86,5.9,5.9,0,0,1-1.75,1.49,5,5,0,0,1-5.37-.42,3.69,3.69,0,0,1-1.08-2.84A3.31,3.31,0,0,1,438.5,599a7.45,7.45,0,0,1,4.18-1h2.48v-1.54a2.38,2.38,0,0,0-.73-1.84,2.9,2.9,0,0,0-2-.68,5.14,5.14,0,0,0-1.6.23,3.11,3.11,0,0,0-1.12.64l-.25,1.4h-1.86V593.6a7.11,7.11,0,0,1,2.19-1.16,8.57,8.57,0,0,1,2.78-.43,5.54,5.54,0,0,1,3.65,1.15,4,4,0,0,1,1.39,3.29v6.37c0,.17,0,.34,0,.5a4.15,4.15,0,0,0,0,.49l1,.13v1.54Zm-3.87-1.76a4.31,4.31,0,0,0,2.19-.57,3.6,3.6,0,0,0,1.41-1.38v-2.18H442.6a3.73,3.73,0,0,0-2.35.68,2.08,2.08,0,0,0-.86,1.67,1.62,1.62,0,0,0,.54,1.32A2.44,2.44,0,0,0,441.56,603.72Z"/><path class="cls-3" d="M450.59,593.8v-1.55h4.15l.23,1.92a4.81,4.81,0,0,1,1.39-1.59,3.24,3.24,0,0,1,1.89-.57,3.86,3.86,0,0,1,.58,0l.46.09-.32,2.24-1.37-.07a2.79,2.79,0,0,0-1.6.44,2.88,2.88,0,0,0-1,1.26v7.59l2,.34v1.54h-6.4v-1.54l2-.34v-9.45Z"/><path class="cls-3" d="M460.47,603.94l2-.34v-9.45l-2-.35v-1.55h4.16l.16,1.73a4.27,4.27,0,0,1,1.64-1.46,5,5,0,0,1,2.32-.51,4.08,4.08,0,0,1,2.27.61,3.75,3.75,0,0,1,1.43,1.83,4.8,4.8,0,0,1,1.65-1.78,4.31,4.31,0,0,1,2.39-.66,4,4,0,0,1,3.21,1.39,6.33,6.33,0,0,1,1.17,4.17v6l2,.34v1.54h-6.4v-1.54l2-.34v-6.05a4.38,4.38,0,0,0-.67-2.77,2.46,2.46,0,0,0-2-.82,2.54,2.54,0,0,0-2,.89,3.92,3.92,0,0,0-.89,2.23v6.52l2,.34v1.54h-6.4v-1.54l2-.34v-6.05a4.33,4.33,0,0,0-.69-2.72,2.39,2.39,0,0,0-2-.87,3.35,3.35,0,0,0-1.81.46,2.87,2.87,0,0,0-1.08,1.27v7.91l2,.34v1.54h-6.4Z"/><path class="cls-3" d="M493.25,605.48c-.08-.36-.13-.68-.17-1a8.36,8.36,0,0,1-.09-.86,6,6,0,0,1-1.74,1.49,4.52,4.52,0,0,1-2.24.59,4.45,4.45,0,0,1-3.14-1,3.72,3.72,0,0,1-1.07-2.84,3.28,3.28,0,0,1,1.52-2.91,7.43,7.43,0,0,1,4.18-1H493v-1.54a2.39,2.39,0,0,0-.74-1.84,2.9,2.9,0,0,0-2-.68,5.12,5.12,0,0,0-1.59.23,3,3,0,0,0-1.12.64l-.26,1.4h-1.86V593.6a7.11,7.11,0,0,1,2.19-1.16,8.64,8.64,0,0,1,2.79-.43,5.51,5.51,0,0,1,3.64,1.15,4,4,0,0,1,1.4,3.29v6.87l0,.49,1,.13v1.54Zm-3.88-1.76a4.31,4.31,0,0,0,2.19-.57,3.7,3.7,0,0,0,1.42-1.38v-2.18h-2.57a3.68,3.68,0,0,0-2.34.68,2,2,0,0,0-.86,1.67,1.61,1.61,0,0,0,.53,1.32A2.44,2.44,0,0,0,489.37,603.72Z"/><path class="cls-3" d="M508.53,596.41h-1.81l-.39-1.59a3.19,3.19,0,0,0-1.11-.67,4.38,4.38,0,0,0-1.51-.25,2.78,2.78,0,0,0-1.9.56,1.77,1.77,0,0,0-.63,1.36,1.54,1.54,0,0,0,.55,1.24,5.72,5.72,0,0,0,2.24.8,9.62,9.62,0,0,1,3.73,1.47,2.92,2.92,0,0,1,1.22,2.47,3.4,3.4,0,0,1-1.42,2.85,5.94,5.94,0,0,1-3.72,1.09,9.78,9.78,0,0,1-2.71-.35,7.16,7.16,0,0,1-2.14-1v-3h1.81l.45,1.77a2.45,2.45,0,0,0,1.13.55,6,6,0,0,0,1.47.18,3.48,3.48,0,0,0,2-.52,1.68,1.68,0,0,0,.12-2.67,5.58,5.58,0,0,0-2.29-.9,9.73,9.73,0,0,1-3.64-1.43,2.89,2.89,0,0,1-1.22-2.44,3.46,3.46,0,0,1,1.38-2.76,5.45,5.45,0,0,1,3.57-1.13,8.73,8.73,0,0,1,2.71.39,5.6,5.6,0,0,1,2,1.09Zm-3.94,9.17-.14.64a2.48,2.48,0,0,1,1.32.63,2,2,0,0,1,.52,1.48,2.19,2.19,0,0,1-1,1.87,4.67,4.67,0,0,1-2.77.7l-.08-1.33a2.84,2.84,0,0,0,1.41-.3,1,1,0,0,0,.53-.9.83.83,0,0,0-.44-.82,4.11,4.11,0,0,0-1.5-.32l.39-1.65Z"/><path class="cls-3" d="M511.19,593.8v-1.55h4.4V603.6l2,.34v1.54h-6.39v-1.54l2-.34v-9.45Z"/><path class="cls-3" d="M519.06,588v-1.55h4.4v11.05H525l2.83-3.5-1.21-.16v-1.55h5.54v1.55l-1.62.32-3.48,4.16,4.24,5.37,1.5.29v1.54h-5.49v-1.54l1.24-.16-3.51-4.4h-1.58v4.22l2,.34v1.54h-6.4v-1.54l2-.34V588.3Z"/><path class="cls-3" d="M427,627.44h-1.81l-.4-1.59a3.24,3.24,0,0,0-1.1-.67,4.23,4.23,0,0,0-1.51-.25,2.81,2.81,0,0,0-1.91.56,1.76,1.76,0,0,0-.62,1.36,1.53,1.53,0,0,0,.55,1.24,5.59,5.59,0,0,0,2.23.8,9.66,9.66,0,0,1,3.73,1.46,3,3,0,0,1,1.23,2.48,3.43,3.43,0,0,1-1.43,2.85,6,6,0,0,1-3.72,1.09,9.71,9.71,0,0,1-2.7-.35,7,7,0,0,1-2.14-1l0-3h1.81l.46,1.77a2.35,2.35,0,0,0,1.13.55,5.89,5.89,0,0,0,1.46.17,3.38,3.38,0,0,0,2-.52,1.58,1.58,0,0,0,.73-1.36,1.63,1.63,0,0,0-.61-1.31,5.62,5.62,0,0,0-2.29-.89,9.6,9.6,0,0,1-3.63-1.43,2.87,2.87,0,0,1-1.22-2.45,3.45,3.45,0,0,1,1.37-2.75,5.43,5.43,0,0,1,3.58-1.13,8.71,8.71,0,0,1,2.7.39,5.66,5.66,0,0,1,2,1.08Z"/><path class="cls-3" d="M429.6,635l2-.34v-9.46l-2-.34v-1.55H434v11.35l2,.34v1.54H429.6Zm4.4-15.08h-2.41v-2.46H434Z"/><path class="cls-3" d="M448,627.44h-1.81l-.39-1.59a3.19,3.19,0,0,0-1.11-.67,4.16,4.16,0,0,0-1.51-.25,2.78,2.78,0,0,0-1.9.56,1.77,1.77,0,0,0-.63,1.36,1.56,1.56,0,0,0,.55,1.24,5.72,5.72,0,0,0,2.24.8,9.79,9.79,0,0,1,3.73,1.46,2.94,2.94,0,0,1,1.22,2.48,3.43,3.43,0,0,1-1.42,2.85,6,6,0,0,1-3.72,1.09,9.78,9.78,0,0,1-2.71-.35,7.16,7.16,0,0,1-2.14-1v-3h1.81l.45,1.77a2.45,2.45,0,0,0,1.13.55,6,6,0,0,0,1.47.17,3.4,3.4,0,0,0,2-.52,1.6,1.6,0,0,0,.72-1.36,1.65,1.65,0,0,0-.6-1.31,5.75,5.75,0,0,0-2.29-.89,9.73,9.73,0,0,1-3.64-1.43,2.9,2.9,0,0,1-1.22-2.45,3.46,3.46,0,0,1,1.38-2.75,5.4,5.4,0,0,1,3.57-1.13,8.73,8.73,0,0,1,2.71.39,5.75,5.75,0,0,1,2,1.08Z"/><path class="cls-3" d="M454.8,620.09v3.19h2.51v1.78H454.8v8a1.85,1.85,0,0,0,.38,1.31,1.42,1.42,0,0,0,1,.38,4.74,4.74,0,0,0,.71-.06,6,6,0,0,0,.67-.12l.33,1.66a3.42,3.42,0,0,1-1,.36,6.6,6.6,0,0,1-1.33.14,3.13,3.13,0,0,1-2.33-.89,3.84,3.84,0,0,1-.87-2.78v-8H450.3v-1.78h2.09v-3.19Z"/><path class="cls-3" d="M465.81,636.77a5.6,5.6,0,0,1-4.4-1.84,6.93,6.93,0,0,1-1.63-4.78v-.54a6.79,6.79,0,0,1,1.68-4.7,5.18,5.18,0,0,1,4-1.87,5,5,0,0,1,4,1.61,6.38,6.38,0,0,1,1.38,4.3v1.51h-8.59l0,.06a5.16,5.16,0,0,0,1,3.13,3.08,3.08,0,0,0,2.61,1.23,6.08,6.08,0,0,0,2.14-.34,5.2,5.2,0,0,0,1.6-1l.94,1.56a5.8,5.8,0,0,1-1.88,1.16A7.56,7.56,0,0,1,465.81,636.77Zm-.37-11.84a2.61,2.61,0,0,0-2.07,1,4.85,4.85,0,0,0-1.05,2.56l0,.06h6.1v-.31a3.75,3.75,0,0,0-.76-2.38A2.73,2.73,0,0,0,465.44,624.93Z"/><path class="cls-3" d="M472.75,635l2-.34v-9.46l-2-.34v-1.55h4.16l.16,1.72a4.33,4.33,0,0,1,1.64-1.45A5,5,0,0,1,481,623a4.08,4.08,0,0,1,2.27.61,3.64,3.64,0,0,1,1.42,1.83,5,5,0,0,1,1.65-1.78,4.28,4.28,0,0,1,2.4-.66,4,4,0,0,1,3.2,1.38,6.32,6.32,0,0,1,1.18,4.18v6l2,.34v1.54h-6.41V635l2-.34v-6.06a4.41,4.41,0,0,0-.68-2.77,2.42,2.42,0,0,0-2-.81,2.54,2.54,0,0,0-2,.89,3.83,3.83,0,0,0-.89,2.23v6.52l2,.34v1.54h-6.39V635l2-.34v-6.06a4.37,4.37,0,0,0-.69-2.72,2.43,2.43,0,0,0-2-.86,3.33,3.33,0,0,0-1.81.45,3.08,3.08,0,0,0-1.09,1.27v7.92l2,.34v1.54h-6.4Z"/><path class="cls-3" d="M496.56,619v-1.56H501v17.2l2,.34v1.54h-6.4V635l2-.34v-15.3Z"/><path class="cls-3" d="M510.82,636.77a5.62,5.62,0,0,1-4.4-1.84,6.93,6.93,0,0,1-1.63-4.78v-.54a6.79,6.79,0,0,1,1.68-4.7,5.18,5.18,0,0,1,4-1.87,5,5,0,0,1,4,1.61,6.38,6.38,0,0,1,1.38,4.3v1.51h-8.59l0,.06a5.16,5.16,0,0,0,1,3.13,3.08,3.08,0,0,0,2.61,1.23,6.08,6.08,0,0,0,2.14-.34,5.2,5.2,0,0,0,1.6-1l.94,1.56a5.86,5.86,0,0,1-1.87,1.16A7.61,7.61,0,0,1,510.82,636.77Zm-.37-11.84a2.63,2.63,0,0,0-2.07,1,4.85,4.85,0,0,0-1.05,2.56l0,.06h6.1v-.31a3.69,3.69,0,0,0-.76-2.38A2.7,2.7,0,0,0,510.45,624.93Z"/><path class="cls-3" d="M518.24,624.83v-1.55h4.15l.23,1.92a4.52,4.52,0,0,1,1.39-1.59,3.24,3.24,0,0,1,1.89-.57,4,4,0,0,1,.58,0l.46.09-.32,2.24-1.37-.08a2.72,2.72,0,0,0-1.6.45,2.92,2.92,0,0,0-1,1.25v7.6l2,.34v1.54h-6.4V635l2-.34v-9.46Z"/><path class="cls-3" d="M528.6,635l2-.34v-9.46l-2-.34v-1.55H533v11.35l2,.34v1.54H528.6Zm4.4-15.08h-2.41v-2.46H533Z"/><path class="cls-3" d="M433.33,667.54c-.08-.36-.13-.68-.17-1s-.07-.57-.09-.85a5.83,5.83,0,0,1-1.74,1.48,4.42,4.42,0,0,1-2.23.6,4.46,4.46,0,0,1-3.15-1,3.75,3.75,0,0,1-1.07-2.85,3.28,3.28,0,0,1,1.52-2.9,7.45,7.45,0,0,1,4.18-1h2.48v-1.54a2.37,2.37,0,0,0-.74-1.84,2.84,2.84,0,0,0-2-.68,5.12,5.12,0,0,0-1.59.23,3,3,0,0,0-1.12.64l-.26,1.39h-1.86v-2.57a7.33,7.33,0,0,1,2.19-1.15,8.68,8.68,0,0,1,2.79-.44,5.57,5.57,0,0,1,3.64,1.15,4,4,0,0,1,1.4,3.29v6.87l0,.49,1,.14v1.54Zm-3.88-1.76a4.22,4.22,0,0,0,2.19-.58,3.57,3.57,0,0,0,1.42-1.38v-2.18h-2.57a3.62,3.62,0,0,0-2.34.69,2,2,0,0,0-.86,1.66,1.68,1.68,0,0,0,.53,1.33A2.5,2.5,0,0,0,429.45,665.78Z"/><path class="cls-3" d="M438.13,666l2-.34V656.2l-2-.34v-1.55h4.15l.17,2a4.82,4.82,0,0,1,1.66-1.64,4.48,4.48,0,0,1,2.27-.58,4.3,4.3,0,0,1,3.31,1.26,5.5,5.5,0,0,1,1.17,3.87v6.47l2,.34v1.54h-6.4V666l2-.34v-6.42a3.6,3.6,0,0,0-.69-2.49,2.76,2.76,0,0,0-2.11-.73,3.45,3.45,0,0,0-1.84.5,3.65,3.65,0,0,0-1.27,1.37v7.77l2,.34v1.54h-6.4Z"/><path class="cls-3" d="M454.27,650v-1.56h4.41v17.2l2,.34v1.54h-6.4V666l2-.34v-15.3Z"/><path class="cls-3" d="M471.13,667.54c-.08-.36-.14-.68-.18-1a8.14,8.14,0,0,1-.08-.85,6,6,0,0,1-1.74,1.48,5,5,0,0,1-5.38-.41,3.72,3.72,0,0,1-1.08-2.85,3.29,3.29,0,0,1,1.53-2.9,7.39,7.39,0,0,1,4.17-1h2.49v-1.54a2.37,2.37,0,0,0-.74-1.84,2.86,2.86,0,0,0-2-.68,5.19,5.19,0,0,0-1.6.23,3,3,0,0,0-1.11.64l-.26,1.39h-1.86v-2.57a7.1,7.1,0,0,1,2.19-1.15,8.59,8.59,0,0,1,2.79-.44,5.57,5.57,0,0,1,3.64,1.15,4,4,0,0,1,1.39,3.29v6.37c0,.17,0,.34,0,.5l0,.49,1,.14v1.54Zm-3.88-1.76a4.22,4.22,0,0,0,2.19-.58,3.57,3.57,0,0,0,1.42-1.38v-2.18h-2.57a3.62,3.62,0,0,0-2.34.69,2.06,2.06,0,0,0-.87,1.66,1.65,1.65,0,0,0,.54,1.33A2.5,2.5,0,0,0,467.25,665.78Z"/><path class="cls-3" d="M475.81,666l2-.34V656.2l-2-.34v-1.55H480l.16,1.72a4.29,4.29,0,0,1,1.63-1.45,5,5,0,0,1,2.33-.52,4.18,4.18,0,0,1,2.27.61,3.72,3.72,0,0,1,1.42,1.84,5,5,0,0,1,1.65-1.79,4.37,4.37,0,0,1,2.4-.66,4,4,0,0,1,3.2,1.39,6.37,6.37,0,0,1,1.18,4.18v6l2,.34v1.54h-6.41V666l2-.34V659.6a4.41,4.41,0,0,0-.67-2.77,2.44,2.44,0,0,0-2-.81,2.56,2.56,0,0,0-2,.89,3.89,3.89,0,0,0-.88,2.23v6.52l2,.34v1.54h-6.39V666l2-.34V659.6a4.35,4.35,0,0,0-.69-2.72,2.43,2.43,0,0,0-2-.86,3.33,3.33,0,0,0-1.81.45,3,3,0,0,0-1.09,1.27v7.92l2,.34v1.54h-6.39Z"/><path class="cls-3" d="M508.58,667.54c-.07-.36-.13-.68-.17-1s-.07-.57-.09-.85a5.71,5.71,0,0,1-1.74,1.48,5,5,0,0,1-5.37-.41,3.72,3.72,0,0,1-1.08-2.85,3.3,3.3,0,0,1,1.52-2.9,7.45,7.45,0,0,1,4.18-1h2.48v-1.54a2.37,2.37,0,0,0-.73-1.84,2.86,2.86,0,0,0-2-.68,5.14,5.14,0,0,0-1.6.23,3.11,3.11,0,0,0-1.12.64l-.26,1.39h-1.85v-2.57a7.15,7.15,0,0,1,2.18-1.15,8.68,8.68,0,0,1,2.79-.44,5.6,5.6,0,0,1,3.65,1.15,4,4,0,0,1,1.39,3.29v6.37c0,.17,0,.34,0,.5a3.91,3.91,0,0,0,0,.49l1,.14v1.54Zm-3.87-1.76a4.21,4.21,0,0,0,2.18-.58,3.5,3.5,0,0,0,1.42-1.38v-2.18h-2.57a3.66,3.66,0,0,0-2.34.69,2.07,2.07,0,0,0-.86,1.66,1.65,1.65,0,0,0,.54,1.33A2.5,2.5,0,0,0,504.71,665.78Z"/><path class="cls-3" d="M513.41,650v-1.56h4.4v11.06h1.54l2.83-3.5-1.21-.16v-1.55h5.54v1.55l-1.62.32-3.48,4.16,4.24,5.36,1.51.3v1.54h-5.49V666l1.23-.16-3.51-4.4h-1.58v4.22l2,.34v1.54h-6.4V666l2-.34v-15.3Z"/><ellipse class="cls-2" cx="152.16" cy="691.8" rx="128.01" ry="128"/><path class="cls-3" d="M49.44,673.93a7.34,7.34,0,0,1,7.73,7.69v2.44a7.33,7.33,0,0,1-7.73,7.68H42v-1.55l2-.34v-14l-2-.35v-1.55h7.46Zm-3.06,1.9v14h3.06a4.92,4.92,0,0,0,3.89-1.62,6.12,6.12,0,0,0,1.43-4.17V681.6a6.08,6.08,0,0,0-1.43-4.15,4.92,4.92,0,0,0-3.89-1.62Z"/><path class="cls-3" d="M65.59,692a5.59,5.59,0,0,1-4.4-1.84,7,7,0,0,1-1.63-4.77v-.54a6.79,6.79,0,0,1,1.68-4.7,5.19,5.19,0,0,1,4-1.88,5,5,0,0,1,4,1.61,6.43,6.43,0,0,1,1.38,4.31v1.5H62.06l0,.06a5.19,5.19,0,0,0,1,3.14,3.06,3.06,0,0,0,2.6,1.23,6.13,6.13,0,0,0,2.15-.35,4.9,4.9,0,0,0,1.59-1l.94,1.57a5.84,5.84,0,0,1-1.87,1.15A7.41,7.41,0,0,1,65.59,692Zm-.37-11.83a2.61,2.61,0,0,0-2.06,1,4.82,4.82,0,0,0-1,2.56l0,.06h6.1v-.32a3.68,3.68,0,0,0-.76-2.37A2.67,2.67,0,0,0,65.22,680.16Z"/><path class="cls-3" d="M72.66,690.19l2-.34V680.4l-2-.34V678.5H76.8l.17,2a5,5,0,0,1,1.66-1.63,4.41,4.41,0,0,1,2.27-.58,4.32,4.32,0,0,1,3.31,1.25,5.48,5.48,0,0,1,1.18,3.87v6.47l2,.34v1.55H81v-1.55l2-.34v-6.42a3.59,3.59,0,0,0-.69-2.48,2.77,2.77,0,0,0-2.11-.73,3.34,3.34,0,0,0-1.84.5,3.6,3.6,0,0,0-1.28,1.37v7.76l2,.34v1.55H72.66Z"/><path class="cls-3" d="M95.05,692a5.59,5.59,0,0,1-4.4-1.84A6.92,6.92,0,0,1,89,685.38v-.54a6.79,6.79,0,0,1,1.68-4.7,5.19,5.19,0,0,1,4-1.88,5,5,0,0,1,4,1.61,6.43,6.43,0,0,1,1.38,4.31v1.5H91.51l0,.06a5.19,5.19,0,0,0,1,3.14,3.08,3.08,0,0,0,2.61,1.23,6.17,6.17,0,0,0,2.15-.35,4.9,4.9,0,0,0,1.59-1l.94,1.57a5.84,5.84,0,0,1-1.87,1.15A7.41,7.41,0,0,1,95.05,692Zm-.37-11.83a2.61,2.61,0,0,0-2.06,1,4.75,4.75,0,0,0-1.06,2.56l0,.06h6.1v-.32a3.68,3.68,0,0,0-.76-2.37A2.67,2.67,0,0,0,94.68,680.16Z"/><path class="cls-3" d="M114.88,680.06l-1.18.18-5,13.53a7.09,7.09,0,0,1-1.44,2.32,3.35,3.35,0,0,1-2.54,1A4.61,4.61,0,0,1,104,697a7,7,0,0,1-.7-.13l.25-1.89.43,0,.64,0a1.46,1.46,0,0,0,1.25-.67,6.94,6.94,0,0,0,.83-1.53l.58-1.37-4.37-11.23-1.21-.19V678.5H107v1.56l-1.5.24,2.29,6.53.44,1.69h.07l2.76-8.22-1.51-.24V678.5h5.33Z"/><path class="cls-3" d="M116.52,690.19l2-.34V680.4l-2-.34V678.5h4.4v11.35l2,.34v1.55h-6.4Zm4.4-15.07h-2.41v-2.46h2.41Z"/><path class="cls-3" d="M124.27,690.19l2-.34V680.4l-2-.34V678.5h4.16l.16,1.73a4.43,4.43,0,0,1,1.64-1.46,5,5,0,0,1,2.32-.51,4.08,4.08,0,0,1,2.27.61,3.73,3.73,0,0,1,1.43,1.84,4.83,4.83,0,0,1,1.65-1.79,4.31,4.31,0,0,1,2.39-.66,4,4,0,0,1,3.21,1.39,6.34,6.34,0,0,1,1.17,4.17v6l2,.34v1.55h-6.41v-1.55l2-.34V683.8a4.39,4.39,0,0,0-.67-2.77,2.45,2.45,0,0,0-2-.81,2.55,2.55,0,0,0-2,.88,3.92,3.92,0,0,0-.89,2.24v6.51l2,.34v1.55h-6.4v-1.55l2-.34V683.8a4.26,4.26,0,0,0-.7-2.72,2.38,2.38,0,0,0-2-.86,3.3,3.3,0,0,0-1.81.45,2.83,2.83,0,0,0-1.09,1.27v7.91l2,.34v1.55h-6.4Z"/><path class="cls-3" d="M154.31,674.21v-1.55h4.4v11.05h1.54l2.83-3.49-1.21-.16V678.5h5.53v1.56l-1.61.32-3.49,4.15,4.25,5.37,1.5.29v1.55h-5.49v-1.55l1.24-.15-3.51-4.41h-1.58v4.22l2,.34v1.55h-6.39v-1.55l2-.34V674.56Z"/><path class="cls-3" d="M169.88,685a7.29,7.29,0,0,1,1.58-4.84,5.88,5.88,0,0,1,8.66,0,7.25,7.25,0,0,1,1.59,4.84v.27a7.25,7.25,0,0,1-1.59,4.84,5.92,5.92,0,0,1-8.66,0,7.24,7.24,0,0,1-1.58-4.83Zm2.4.27a6.27,6.27,0,0,0,.89,3.47,2.94,2.94,0,0,0,2.64,1.37,2.91,2.91,0,0,0,2.6-1.37,6.27,6.27,0,0,0,.89-3.47V685a6.28,6.28,0,0,0-.89-3.46,3.19,3.19,0,0,0-5.25,0,6.37,6.37,0,0,0-.88,3.46Z"/><path class="cls-3" d="M183.34,674.21v-1.55h4.4v17.19l2,.34v1.55h-6.39v-1.55l2-.34V674.56Z"/><path class="cls-3" d="M197.6,692a5.57,5.57,0,0,1-4.4-1.84,6.92,6.92,0,0,1-1.63-4.77v-.54a6.79,6.79,0,0,1,1.68-4.7,5.19,5.19,0,0,1,4-1.88,5,5,0,0,1,4,1.61,6.43,6.43,0,0,1,1.38,4.31v1.5h-8.59l0,.06a5.19,5.19,0,0,0,1,3.14,3.08,3.08,0,0,0,2.61,1.23,6.08,6.08,0,0,0,2.14-.35,4.84,4.84,0,0,0,1.6-1l.94,1.57a5.79,5.79,0,0,1-1.88,1.15A7.36,7.36,0,0,1,197.6,692Zm-.37-11.83a2.61,2.61,0,0,0-2.07,1,4.82,4.82,0,0,0-1,2.56l0,.06h6.1v-.32a3.74,3.74,0,0,0-.76-2.37A2.7,2.7,0,0,0,197.23,680.16Z"/><path class="cls-3" d="M204.69,674.21v-1.55h4.4v11.05h1.54l2.83-3.49-1.21-.16V678.5h5.54v1.56l-1.62.32-3.48,4.15,4.24,5.37,1.5.29v1.55h-5.49v-1.55l1.24-.15-3.51-4.41h-1.58v4.22l2,.34v1.55h-6.39v-1.55l2-.34V674.56Z"/><path class="cls-3" d="M224.45,675.31v3.19H227v1.79h-2.51v8a1.78,1.78,0,0,0,.39,1.31,1.38,1.38,0,0,0,1,.38,6.38,6.38,0,0,0,.71,0l.67-.12.33,1.65a2.93,2.93,0,0,1-1,.36,6,6,0,0,1-1.32.14,3.13,3.13,0,0,1-2.34-.88,3.87,3.87,0,0,1-.87-2.79v-8H220V678.5H222v-3.19Z"/><path class="cls-3" d="M229.18,685a7.29,7.29,0,0,1,1.59-4.84,5.87,5.87,0,0,1,8.65,0A7.21,7.21,0,0,1,241,685v.27a7.25,7.25,0,0,1-1.59,4.84,5.92,5.92,0,0,1-8.66,0,7.25,7.25,0,0,1-1.59-4.83Zm4.15-8.92h-2.67v-2.44h2.67Zm-1.74,9.19a6.27,6.27,0,0,0,.89,3.47,3.19,3.19,0,0,0,5.24,0,6.27,6.27,0,0,0,.89-3.47V685a6.28,6.28,0,0,0-.89-3.46,3.19,3.19,0,0,0-5.25,0,6.28,6.28,0,0,0-.88,3.46Zm7.49-9.19h-2.67v-2.44h2.67Z"/><path class="cls-3" d="M243.22,680.06V678.5h4.15l.23,1.92a4.57,4.57,0,0,1,1.39-1.58,3.18,3.18,0,0,1,1.89-.58,4,4,0,0,1,.58,0l.46.09-.32,2.24-1.37-.07a2.72,2.72,0,0,0-1.6.45,2.81,2.81,0,0,0-1,1.25v7.59l2,.34v1.55h-6.4v-1.55l2-.34V680.4Z"/><path class="cls-3" d="M263,689.78a4.28,4.28,0,0,1-3.87,2.21,4.25,4.25,0,0,1-3.37-1.38,6.45,6.45,0,0,1-1.21-4.3V680.4l-1.51-.34V678.5H257v7.83a4.89,4.89,0,0,0,.63,2.91,2.31,2.31,0,0,0,1.94.8,4,4,0,0,0,2.12-.52A3.29,3.29,0,0,0,263,688V680.4l-1.78-.34V678.5h4.19v11.35l1.51.34v1.55H263.2Zm-5.16-13.68h-2.66v-2.45h2.66Zm5.75,0H261v-2.45h2.67Z"/><path class="cls-3" d="M83.17,721.22l2-.34v-9.45l-2-.34v-1.56h4.4v11.35l2,.34v1.54H83.17Zm4.4-15.07H85.16v-2.46h2.41Z"/><path class="cls-3" d="M91.07,705.24v-1.55h4.4v17.19l2,.34v1.54H91.07v-1.54l2-.34v-15.3Z"/><path class="cls-3" d="M105.33,723a5.57,5.57,0,0,1-4.4-1.84,6.92,6.92,0,0,1-1.63-4.77v-.54a6.77,6.77,0,0,1,1.68-4.7,5.16,5.16,0,0,1,4-1.88,5,5,0,0,1,4,1.61,6.41,6.41,0,0,1,1.38,4.31v1.5h-8.59l0,.06a5.21,5.21,0,0,0,1,3.14,3.08,3.08,0,0,0,2.61,1.23,6.08,6.08,0,0,0,2.14-.35,4.84,4.84,0,0,0,1.6-1l.94,1.56a5.63,5.63,0,0,1-1.88,1.16A7.52,7.52,0,0,1,105.33,723ZM105,711.18a2.59,2.59,0,0,0-2.07,1,4.82,4.82,0,0,0-1,2.56l0,.06H108v-.32a3.64,3.64,0,0,0-.76-2.37A2.68,2.68,0,0,0,105,711.18Z"/><path class="cls-3" d="M124.92,721.14a3.27,3.27,0,0,0,2.11-.74,2.29,2.29,0,0,0,.91-1.82h2.16l0,.08a3.69,3.69,0,0,1-1.53,3,5.52,5.52,0,0,1-3.68,1.33,5.34,5.34,0,0,1-4.41-1.88,7.28,7.28,0,0,1-1.52-4.73v-.52a7.29,7.29,0,0,1,1.52-4.71,5.34,5.34,0,0,1,4.41-1.89,7.35,7.35,0,0,1,2.85.52,5.92,5.92,0,0,1,2.1,1.45l.11,2.93h-1.92l-.53-2.08a3.2,3.2,0,0,0-1.1-.67,4.23,4.23,0,0,0-1.51-.26,2.9,2.9,0,0,0-2.71,1.37,6.43,6.43,0,0,0-.81,3.34v.52a6.48,6.48,0,0,0,.8,3.38A2.92,2.92,0,0,0,124.92,721.14Zm.09,1.73-.14.64a2.42,2.42,0,0,1,1.32.64,1.93,1.93,0,0,1,.52,1.48,2.2,2.2,0,0,1-1,1.87,4.74,4.74,0,0,1-2.77.69l-.08-1.33a2.84,2.84,0,0,0,1.41-.3,1,1,0,0,0,.53-.9.84.84,0,0,0-.44-.82,4.34,4.34,0,0,0-1.5-.32l.39-1.65Z"/><path class="cls-3" d="M141.11,722.76c-.08-.35-.13-.68-.17-1s-.07-.57-.09-.86a5.86,5.86,0,0,1-1.74,1.49,5,5,0,0,1-5.38-.42,3.72,3.72,0,0,1-1.07-2.84,3.32,3.32,0,0,1,1.52-2.91,7.43,7.43,0,0,1,4.18-1h2.48V713.7a2.4,2.4,0,0,0-.74-1.84,2.89,2.89,0,0,0-2-.68,4.83,4.83,0,0,0-1.59.24,2.88,2.88,0,0,0-1.12.63l-.26,1.4h-1.86v-2.57a7.23,7.23,0,0,1,2.19-1.16,8.68,8.68,0,0,1,2.79-.43,5.51,5.51,0,0,1,3.64,1.15,4,4,0,0,1,1.4,3.29v6.87l0,.49,1,.13v1.54ZM137.23,721a4.31,4.31,0,0,0,2.19-.57,3.63,3.63,0,0,0,1.42-1.38v-2.18h-2.57a3.68,3.68,0,0,0-2.34.68,2.06,2.06,0,0,0-.86,1.67,1.65,1.65,0,0,0,.53,1.32A2.44,2.44,0,0,0,137.23,721Z"/><path class="cls-3" d="M145.94,705.24v-1.55h4.4v17.19l2,.34v1.54h-6.39v-1.54l2-.34v-15.3Z"/><path class="cls-3" d="M154.17,711.09v-1.56h4.4v11.35l2,.34v1.54h-6.39v-1.54l2-.34v-9.45Z"/><path class="cls-3" d="M172.5,713.69h-1.81l-.39-1.59a3.39,3.39,0,0,0-1.11-.67,4.42,4.42,0,0,0-1.51-.25,2.76,2.76,0,0,0-1.91.57,1.76,1.76,0,0,0-.62,1.35,1.5,1.5,0,0,0,.55,1.24,5.78,5.78,0,0,0,2.24.81,9.48,9.48,0,0,1,3.73,1.46,2.94,2.94,0,0,1,1.22,2.47,3.41,3.41,0,0,1-1.43,2.85,5.94,5.94,0,0,1-3.72,1.09,9.76,9.76,0,0,1-2.7-.35,7.16,7.16,0,0,1-2.14-1v-3h1.81l.45,1.78a2.6,2.6,0,0,0,1.13.55,6.48,6.48,0,0,0,1.46.17,3.43,3.43,0,0,0,2-.52,1.6,1.6,0,0,0,.73-1.37,1.63,1.63,0,0,0-.6-1.3,5.72,5.72,0,0,0-2.3-.9,9.57,9.57,0,0,1-3.63-1.43,2.87,2.87,0,0,1-1.22-2.44,3.45,3.45,0,0,1,1.37-2.75,5.43,5.43,0,0,1,3.58-1.14,8.71,8.71,0,0,1,2.7.39,5.56,5.56,0,0,1,2,1.09Zm-3.94,9.17-.15.64a2.48,2.48,0,0,1,1.32.63,1.93,1.93,0,0,1,.53,1.48,2.17,2.17,0,0,1-1,1.87,4.61,4.61,0,0,1-2.76.7l-.08-1.33a2.89,2.89,0,0,0,1.41-.3,1,1,0,0,0,.53-.9.86.86,0,0,0-.44-.82,4.17,4.17,0,0,0-1.5-.32l.39-1.65Z"/><path class="cls-3" d="M174.66,721.22l2-.34v-9.45l-2-.34v-1.56h4.16l.16,1.73a4.27,4.27,0,0,1,1.64-1.46,5,5,0,0,1,2.32-.51,4.08,4.08,0,0,1,2.27.61,3.68,3.68,0,0,1,1.42,1.83,4.91,4.91,0,0,1,1.66-1.78,4.31,4.31,0,0,1,2.39-.66,4,4,0,0,1,3.21,1.39,6.33,6.33,0,0,1,1.17,4.17v6l2,.34v1.54h-6.4v-1.54l2-.34v-6a4.44,4.44,0,0,0-.67-2.77,2.46,2.46,0,0,0-2-.81,2.53,2.53,0,0,0-2,.88,3.85,3.85,0,0,0-.89,2.23v6.52l2,.34v1.54h-6.4v-1.54l2-.34v-6a4.33,4.33,0,0,0-.69-2.72,2.39,2.39,0,0,0-2-.86,3.35,3.35,0,0,0-1.81.45,3,3,0,0,0-1.09,1.27v7.91l2,.34v1.54h-6.4Z"/><path class="cls-3" d="M207.43,722.76c-.07-.35-.13-.68-.17-1a8.33,8.33,0,0,1-.08-.86,6,6,0,0,1-1.74,1.49,4.55,4.55,0,0,1-2.24.59,4.45,4.45,0,0,1-3.14-1,3.69,3.69,0,0,1-1.07-2.84,3.29,3.29,0,0,1,1.52-2.91,7.39,7.39,0,0,1,4.17-1h2.49V713.7a2.4,2.4,0,0,0-.74-1.84,2.9,2.9,0,0,0-2-.68,4.89,4.89,0,0,0-1.6.24,3,3,0,0,0-1.12.63l-.25,1.4h-1.86v-2.57a7.11,7.11,0,0,1,2.19-1.16,8.59,8.59,0,0,1,2.79-.43,5.51,5.51,0,0,1,3.64,1.15,4,4,0,0,1,1.4,3.29v6.87c0,.16,0,.33,0,.49l1,.13v1.54ZM203.56,721a4.31,4.31,0,0,0,2.19-.57,3.63,3.63,0,0,0,1.42-1.38v-2.18H204.6a3.68,3.68,0,0,0-2.34.68,2.07,2.07,0,0,0-.87,1.67,1.62,1.62,0,0,0,.54,1.32A2.44,2.44,0,0,0,203.56,721Z"/><path class="cls-3" d="M212.27,705.24v-1.55h4.4v11h1.54l2.82-3.49-1.21-.16v-1.56h5.54v1.56l-1.61.31-3.49,4.16,4.25,5.37,1.5.29v1.54h-5.49v-1.54l1.23-.16-3.5-4.4h-1.58v4.22l2,.34v1.54h-6.39v-1.54l2-.34v-15.3Z"/><ellipse class="cls-4" cx="364.32" cy="828.62" rx="106.9" ry="106.89"/><path class="cls-2" d="M314,791.57V790l2-.34v-14l-2-.35v-1.55h13.67V778h-2.07l-.19-2.38h-7v5.76h6.81v1.89h-6.81v6.37h7.16l.19-2.38h2.06v4.27Z"/><path class="cls-2" d="M334.38,775.14v3.2h2.5v1.78h-2.5v8a1.78,1.78,0,0,0,.38,1.31,1.41,1.41,0,0,0,1,.38,6.55,6.55,0,0,0,.72-.05l.67-.12.33,1.65a3,3,0,0,1-1,.36,5.92,5.92,0,0,1-1.32.14,3.11,3.11,0,0,1-2.33-.88,3.87,3.87,0,0,1-.87-2.79v-8h-2.09v-1.78H332v-3.2Z"/><path class="cls-2" d="M339,790l2-.34v-9.45l-2-.34v-1.55h4.14l.17,2a4.88,4.88,0,0,1,1.66-1.63,4.41,4.41,0,0,1,2.27-.58,4.32,4.32,0,0,1,3.31,1.25,5.48,5.48,0,0,1,1.18,3.87v6.47l2,.34v1.55h-6.4V790l2-.34v-6.42a3.59,3.59,0,0,0-.69-2.48,2.77,2.77,0,0,0-2.11-.73,3.32,3.32,0,0,0-1.84.5,3.6,3.6,0,0,0-1.28,1.37v7.76l2,.34v1.55H339Z"/><path class="cls-2" d="M355.35,784.83a7.29,7.29,0,0,1,1.59-4.84,5.87,5.87,0,0,1,8.65,0,7.26,7.26,0,0,1,1.6,4.84v.27a7.25,7.25,0,0,1-1.59,4.84,5.92,5.92,0,0,1-8.66,0,7.25,7.25,0,0,1-1.59-4.83Zm2.41.27a6.27,6.27,0,0,0,.88,3.47,3,3,0,0,0,2.64,1.37,2.91,2.91,0,0,0,2.6-1.37,6.19,6.19,0,0,0,.9-3.47v-.27a6.2,6.2,0,0,0-.9-3.46,2.93,2.93,0,0,0-2.63-1.38,2.89,2.89,0,0,0-2.61,1.38,6.28,6.28,0,0,0-.88,3.46Z"/><path class="cls-2" d="M369.4,785.19a8.66,8.66,0,0,1,1.39-5.14,4.47,4.47,0,0,1,3.86-2,4.58,4.58,0,0,1,2.18.49,4.29,4.29,0,0,1,1.58,1.42l.22-1.66h2v13a5.59,5.59,0,0,1-1.43,4.05,5.41,5.41,0,0,1-4.07,1.47,9.3,9.3,0,0,1-2.07-.26,8.25,8.25,0,0,1-1.95-.72l.62-1.87a7.34,7.34,0,0,0,1.59.59,7.5,7.5,0,0,0,1.78.23,2.89,2.89,0,0,0,2.37-.91,3.93,3.93,0,0,0,.75-2.58v-1.26a4.16,4.16,0,0,1-1.55,1.26,4.75,4.75,0,0,1-2.08.43,4.61,4.61,0,0,1-3.83-1.76,7.19,7.19,0,0,1-1.39-4.61Zm2.41.26a5.54,5.54,0,0,0,.84,3.21,2.93,2.93,0,0,0,2.57,1.21,3.17,3.17,0,0,0,1.82-.5,3.79,3.79,0,0,0,1.21-1.4v-6.09a3.74,3.74,0,0,0-1.21-1.34,3.17,3.17,0,0,0-1.8-.49,2.82,2.82,0,0,0-2.58,1.44,7.19,7.19,0,0,0-.85,3.7Z"/><path class="cls-2" d="M383.56,779.89v-1.55h4.15l.23,1.91a4.57,4.57,0,0,1,1.39-1.58,3.17,3.17,0,0,1,1.88-.58,4,4,0,0,1,.59,0l.45.09-.31,2.24-1.37-.07a2.78,2.78,0,0,0-1.61.45,2.86,2.86,0,0,0-1,1.25v7.59l2,.34v1.55h-6.4V790l2-.34v-9.45Z"/><path class="cls-2" d="M402.55,791.57c-.07-.36-.13-.69-.17-1s-.07-.57-.09-.86a5.74,5.74,0,0,1-1.74,1.49,4.51,4.51,0,0,1-2.23.59,4.38,4.38,0,0,1-3.14-1A3.69,3.69,0,0,1,394.1,788a3.29,3.29,0,0,1,1.52-2.9,7.45,7.45,0,0,1,4.18-1h2.48V782.5a2.4,2.4,0,0,0-.73-1.84,2.9,2.9,0,0,0-2-.67,4.86,4.86,0,0,0-1.6.23,3.1,3.1,0,0,0-1.12.63l-.26,1.4h-1.85v-2.57a7.17,7.17,0,0,1,2.18-1.16,9,9,0,0,1,2.79-.43,5.54,5.54,0,0,1,3.65,1.15,4,4,0,0,1,1.39,3.29v6.37c0,.17,0,.34,0,.5a4,4,0,0,0,0,.49l1,.13v1.55Zm-3.88-1.77a4.31,4.31,0,0,0,2.19-.57,3.5,3.5,0,0,0,1.42-1.38v-2.18h-2.57a3.66,3.66,0,0,0-2.34.69,2.06,2.06,0,0,0-.86,1.66,1.65,1.65,0,0,0,.54,1.33A2.48,2.48,0,0,0,398.67,789.8Z"/><path class="cls-2" d="M407.48,780.12v-1.78h2.07v-1.68a4.53,4.53,0,0,1,1.1-3.27,4.09,4.09,0,0,1,3.09-1.16,6,6,0,0,1,.84.07c.28.05.59.11.93.19l-.29,1.83a5.05,5.05,0,0,0-.53-.08,4.49,4.49,0,0,0-.64,0,1.92,1.92,0,0,0-1.58.63,2.85,2.85,0,0,0-.51,1.83v1.68h2.76v1.78H412v9.56l2,.34v1.55h-6.4V790l2-.34v-9.56Z"/><path class="cls-2" d="M323.21,804.79v1.55l-2,.35v15.9h-2.41l-8.56-13.74-.07,0v11.84l2,.34v1.54h-6.4v-1.54l2-.34v-14l-2-.35v-1.55h4.41l8.56,13.73.07,0V806.69l-2-.35v-1.55h6.39Z"/><path class="cls-2" d="M325.08,815.86a7.29,7.29,0,0,1,1.59-4.84,5.88,5.88,0,0,1,8.65,0,7.25,7.25,0,0,1,1.6,4.85v.27a7.25,7.25,0,0,1-1.59,4.84,5.92,5.92,0,0,1-8.66,0,7.25,7.25,0,0,1-1.59-4.83Zm2.41.27a6.27,6.27,0,0,0,.89,3.47,3.19,3.19,0,0,0,5.24,0,6.27,6.27,0,0,0,.89-3.47v-.27a6.28,6.28,0,0,0-.89-3.46,3.17,3.17,0,0,0-5.25,0,6.37,6.37,0,0,0-.88,3.46Z"/><path class="cls-2" d="M338.64,821.05l2-.34v-9.45l-2-.34v-1.56h4.16l.16,1.73a4.27,4.27,0,0,1,1.64-1.46,5,5,0,0,1,2.32-.51,4.08,4.08,0,0,1,2.27.61,3.75,3.75,0,0,1,1.43,1.83,4.8,4.8,0,0,1,1.65-1.78,4.31,4.31,0,0,1,2.39-.66,4,4,0,0,1,3.21,1.39,6.33,6.33,0,0,1,1.17,4.17v6l2,.34v1.54h-6.41v-1.54l2-.34v-6.05a4.38,4.38,0,0,0-.67-2.77,2.44,2.44,0,0,0-2-.81,2.55,2.55,0,0,0-2,.88,3.92,3.92,0,0,0-.89,2.23v6.52l2,.34v1.54h-6.4v-1.54l2-.34v-6.05a4.26,4.26,0,0,0-.7-2.72,2.38,2.38,0,0,0-2-.86,3.36,3.36,0,0,0-1.82.45,2.87,2.87,0,0,0-1.08,1.27v7.91l2,.34v1.54h-6.4Z"/><path class="cls-2" d="M371.42,822.59c-.08-.35-.13-.68-.17-1s-.07-.57-.09-.86a5.86,5.86,0,0,1-1.74,1.49,5,5,0,0,1-5.38-.42A3.72,3.72,0,0,1,363,819a3.29,3.29,0,0,1,1.52-2.91,7.43,7.43,0,0,1,4.18-1h2.48v-1.54a2.4,2.4,0,0,0-.74-1.84,2.9,2.9,0,0,0-2-.68,4.83,4.83,0,0,0-1.59.24,2.88,2.88,0,0,0-1.12.63l-.26,1.4h-1.86v-2.57a7.35,7.35,0,0,1,2.19-1.16,8.68,8.68,0,0,1,2.79-.43,5.51,5.51,0,0,1,3.64,1.15,4,4,0,0,1,1.4,3.29v6.87l0,.49,1,.13v1.54Zm-3.88-1.76a4.31,4.31,0,0,0,2.19-.57,3.63,3.63,0,0,0,1.42-1.38V816.7h-2.57a3.68,3.68,0,0,0-2.34.68,2.06,2.06,0,0,0-.86,1.67,1.65,1.65,0,0,0,.53,1.32A2.44,2.44,0,0,0,367.54,820.83Z"/><path class="cls-2" d="M385.49,821a4.31,4.31,0,0,1-1.58,1.37,4.81,4.81,0,0,1-2.17.46A4.52,4.52,0,0,1,378,821.1a7.32,7.32,0,0,1-1.36-4.62v-.26a8.8,8.8,0,0,1,1.36-5.14,4.38,4.38,0,0,1,3.81-2,4.75,4.75,0,0,1,2.08.43,4.3,4.3,0,0,1,1.53,1.26v-5.4l-2-.34v-1.55h4.4v17.19l2,.34v1.54h-4.08ZM379,816.48a5.56,5.56,0,0,0,.82,3.2,2.83,2.83,0,0,0,2.53,1.21,3.23,3.23,0,0,0,1.81-.48,3.76,3.76,0,0,0,1.21-1.39v-6.14a3.76,3.76,0,0,0-1.21-1.32,3.23,3.23,0,0,0-1.79-.48,2.74,2.74,0,0,0-2.55,1.43,7.36,7.36,0,0,0-.82,3.71Z"/><path class="cls-2" d="M391.69,808a6.16,6.16,0,0,1,.59-2.52,6,6,0,0,1,1.61-2.16l1.37.89a7.25,7.25,0,0,0-.87,1.8,6.52,6.52,0,0,0-.29,1.95v2.19h-2.41Z"/><path class="cls-2" d="M404.91,821a4.31,4.31,0,0,1-1.58,1.37,4.84,4.84,0,0,1-2.17.46,4.52,4.52,0,0,1-3.79-1.75,7.32,7.32,0,0,1-1.36-4.62v-.26a8.8,8.8,0,0,1,1.36-5.14,4.38,4.38,0,0,1,3.81-2,4.67,4.67,0,0,1,2.07.43,4.25,4.25,0,0,1,1.54,1.26v-5.4l-2-.34v-1.55h4.4v17.19l2,.34v1.54h-4.08Zm-6.49-4.54a5.56,5.56,0,0,0,.82,3.2,2.83,2.83,0,0,0,2.53,1.21,3.23,3.23,0,0,0,1.81-.48,3.76,3.76,0,0,0,1.21-1.39v-6.14a3.76,3.76,0,0,0-1.21-1.32,3.23,3.23,0,0,0-1.79-.48,2.73,2.73,0,0,0-2.55,1.43,7.36,7.36,0,0,0-.82,3.71Z"/><path class="cls-2" d="M419.66,822.59c-.07-.35-.13-.68-.17-1s-.07-.57-.09-.86a5.74,5.74,0,0,1-1.74,1.49,4.51,4.51,0,0,1-2.23.59,4.42,4.42,0,0,1-3.14-1,3.69,3.69,0,0,1-1.08-2.84,3.32,3.32,0,0,1,1.52-2.91,7.45,7.45,0,0,1,4.18-1h2.48v-1.54a2.4,2.4,0,0,0-.73-1.84,2.91,2.91,0,0,0-2.05-.68,4.83,4.83,0,0,0-1.59.24,2.88,2.88,0,0,0-1.12.63l-.26,1.4h-1.86v-2.57a7.35,7.35,0,0,1,2.19-1.16,8.68,8.68,0,0,1,2.79-.43,5.54,5.54,0,0,1,3.65,1.15,4,4,0,0,1,1.39,3.29v6.37c0,.17,0,.34,0,.5a4,4,0,0,0,0,.49l1,.13v1.54Zm-3.88-1.76a4.31,4.31,0,0,0,2.19-.57,3.63,3.63,0,0,0,1.42-1.38V816.7h-2.57a3.7,3.7,0,0,0-2.34.68,2.09,2.09,0,0,0-.86,1.67,1.62,1.62,0,0,0,.54,1.32A2.41,2.41,0,0,0,415.78,820.83Z"/><path class="cls-2" d="M326.6,841.94l-1.19.19-5,13.52a6.85,6.85,0,0,1-1.45,2.32,3.33,3.33,0,0,1-2.53,1,5.72,5.72,0,0,1-.73-.06c-.3,0-.54-.09-.7-.13l.24-1.9.44,0,.64,0a1.48,1.48,0,0,0,1.25-.66,7.74,7.74,0,0,0,.83-1.54l.57-1.37-4.36-11.22-1.21-.2v-1.55h5.34v1.55l-1.49.25,2.29,6.53.44,1.69H320l2.75-8.22-1.5-.25v-1.55h5.33Z"/><path class="cls-2" d="M328.07,846.88a7.28,7.28,0,0,1,1.59-4.83,5.31,5.31,0,0,1,4.31-1.9,5.39,5.39,0,0,1,4.34,1.89,7.27,7.27,0,0,1,1.59,4.84v.27a7.26,7.26,0,0,1-1.59,4.85,5.9,5.9,0,0,1-8.65,0,7.25,7.25,0,0,1-1.59-4.84Zm2.41.27a6.33,6.33,0,0,0,.88,3.48A2.94,2.94,0,0,0,334,852a2.91,2.91,0,0,0,2.6-1.37,6.25,6.25,0,0,0,.89-3.48v-.27a6.22,6.22,0,0,0-.89-3.46A2.93,2.93,0,0,0,334,842a2.89,2.89,0,0,0-2.61,1.38,6.31,6.31,0,0,0-.88,3.46Z"/><path class="cls-2" d="M341.53,836.1v-1.55h4.4v17.19l2,.34v1.54h-6.4v-1.54l2-.34v-15.3Z"/><path class="cls-2" d="M355.69,852a3.23,3.23,0,0,0,2.11-.75,2.23,2.23,0,0,0,.91-1.81h2.17l0,.07a3.72,3.72,0,0,1-1.52,3,5.56,5.56,0,0,1-3.69,1.33,5.37,5.37,0,0,1-4.41-1.88,7.34,7.34,0,0,1-1.52-4.74v-.51a7.24,7.24,0,0,1,1.53-4.71,5.34,5.34,0,0,1,4.4-1.89,7.44,7.44,0,0,1,2.86.52,5.64,5.64,0,0,1,2.09,1.45l.11,2.93h-1.92l-.52-2.08a3.15,3.15,0,0,0-1.1-.67,4.29,4.29,0,0,0-1.52-.26,2.92,2.92,0,0,0-2.71,1.37,6.41,6.41,0,0,0-.81,3.34v.51a6.46,6.46,0,0,0,.81,3.38A2.88,2.88,0,0,0,355.69,852Z"/><path class="cls-2" d="M372.71,851.67a4.47,4.47,0,0,1-1.6,1.63,4.38,4.38,0,0,1-2.27.58,4.25,4.25,0,0,1-3.37-1.38,6.47,6.47,0,0,1-1.21-4.31v-5.9l-1.51-.35v-1.55h3.92v7.83a4.89,4.89,0,0,0,.63,2.91,2.3,2.3,0,0,0,1.94.79,3.92,3.92,0,0,0,2.12-.52,3.27,3.27,0,0,0,1.27-1.47v-7.64l-1.78-.35v-1.55H375v11.35l1.51.34v1.54h-3.68Z"/><path class="cls-2" d="M378.13,836.1v-1.55h4.4v17.19l2,.34v1.54h-6.4v-1.54l2-.34v-15.3Z"/><path class="cls-2" d="M395.81,851.67a4.47,4.47,0,0,1-1.6,1.63,4.38,4.38,0,0,1-2.27.58,4.25,4.25,0,0,1-3.37-1.38,6.47,6.47,0,0,1-1.21-4.31v-5.9l-1.51-.35v-1.55h3.92v7.83a4.89,4.89,0,0,0,.63,2.91,2.3,2.3,0,0,0,1.94.79,3.92,3.92,0,0,0,2.12-.52,3.27,3.27,0,0,0,1.27-1.47v-7.64l-1.78-.35v-1.55h4.19v11.35l1.51.34v1.54H396Z"/><path class="cls-2" d="M401.23,836.1v-1.55h4.4V845.6h1.54l2.83-3.5-1.21-.16v-1.55h5.54v1.55l-1.62.32-3.48,4.16,4.24,5.37,1.5.29v1.54h-5.49v-1.54l1.24-.16-3.51-4.4h-1.58v4.22l2,.34v1.54h-6.4v-1.54l2-.34v-15.3Z"/><path class="cls-2" d="M296.87,877.91a7.25,7.25,0,0,1,1.59-4.83,5.86,5.86,0,0,1,8.65,0,7.23,7.23,0,0,1,1.6,4.84v.27a7.24,7.24,0,0,1-1.59,4.84,5.91,5.91,0,0,1-8.66,0,7.27,7.27,0,0,1-1.59-4.84Zm2.41.27a6.27,6.27,0,0,0,.89,3.47,3.19,3.19,0,0,0,5.24,0,6.27,6.27,0,0,0,.89-3.47v-.27a6.31,6.31,0,0,0-.89-3.46,3.19,3.19,0,0,0-5.25,0,6.31,6.31,0,0,0-.88,3.46Z"/><path class="cls-2" d="M310.34,867.13v-1.56h4.4v17.2l2,.34v1.54h-6.39v-1.54l2-.34v-15.3Z"/><path class="cls-2" d="M328,882.69a4.32,4.32,0,0,1-3.88,2.22,4.25,4.25,0,0,1-3.36-1.39,6.38,6.38,0,0,1-1.21-4.3v-5.91l-1.52-.34v-1.55H322v7.82a4.9,4.9,0,0,0,.62,2.91,2.32,2.32,0,0,0,1.94.8,4,4,0,0,0,2.13-.52,3.3,3.3,0,0,0,1.26-1.47v-7.65l-1.77-.34v-1.55h4.18v11.35l1.52.34v1.54h-3.68Z"/><path class="cls-2" d="M343.89,875.58h-1.81l-.39-1.59a3.19,3.19,0,0,0-1.11-.67,4.2,4.2,0,0,0-1.51-.25,2.78,2.78,0,0,0-1.9.56,1.77,1.77,0,0,0-.63,1.36,1.49,1.49,0,0,0,.55,1.23,5.62,5.62,0,0,0,2.24.81,9.79,9.79,0,0,1,3.73,1.46,3,3,0,0,1,1.22,2.48,3.43,3.43,0,0,1-1.42,2.85,6,6,0,0,1-3.73,1.09,9.76,9.76,0,0,1-2.7-.35,7.41,7.41,0,0,1-2.14-1v-3h1.81l.45,1.77a2.55,2.55,0,0,0,1.13.55,6.54,6.54,0,0,0,1.46.17,3.36,3.36,0,0,0,2-.52,1.58,1.58,0,0,0,.73-1.36,1.65,1.65,0,0,0-.6-1.31,5.74,5.74,0,0,0-2.3-.89,9.74,9.74,0,0,1-3.63-1.43,2.91,2.91,0,0,1-1.22-2.45,3.46,3.46,0,0,1,1.38-2.75,5.38,5.38,0,0,1,3.57-1.14,8.62,8.62,0,0,1,2.7.39,5.88,5.88,0,0,1,2,1.09ZM340,884.75l-.14.63a2.42,2.42,0,0,1,1.32.64,2,2,0,0,1,.52,1.48,2.2,2.2,0,0,1-1,1.87,4.74,4.74,0,0,1-2.77.7l-.08-1.34a2.89,2.89,0,0,0,1.41-.3,1,1,0,0,0,.53-.9.86.86,0,0,0-.44-.82,4.16,4.16,0,0,0-1.5-.31l.39-1.65Z"/><path class="cls-2" d="M350.74,868.23v3.19h2.51v1.78h-2.51v8a1.85,1.85,0,0,0,.38,1.31,1.41,1.41,0,0,0,1,.37,4.76,4.76,0,0,0,.72,0l.67-.12.33,1.65a3,3,0,0,1-1,.36,5.94,5.94,0,0,1-1.32.15,3.11,3.11,0,0,1-2.33-.89,3.84,3.84,0,0,1-.87-2.78v-8h-2.09v-1.78h2.09v-3.19Z"/><path class="cls-2" d="M365.17,882.69a4.32,4.32,0,0,1-3.88,2.22,4.25,4.25,0,0,1-3.36-1.39,6.38,6.38,0,0,1-1.21-4.3v-5.91L355.2,873v-1.55h3.93v7.82a4.9,4.9,0,0,0,.62,2.91,2.32,2.32,0,0,0,1.94.8,4,4,0,0,0,2.13-.52,3.3,3.3,0,0,0,1.26-1.47v-7.65l-1.77-.34v-1.55h4.18v11.35l1.52.34v1.54h-3.68Z"/><path class="cls-2" d="M370.91,873v-1.55h4.15l.23,1.92a4.62,4.62,0,0,1,1.39-1.59,3.25,3.25,0,0,1,1.89-.58,3.9,3.9,0,0,1,.58.05l.46.09-.32,2.24-1.37-.08a2.74,2.74,0,0,0-1.6.45,2.85,2.85,0,0,0-1,1.25v7.6l2,.34v1.54h-6.4v-1.54l2-.34v-9.46Z"/><path class="cls-2" d="M380.79,883.11l2-.34v-9.46l-2-.34v-1.55H385l.16,1.72a4.32,4.32,0,0,1,1.64-1.45,4.93,4.93,0,0,1,2.32-.52,4.08,4.08,0,0,1,2.27.62,3.66,3.66,0,0,1,1.43,1.83,4.83,4.83,0,0,1,1.65-1.79,4.31,4.31,0,0,1,2.39-.66,4,4,0,0,1,3.21,1.39,6.37,6.37,0,0,1,1.17,4.18v6l2,.34v1.54h-6.41v-1.54l2-.34v-6.06a4.41,4.41,0,0,0-.67-2.77,2.44,2.44,0,0,0-2-.81,2.56,2.56,0,0,0-2,.89,3.89,3.89,0,0,0-.89,2.23v6.52l2,.34v1.54h-6.4v-1.54l2-.34v-6.06a4.28,4.28,0,0,0-.7-2.72,2.41,2.41,0,0,0-2-.86,3.3,3.3,0,0,0-1.81.45,2.88,2.88,0,0,0-1.09,1.27v7.92l2,.34v1.54h-6.4Z"/><path class="cls-2" d="M413.57,884.65c-.08-.36-.13-.68-.17-1s-.07-.57-.09-.85a5.83,5.83,0,0,1-1.74,1.48,4.42,4.42,0,0,1-2.23.6,4.46,4.46,0,0,1-3.15-1,3.75,3.75,0,0,1-1.07-2.85,3.3,3.3,0,0,1,1.52-2.9,7.45,7.45,0,0,1,4.18-1h2.48v-1.54a2.37,2.37,0,0,0-.74-1.84,2.89,2.89,0,0,0-2-.68,5.12,5.12,0,0,0-1.59.23,3,3,0,0,0-1.12.64l-.26,1.39h-1.86v-2.57a7.33,7.33,0,0,1,2.19-1.15,8.68,8.68,0,0,1,2.79-.44,5.57,5.57,0,0,1,3.64,1.15,4,4,0,0,1,1.4,3.29v6.87l0,.49,1,.14v1.54Zm-3.88-1.76a4.22,4.22,0,0,0,2.19-.58,3.57,3.57,0,0,0,1.42-1.38v-2.18h-2.57a3.62,3.62,0,0,0-2.34.69,2,2,0,0,0-.86,1.66,1.68,1.68,0,0,0,.53,1.33A2.5,2.5,0,0,0,409.69,882.89Z"/><path class="cls-2" d="M418.4,867.13v-1.56h4.4v11.06h1.54l2.83-3.5L426,873v-1.55h5.53V873l-1.61.32-3.48,4.16,4.24,5.36,1.5.3v1.54h-5.49v-1.54l1.24-.16-3.51-4.4H422.8v4.22l2,.34v1.54H418.4v-1.54l2-.34v-15.3Z"/><ellipse class="cls-2" cx="280.16" cy="437.49" rx="152.64" ry="152.63"/><path class="cls-3" d="M154.73,418.83l2-.34v-14l-2-.35v-1.55h6.4v1.55l-2,.35v6H161l5-6.15-1.34-.18v-1.55h5.65v1.55l-1.67.31-5.44,6.75,5.94,7.35,1.67.3v1.55h-5.84v-1.55l1.36-.17-5.08-6.32h-2.08v6.15l2,.34v1.55h-6.4Z"/><path class="cls-3" d="M172.71,418.83l2-.34V409l-2-.34v-1.56h4.4v11.35l2,.34v1.55h-6.39Zm4.4-15.07H174.7V401.3h2.41Z"/><path class="cls-3" d="M191.06,411.3h-1.81l-.39-1.59a3.18,3.18,0,0,0-1.11-.66,4.16,4.16,0,0,0-1.51-.25,2.73,2.73,0,0,0-1.9.56,1.75,1.75,0,0,0-.63,1.35,1.53,1.53,0,0,0,.55,1.24,5.85,5.85,0,0,0,2.24.81,9.63,9.63,0,0,1,3.73,1.46,2.94,2.94,0,0,1,1.22,2.47,3.4,3.4,0,0,1-1.42,2.85,6,6,0,0,1-3.73,1.09,9.4,9.4,0,0,1-2.7-.35,7.16,7.16,0,0,1-2.14-1v-3h1.81l.45,1.78a2.66,2.66,0,0,0,1.13.55,6.54,6.54,0,0,0,1.46.17,3.41,3.41,0,0,0,2-.52,1.61,1.61,0,0,0,.72-1.36,1.65,1.65,0,0,0-.6-1.31,5.73,5.73,0,0,0-2.29-.9,9.56,9.56,0,0,1-3.64-1.43,2.88,2.88,0,0,1-1.22-2.44,3.45,3.45,0,0,1,1.38-2.75,5.4,5.4,0,0,1,3.57-1.14,8.73,8.73,0,0,1,2.71.39,5.76,5.76,0,0,1,2,1.09Zm-3.94,9.17-.14.64a2.48,2.48,0,0,1,1.32.63,2,2,0,0,1,.52,1.48,2.18,2.18,0,0,1-1,1.87,4.67,4.67,0,0,1-2.77.7l-.08-1.33a2.87,2.87,0,0,0,1.41-.3,1,1,0,0,0,.53-.9.84.84,0,0,0-.44-.82,4.34,4.34,0,0,0-1.5-.32l.39-1.65Z"/><path class="cls-3" d="M193.7,418.83l2-.34V409l-2-.34v-1.56h4.4v11.35l2,.34v1.55h-6.4Zm4.4-15.07h-2.4V401.3h2.4Z"/><path class="cls-3" d="M212.06,411.3h-1.81l-.39-1.59a3.37,3.37,0,0,0-1.11-.66,4.2,4.2,0,0,0-1.51-.25,2.76,2.76,0,0,0-1.91.56,1.77,1.77,0,0,0-.62,1.35,1.5,1.5,0,0,0,.55,1.24,5.78,5.78,0,0,0,2.24.81,9.63,9.63,0,0,1,3.73,1.46,2.94,2.94,0,0,1,1.22,2.47,3.41,3.41,0,0,1-1.43,2.85,5.94,5.94,0,0,1-3.72,1.09,9.4,9.4,0,0,1-2.7-.35,7.16,7.16,0,0,1-2.14-1v-3h1.81l.45,1.78a2.6,2.6,0,0,0,1.13.55,6.48,6.48,0,0,0,1.46.17,3.36,3.36,0,0,0,2-.52,1.59,1.59,0,0,0,.73-1.36,1.63,1.63,0,0,0-.61-1.31,5.6,5.6,0,0,0-2.29-.9,9.57,9.57,0,0,1-3.63-1.43,2.85,2.85,0,0,1-1.22-2.44,3.46,3.46,0,0,1,1.37-2.75,5.43,5.43,0,0,1,3.58-1.14,8.71,8.71,0,0,1,2.7.39,5.72,5.72,0,0,1,2,1.09Z"/><path class="cls-3" d="M220.74,420.63a5.59,5.59,0,0,1-4.4-1.84,6.9,6.9,0,0,1-1.63-4.77v-.54a6.79,6.79,0,0,1,1.68-4.7,5.19,5.19,0,0,1,4-1.88,5,5,0,0,1,4,1.61,6.43,6.43,0,0,1,1.38,4.31v1.5h-8.58l0,.06a5.26,5.26,0,0,0,1,3.14,3.08,3.08,0,0,0,2.61,1.23,6.17,6.17,0,0,0,2.15-.35,4.9,4.9,0,0,0,1.59-1l.94,1.57a5.84,5.84,0,0,1-1.87,1.15A7.61,7.61,0,0,1,220.74,420.63Zm-.37-11.83a2.61,2.61,0,0,0-2.06,1,4.83,4.83,0,0,0-1.06,2.56l0,.06h6.1v-.32a3.66,3.66,0,0,0-.76-2.37A2.67,2.67,0,0,0,220.37,408.8Z"/><path class="cls-3" d="M227.83,402.85V401.3h4.4v17.19l2,.34v1.55h-6.4v-1.55l2-.34v-15.3Z"/><path class="cls-3" d="M242.29,413.64a7.29,7.29,0,0,1,1.59-4.84,5.87,5.87,0,0,1,8.65,0,7.25,7.25,0,0,1,1.59,4.84v.27a7.25,7.25,0,0,1-1.59,4.84,5.9,5.9,0,0,1-8.65,0,7.25,7.25,0,0,1-1.59-4.83Zm4.14-8.92h-2.66v-2.44h2.66Zm-1.73,9.19a6.27,6.27,0,0,0,.88,3.47,2.94,2.94,0,0,0,2.64,1.37,2.91,2.91,0,0,0,2.6-1.37,6.19,6.19,0,0,0,.89-3.47v-.27a6.2,6.2,0,0,0-.89-3.46,2.93,2.93,0,0,0-2.63-1.38,2.89,2.89,0,0,0-2.61,1.38,6.28,6.28,0,0,0-.88,3.46Zm7.48-9.19h-2.67v-2.44h2.67Z"/><path class="cls-3" d="M256.34,414a8.66,8.66,0,0,1,1.39-5.14,4.46,4.46,0,0,1,3.85-2,4.65,4.65,0,0,1,2.19.49,4.37,4.37,0,0,1,1.58,1.42l.22-1.67h2V420.2a5.59,5.59,0,0,1-1.43,4.05,5.43,5.43,0,0,1-4.07,1.47,9.3,9.3,0,0,1-2.07-.26,8.5,8.5,0,0,1-2-.72l.63-1.87a7,7,0,0,0,1.59.59,7.43,7.43,0,0,0,1.78.23,2.89,2.89,0,0,0,2.37-.91,3.93,3.93,0,0,0,.75-2.58v-1.26a4.16,4.16,0,0,1-1.55,1.26,4.78,4.78,0,0,1-2.08.43,4.61,4.61,0,0,1-3.83-1.76,7.19,7.19,0,0,1-1.39-4.61Zm9.58-12.49,0,.07a2.82,2.82,0,0,1-.94,2.31,4.47,4.47,0,0,1-5.35,0,2.78,2.78,0,0,1-.93-2.31l0-.07h1.83a2,2,0,0,0,.42,1.3,1.63,1.63,0,0,0,1.33.51,1.62,1.62,0,0,0,1.31-.51,2,2,0,0,0,.43-1.3Zm-7.17,12.75a5.49,5.49,0,0,0,.84,3.2,2.92,2.92,0,0,0,2.57,1.22,3.19,3.19,0,0,0,1.82-.5,3.79,3.79,0,0,0,1.21-1.4v-6.09a3.74,3.74,0,0,0-1.21-1.34,3.19,3.19,0,0,0-1.8-.49,2.81,2.81,0,0,0-2.58,1.44,7.19,7.19,0,0,0-.85,3.7Z"/><path class="cls-3" d="M270.5,408.7v-1.56h4.14l.24,1.92a4.68,4.68,0,0,1,1.38-1.59,3.24,3.24,0,0,1,1.89-.57,3.86,3.86,0,0,1,.58,0,3.72,3.72,0,0,1,.46.09l-.32,2.24-1.37-.07a2.74,2.74,0,0,0-1.6.45,2.86,2.86,0,0,0-1,1.25v7.59l2,.34v1.55H270.5v-1.55l2-.34V409Z"/><path class="cls-3" d="M286.66,420.63a5.56,5.56,0,0,1-4.39-1.84,6.91,6.91,0,0,1-1.64-4.77v-.54a6.79,6.79,0,0,1,1.69-4.7,5.17,5.17,0,0,1,4-1.88,5,5,0,0,1,4,1.61,6.48,6.48,0,0,1,1.37,4.31v1.5h-8.58l0,.06a5.26,5.26,0,0,0,1,3.14,3.08,3.08,0,0,0,2.6,1.23,6.13,6.13,0,0,0,2.15-.35,5,5,0,0,0,1.6-1l.94,1.57a5.9,5.9,0,0,1-1.88,1.15A7.58,7.58,0,0,1,286.66,420.63Zm-.36-11.83a2.61,2.61,0,0,0-2.07,1,4.82,4.82,0,0,0-1.05,2.56l0,.06h6.1v-.32a3.71,3.71,0,0,0-.75-2.37A2.7,2.7,0,0,0,286.3,408.8Z"/><path class="cls-3" d="M293.73,418.83l2-.34V409l-2-.34v-1.56h4.15l.17,2a4.79,4.79,0,0,1,1.66-1.63,4.9,4.9,0,0,1,5.58.67,5.53,5.53,0,0,1,1.17,3.87v6.47l2,.34v1.55h-6.4v-1.55l2-.34v-6.42a3.59,3.59,0,0,0-.69-2.48,2.76,2.76,0,0,0-2.11-.73,3.37,3.37,0,0,0-1.84.5,3.68,3.68,0,0,0-1.28,1.37v7.76l2,.34v1.55h-6.4Z"/><path class="cls-3" d="M309.73,418.83l2-.34V409l-2-.34v-1.56h4.15l.16,1.73a4.43,4.43,0,0,1,1.64-1.46,5.08,5.08,0,0,1,2.32-.51,4.05,4.05,0,0,1,2.27.61,3.68,3.68,0,0,1,1.43,1.84,4.83,4.83,0,0,1,1.65-1.79,4.32,4.32,0,0,1,2.4-.66,4,4,0,0,1,3.2,1.39,6.34,6.34,0,0,1,1.17,4.17v6l2,.34v1.55h-6.41v-1.55l2-.34v-6.05a4.39,4.39,0,0,0-.67-2.77,2.44,2.44,0,0,0-2-.81,2.55,2.55,0,0,0-2,.88,3.85,3.85,0,0,0-.88,2.23v6.52l2,.34v1.55h-6.4v-1.55l2-.34v-6.05a4.33,4.33,0,0,0-.69-2.72,2.4,2.4,0,0,0-2-.86,3.3,3.3,0,0,0-1.81.45,2.83,2.83,0,0,0-1.09,1.27v7.91l2,.34v1.55h-6.39Z"/><path class="cls-3" d="M339.78,420.63a5.56,5.56,0,0,1-4.39-1.84,6.9,6.9,0,0,1-1.63-4.77v-.54a6.79,6.79,0,0,1,1.68-4.7,5.17,5.17,0,0,1,4-1.88,5,5,0,0,1,4,1.61,6.43,6.43,0,0,1,1.38,4.31v1.5h-8.59l0,.06a5.26,5.26,0,0,0,1,3.14,3.08,3.08,0,0,0,2.6,1.23,6.09,6.09,0,0,0,2.15-.35,4.84,4.84,0,0,0,1.6-1l.94,1.57a5.79,5.79,0,0,1-1.88,1.15A7.58,7.58,0,0,1,339.78,420.63Zm-.36-11.83a2.61,2.61,0,0,0-2.07,1,4.82,4.82,0,0,0-1.05,2.56l0,.06h6.11v-.32a3.72,3.72,0,0,0-.76-2.37A2.7,2.7,0,0,0,339.42,408.8Z"/><path class="cls-3" d="M362.06,420.38c-.07-.36-.13-.69-.17-1a8.33,8.33,0,0,1-.08-.86,6,6,0,0,1-1.74,1.49,4.55,4.55,0,0,1-2.24.59,4.41,4.41,0,0,1-3.14-1,3.69,3.69,0,0,1-1.08-2.84,3.29,3.29,0,0,1,1.53-2.9,7.39,7.39,0,0,1,4.17-1h2.48v-1.55a2.4,2.4,0,0,0-.73-1.84,2.9,2.9,0,0,0-2-.67,4.9,4.9,0,0,0-1.6.23,3,3,0,0,0-1.12.63l-.25,1.4h-1.86v-2.57a7.11,7.11,0,0,1,2.19-1.16,8.87,8.87,0,0,1,2.79-.43,5.51,5.51,0,0,1,3.64,1.15,4,4,0,0,1,1.39,3.29v6.37c0,.17,0,.34,0,.5a4,4,0,0,0,0,.49l1,.13v1.55Zm-3.87-1.77a4.31,4.31,0,0,0,2.19-.57,3.47,3.47,0,0,0,1.41-1.38v-2.18h-2.56a3.62,3.62,0,0,0-2.34.69,2,2,0,0,0-.87,1.66,1.65,1.65,0,0,0,.54,1.33A2.5,2.5,0,0,0,358.19,418.61Z"/><path class="cls-3" d="M367.22,408.7v-1.56h4.15l.23,1.92a4.81,4.81,0,0,1,1.39-1.59,3.24,3.24,0,0,1,1.89-.57,3.86,3.86,0,0,1,.58,0l.46.09-.32,2.24-1.37-.07a2.74,2.74,0,0,0-1.6.45,2.79,2.79,0,0,0-1,1.25v7.59l2,.34v1.55h-6.4v-1.55l2-.34V409Z"/><path class="cls-3" d="M386.22,420.38c-.08-.36-.13-.69-.18-1s-.06-.57-.08-.86a6,6,0,0,1-1.74,1.49,4.52,4.52,0,0,1-2.24.59,4.41,4.41,0,0,1-3.14-1,3.72,3.72,0,0,1-1.07-2.84,3.28,3.28,0,0,1,1.52-2.9,7.41,7.41,0,0,1,4.17-1H386v-1.55a2.4,2.4,0,0,0-.74-1.84,2.9,2.9,0,0,0-2-.67,4.84,4.84,0,0,0-1.59.23,2.81,2.81,0,0,0-1.12.63l-.26,1.4h-1.86v-2.57a7.11,7.11,0,0,1,2.19-1.16,8.92,8.92,0,0,1,2.79-.43,5.51,5.51,0,0,1,3.64,1.15,4,4,0,0,1,1.4,3.29v6.87l0,.49,1,.13v1.55Zm-3.88-1.77a4.31,4.31,0,0,0,2.19-.57,3.57,3.57,0,0,0,1.42-1.38v-2.18h-2.57a3.62,3.62,0,0,0-2.34.69,2,2,0,0,0-.87,1.66,1.65,1.65,0,0,0,.54,1.33A2.5,2.5,0,0,0,382.34,418.61Z"/><path class="cls-3" d="M397.32,418.75a3.27,3.27,0,0,0,2.11-.74,2.25,2.25,0,0,0,.91-1.82h2.16l0,.08a3.74,3.74,0,0,1-1.52,3,5.61,5.61,0,0,1-3.69,1.32,5.37,5.37,0,0,1-4.41-1.88,7.31,7.31,0,0,1-1.52-4.73v-.52a7.24,7.24,0,0,1,1.53-4.71,5.32,5.32,0,0,1,4.4-1.89,7.35,7.35,0,0,1,2.85.53,5.69,5.69,0,0,1,2.1,1.44l.11,2.93h-1.92l-.52-2.08a3.41,3.41,0,0,0-1.1-.67,4.29,4.29,0,0,0-1.52-.25,2.9,2.9,0,0,0-2.71,1.36,6.43,6.43,0,0,0-.81,3.34V414a6.58,6.58,0,0,0,.8,3.38A2.92,2.92,0,0,0,397.32,418.75Z"/><path class="cls-3" d="M404.89,408.7v-1.56h4.4v11.35l2,.34v1.55h-6.39v-1.55l2-.34V409Z"/><path class="cls-3" d="M159.81,444.67a7.29,7.29,0,0,1,1.59-4.84,5.31,5.31,0,0,1,4.31-1.9,5.39,5.39,0,0,1,4.34,1.89,7.3,7.3,0,0,1,1.59,4.85v.26a7.26,7.26,0,0,1-1.59,4.85,5.9,5.9,0,0,1-8.65,0,7.25,7.25,0,0,1-1.59-4.84Zm2.4.26a6.31,6.31,0,0,0,.89,3.48,2.94,2.94,0,0,0,2.64,1.37,2.91,2.91,0,0,0,2.6-1.37,6.23,6.23,0,0,0,.89-3.48v-.26a6.2,6.2,0,0,0-.89-3.46,3.17,3.17,0,0,0-5.25,0,6.37,6.37,0,0,0-.88,3.46Z"/><path class="cls-3" d="M173.27,433.88v-1.55h4.4v17.19l2,.34v1.54h-6.4v-1.54l2-.34v-15.3Z"/><path class="cls-3" d="M190.12,451.4c-.07-.36-.13-.68-.17-1s-.07-.57-.09-.86a5.74,5.74,0,0,1-1.74,1.49,4.51,4.51,0,0,1-2.23.59,4.42,4.42,0,0,1-3.14-1,3.69,3.69,0,0,1-1.08-2.84,3.31,3.31,0,0,1,1.52-2.91,7.45,7.45,0,0,1,4.18-1h2.48v-1.54a2.38,2.38,0,0,0-.73-1.84,2.9,2.9,0,0,0-2-.68,4.85,4.85,0,0,0-1.6.24,3,3,0,0,0-1.12.63l-.26,1.4h-1.85v-2.57a7.17,7.17,0,0,1,2.18-1.16,8.68,8.68,0,0,1,2.79-.43,5.54,5.54,0,0,1,3.65,1.15,4,4,0,0,1,1.39,3.29v6.37c0,.17,0,.34,0,.5a4.15,4.15,0,0,0,0,.49l1,.13v1.54Zm-3.88-1.76a4.31,4.31,0,0,0,2.19-.57,3.63,3.63,0,0,0,1.42-1.38v-2.18h-2.57a3.72,3.72,0,0,0-2.34.68,2.08,2.08,0,0,0-.86,1.67,1.62,1.62,0,0,0,.54,1.32A2.43,2.43,0,0,0,186.24,449.64Z"/><path class="cls-3" d="M195.28,439.73v-1.56h4.15l.23,1.92a4.7,4.7,0,0,1,1.39-1.59,3.24,3.24,0,0,1,1.89-.57,4,4,0,0,1,.58,0,3.49,3.49,0,0,1,.45.09l-.31,2.24-1.37-.07a2.79,2.79,0,0,0-1.6.44,2.89,2.89,0,0,0-1,1.26v7.59l2,.34v1.54h-6.4v-1.54l2-.34v-9.45Z"/><path class="cls-3" d="M214.27,451.4c-.07-.36-.13-.68-.17-1s-.07-.57-.09-.86a5.74,5.74,0,0,1-1.74,1.49,4.48,4.48,0,0,1-2.23.59,4.42,4.42,0,0,1-3.14-1,3.69,3.69,0,0,1-1.08-2.84,3.31,3.31,0,0,1,1.52-2.91,7.45,7.45,0,0,1,4.18-1H214v-1.54a2.38,2.38,0,0,0-.73-1.84,2.9,2.9,0,0,0-2-.68,4.85,4.85,0,0,0-1.6.24,3,3,0,0,0-1.12.63l-.26,1.4H206.4v-2.57a7.11,7.11,0,0,1,2.19-1.16,8.57,8.57,0,0,1,2.78-.43,5.54,5.54,0,0,1,3.65,1.15,4,4,0,0,1,1.39,3.29v6.37c0,.17,0,.34,0,.5a4.15,4.15,0,0,0,0,.49l1,.13v1.54Zm-3.88-1.76a4.31,4.31,0,0,0,2.19-.57,3.63,3.63,0,0,0,1.42-1.38v-2.18h-2.57a3.72,3.72,0,0,0-2.34.68,2.08,2.08,0,0,0-.86,1.67,1.62,1.62,0,0,0,.54,1.32A2.43,2.43,0,0,0,210.39,449.64Z"/><path class="cls-3" d="M219.1,433.88v-1.55h4.4v11.05H225l2.83-3.5-1.21-.15v-1.56h5.54v1.56l-1.62.31-3.48,4.16,4.24,5.37,1.51.29v1.54h-5.49v-1.54l1.23-.16-3.51-4.4H223.5v4.22l2,.34v1.54h-6.4v-1.54l2-.34v-15.3Z"/><path class="cls-3" d="M249.79,449.83a4.11,4.11,0,0,1-1.58,1.36,4.81,4.81,0,0,1-2.17.47,4.53,4.53,0,0,1-3.78-1.76,7.27,7.27,0,0,1-1.37-4.61V445a8.84,8.84,0,0,1,1.37-5.15,4.38,4.38,0,0,1,3.81-1.95,4.7,4.7,0,0,1,2.07.43,4.21,4.21,0,0,1,1.53,1.26v-5.4l-2-.34v-1.55h4.4v17.19l2,.34v1.54H250Zm-6.49-4.54a5.56,5.56,0,0,0,.82,3.2,2.84,2.84,0,0,0,2.53,1.21,3.16,3.16,0,0,0,1.81-.49,3.65,3.65,0,0,0,1.21-1.38v-6.14a3.76,3.76,0,0,0-1.21-1.32,3.23,3.23,0,0,0-1.78-.49,2.74,2.74,0,0,0-2.55,1.44,7.36,7.36,0,0,0-.83,3.71Z"/><path class="cls-3" d="M262,451.66a5.59,5.59,0,0,1-4.4-1.84,6.93,6.93,0,0,1-1.63-4.78v-.53a6.81,6.81,0,0,1,1.68-4.71,5.18,5.18,0,0,1,4-1.87,5,5,0,0,1,4,1.61,6.41,6.41,0,0,1,1.38,4.31v1.5h-8.58l0,.06a5.28,5.28,0,0,0,1,3.14,3.08,3.08,0,0,0,2.61,1.23,6.17,6.17,0,0,0,2.15-.35,4.9,4.9,0,0,0,1.59-1l.94,1.56a5.69,5.69,0,0,1-1.87,1.16A7.61,7.61,0,0,1,262,451.66Zm-.37-11.84a2.61,2.61,0,0,0-2.06,1,4.9,4.9,0,0,0-1.06,2.57l0,.06h6.1v-.32a3.64,3.64,0,0,0-.76-2.37A2.68,2.68,0,0,0,261.58,439.82Z"/><path class="cls-3" d="M269,449.86l2-.34v-9.45l-2-.34v-1.56h4.14l.18,2a4.85,4.85,0,0,1,1.65-1.63,4.41,4.41,0,0,1,2.27-.58,4.32,4.32,0,0,1,3.31,1.25,5.48,5.48,0,0,1,1.18,3.87v6.47l2,.34v1.54h-6.39v-1.54l2-.34V443.1a3.57,3.57,0,0,0-.69-2.48,2.78,2.78,0,0,0-2.11-.74,3.35,3.35,0,0,0-1.84.51,3.6,3.6,0,0,0-1.28,1.37v7.76l2,.34v1.54H269Z"/><path class="cls-3" d="M291.41,451.66a5.59,5.59,0,0,1-4.4-1.84,6.93,6.93,0,0,1-1.63-4.78v-.53a6.81,6.81,0,0,1,1.68-4.71,5.18,5.18,0,0,1,4-1.87,5,5,0,0,1,4,1.61,6.41,6.41,0,0,1,1.38,4.31v1.5h-8.59l0,.06a5.21,5.21,0,0,0,1,3.14,3.08,3.08,0,0,0,2.61,1.23,6.08,6.08,0,0,0,2.14-.35,4.84,4.84,0,0,0,1.6-1l.94,1.56a5.63,5.63,0,0,1-1.88,1.16A7.52,7.52,0,0,1,291.41,451.66ZM291,439.82a2.61,2.61,0,0,0-2.07,1,4.89,4.89,0,0,0-1.05,2.57l0,.06h6.1v-.32a3.64,3.64,0,0,0-.76-2.37A2.68,2.68,0,0,0,291,439.82Z"/><path class="cls-3" d="M311.24,439.73l-1.18.18-5,13.52a7,7,0,0,1-1.44,2.33,3.35,3.35,0,0,1-2.54,1,6.23,6.23,0,0,1-.73-.07l-.7-.13.25-1.89.43,0,.64,0a1.48,1.48,0,0,0,1.25-.67,7.18,7.18,0,0,0,.83-1.53l.58-1.37-4.37-11.23-1.21-.19v-1.56h5.35v1.56l-1.5.24,2.29,6.53.44,1.69h.07l2.76-8.22-1.51-.24v-1.56h5.33Z"/><path class="cls-3" d="M312.88,449.86l2-.34v-9.45l-2-.34v-1.56h4.4v11.35l2,.34v1.54h-6.4Zm4.4-15.07h-2.4v-2.46h2.4Z"/><path class="cls-3" d="M320.63,449.86l2-.34v-9.45l-2-.34v-1.56h4.16l.16,1.73a4.34,4.34,0,0,1,1.64-1.46,5,5,0,0,1,2.32-.51,4.08,4.08,0,0,1,2.27.61,3.75,3.75,0,0,1,1.43,1.83,4.8,4.8,0,0,1,1.65-1.78,4.31,4.31,0,0,1,2.39-.66,4,4,0,0,1,3.21,1.39,6.33,6.33,0,0,1,1.17,4.17v6l2,.34v1.54h-6.41v-1.54l2-.34v-6a4.38,4.38,0,0,0-.67-2.77,2.44,2.44,0,0,0-2-.82,2.56,2.56,0,0,0-2,.89A3.92,3.92,0,0,0,333,443v6.52l2,.34v1.54h-6.4v-1.54l2-.34v-6a4.26,4.26,0,0,0-.7-2.72,2.39,2.39,0,0,0-2-.87,3.3,3.3,0,0,0-1.81.46,2.83,2.83,0,0,0-1.09,1.27v7.91l2,.34v1.54h-6.4Z"/><path class="cls-3" d="M344.44,433.88v-1.55h4.41v17.19l2,.34v1.54h-6.4v-1.54l2-.34v-15.3Z"/><path class="cls-3" d="M358.7,451.66a5.55,5.55,0,0,1-4.39-1.84,6.94,6.94,0,0,1-1.64-4.78v-.53a6.81,6.81,0,0,1,1.68-4.71,5.18,5.18,0,0,1,4-1.87,5,5,0,0,1,4,1.61,6.46,6.46,0,0,1,1.37,4.31v1.5h-8.58l0,.06a5.28,5.28,0,0,0,1,3.14,3.08,3.08,0,0,0,2.6,1.23,6.13,6.13,0,0,0,2.15-.35,4.8,4.8,0,0,0,1.59-1l.94,1.56a5.58,5.58,0,0,1-1.87,1.16A7.61,7.61,0,0,1,358.7,451.66Zm-.36-11.84a2.61,2.61,0,0,0-2.07,1,4.89,4.89,0,0,0-1,2.57l0,.06h6.1v-.32a3.69,3.69,0,0,0-.75-2.37A2.7,2.7,0,0,0,358.34,439.82Z"/><path class="cls-3" d="M365.65,449.86l2-.34v-9.45l-2-.34v-1.56h4.16l.15,1.73a4.34,4.34,0,0,1,1.64-1.46,5.09,5.09,0,0,1,2.33-.51,4,4,0,0,1,2.26.61,3.7,3.7,0,0,1,1.43,1.83,5,5,0,0,1,1.65-1.78,4.34,4.34,0,0,1,2.4-.66,4,4,0,0,1,3.2,1.39,6.33,6.33,0,0,1,1.17,4.17v6l2,.34v1.54h-6.41v-1.54l2-.34v-6a4.38,4.38,0,0,0-.67-2.77,2.44,2.44,0,0,0-2-.82,2.56,2.56,0,0,0-2,.89,3.85,3.85,0,0,0-.88,2.23v6.52l2,.34v1.54h-6.4v-1.54l2-.34v-6a4.33,4.33,0,0,0-.69-2.72,2.41,2.41,0,0,0-2-.87,3.3,3.3,0,0,0-1.81.46,2.89,2.89,0,0,0-1.09,1.27v7.91l2,.34v1.54h-6.39Z"/><path class="cls-3" d="M395.71,451.66a5.57,5.57,0,0,1-4.4-1.84,6.93,6.93,0,0,1-1.63-4.78v-.53a6.81,6.81,0,0,1,1.68-4.71,5.18,5.18,0,0,1,4-1.87,5,5,0,0,1,4,1.61,6.41,6.41,0,0,1,1.38,4.31v1.5h-8.59l0,.06a5.28,5.28,0,0,0,1,3.14,3.08,3.08,0,0,0,2.61,1.23,6.08,6.08,0,0,0,2.14-.35,4.84,4.84,0,0,0,1.6-1l.94,1.56a5.63,5.63,0,0,1-1.88,1.16A7.56,7.56,0,0,1,395.71,451.66Zm-.37-11.84a2.61,2.61,0,0,0-2.07,1,4.89,4.89,0,0,0-1,2.57l0,.06h6.1v-.32a3.7,3.7,0,0,0-.76-2.37A2.7,2.7,0,0,0,395.34,439.82Z"/><path class="cls-3" d="M406.22,440.64h-2.41v-2.47h2.41Zm0,10.76h-2.41v-2.47h2.41Z"/><path class="cls-3" d="M181,480.89l2-.34v-14l-2-.34v-1.55h6.39v1.55l-2,.34v6h1.85l5-6.15-1.33-.17v-1.55h5.65v1.55l-1.68.31-5.44,6.74,6,7.35,1.67.31v1.54H191.2v-1.54l1.35-.17-5.07-6.32H185.4v6.15l2,.34v1.54H181Z"/><path class="cls-3" d="M207.61,482.43c-.08-.36-.13-.68-.17-1a8.17,8.17,0,0,1-.09-.85,6,6,0,0,1-1.74,1.48,4.42,4.42,0,0,1-2.23.6,4.46,4.46,0,0,1-3.15-1,3.72,3.72,0,0,1-1.07-2.84,3.28,3.28,0,0,1,1.52-2.91,7.43,7.43,0,0,1,4.18-1h2.48v-1.54a2.39,2.39,0,0,0-.74-1.84,2.89,2.89,0,0,0-2-.68,5.12,5.12,0,0,0-1.59.23,3,3,0,0,0-1.12.64l-.26,1.39h-1.86v-2.56a7,7,0,0,1,2.19-1.16,8.68,8.68,0,0,1,2.79-.43,5.56,5.56,0,0,1,3.64,1.14,4,4,0,0,1,1.4,3.29v6.88l0,.48,1,.14v1.54Zm-3.88-1.76a4.22,4.22,0,0,0,2.19-.58,3.57,3.57,0,0,0,1.42-1.38v-2.17h-2.57a3.62,3.62,0,0,0-2.34.68,2,2,0,0,0-.86,1.66,1.67,1.67,0,0,0,.53,1.33A2.44,2.44,0,0,0,203.73,480.67Z"/><path class="cls-3" d="M217,466v3.19h2.51V471H217v8a1.8,1.8,0,0,0,.39,1.31,1.41,1.41,0,0,0,1,.38,4.74,4.74,0,0,0,.71-.06,6,6,0,0,0,.67-.12l.33,1.66a3.42,3.42,0,0,1-1,.36,6.58,6.58,0,0,1-1.32.14,3.14,3.14,0,0,1-2.34-.89,3.84,3.84,0,0,1-.87-2.78v-8h-2.09V469.2h2.09V466Z"/><path class="cls-3" d="M222,470.75V469.2h4.4v11.35l2,.34v1.54H222v-1.54l2-.34V471.1Z"/><path class="cls-3" d="M229.83,464.91v-1.55h4.4v17.19l2,.34v1.54h-6.39v-1.54l2-.34v-15.3Z"/><path class="cls-3" d="M238.06,470.75V469.2h4.4v11.35l2,.34v1.54h-6.39v-1.54l2-.34V471.1Z"/><path class="cls-3" d="M245.78,480.89l2-.34V471.1l-2-.35V469.2h4.16l.16,1.72a4.33,4.33,0,0,1,1.64-1.45,5,5,0,0,1,2.32-.51,4.08,4.08,0,0,1,2.27.61,3.71,3.71,0,0,1,1.43,1.83,4.8,4.8,0,0,1,1.65-1.78,4.31,4.31,0,0,1,2.39-.66,4,4,0,0,1,3.21,1.38,6.37,6.37,0,0,1,1.17,4.18v6l2,.34v1.54h-6.4v-1.54l2-.34v-6.06a4.41,4.41,0,0,0-.67-2.77,2.46,2.46,0,0,0-2-.81,2.54,2.54,0,0,0-2,.89,3.83,3.83,0,0,0-.89,2.23v6.52l2,.34v1.54h-6.4v-1.54l2-.34v-6.06a4.37,4.37,0,0,0-.69-2.72,2.41,2.41,0,0,0-2-.86,3.35,3.35,0,0,0-1.81.45,3,3,0,0,0-1.08,1.28v7.91l2,.34v1.54h-6.4Z"/><path class="cls-3" d="M275.74,480.8a3.2,3.2,0,0,0,2.11-.74,2.23,2.23,0,0,0,.91-1.81h2.17l0,.07a3.7,3.7,0,0,1-1.52,3,5.58,5.58,0,0,1-3.69,1.33,5.31,5.31,0,0,1-4.4-1.89,7.24,7.24,0,0,1-1.53-4.73v-.51a7.27,7.27,0,0,1,1.53-4.72,5.36,5.36,0,0,1,4.4-1.88,7.44,7.44,0,0,1,2.86.52,5.86,5.86,0,0,1,2.1,1.44l.11,2.94h-1.92l-.53-2.08a3.06,3.06,0,0,0-1.1-.67,4.25,4.25,0,0,0-1.52-.26,2.9,2.9,0,0,0-2.7,1.36,6.37,6.37,0,0,0-.82,3.35v.51a6.48,6.48,0,0,0,.81,3.38A2.9,2.9,0,0,0,275.74,480.8Z"/><path class="cls-3" d="M283.31,470.75V469.2h4.41v11.35l2,.34v1.54h-6.4v-1.54l2-.34V471.1Z"/><path class="cls-3" d="M311.7,480.41a8,8,0,0,1-2.32,1.55,9.32,9.32,0,0,1-4,.73,7.5,7.5,0,0,1-5.83-2.51,9.36,9.36,0,0,1-2.25-6.5v-.3a9.42,9.42,0,0,1,2.23-6.52,7.59,7.59,0,0,1,5.94-2.49A9,9,0,0,1,309,465a7.61,7.61,0,0,1,2.53,1.63v3.23h-1.69l-.58-2.46a5.31,5.31,0,0,0-1.45-.81,5.92,5.92,0,0,0-2-.31,5.35,5.35,0,0,0-4.45,2,8.07,8.07,0,0,0-1.55,5.12v.32a8.26,8.26,0,0,0,1.51,5.16,4.94,4.94,0,0,0,4.16,2,7.89,7.89,0,0,0,2.38-.3,7.14,7.14,0,0,0,1.5-.67v-3.91l-2.93-.12V474h5.34Z"/><path class="cls-3" d="M314.72,475.69a7.26,7.26,0,0,1,1.59-4.83,5.31,5.31,0,0,1,4.31-1.9,5.39,5.39,0,0,1,4.34,1.89,7.27,7.27,0,0,1,1.59,4.84V476A7.24,7.24,0,0,1,325,480.8a5.89,5.89,0,0,1-8.65,0,7.25,7.25,0,0,1-1.59-4.84Zm4.14-8.91H316.2v-2.45h2.66ZM317.13,476a6.27,6.27,0,0,0,.88,3.47,2.92,2.92,0,0,0,2.64,1.37,2.89,2.89,0,0,0,2.6-1.37,6.19,6.19,0,0,0,.89-3.47v-.27a6.22,6.22,0,0,0-.89-3.46,2.93,2.93,0,0,0-2.63-1.38,2.88,2.88,0,0,0-2.61,1.38,6.31,6.31,0,0,0-.88,3.46Zm7.48-9.18h-2.67v-2.45h2.67Z"/><path class="cls-3" d="M331.7,480.55h5.41l.19-2.05h2v3.93h-10.5v-1.69l7.15-9.63h-4.84l-.18,2h-2.06V469.2h10v1.64Z"/><path class="cls-3" d="M341.48,464.91v-1.55h4.41v17.19l2,.34v1.54h-6.4v-1.54l2-.34v-15.3Z"/><path class="cls-3" d="M355.74,482.69a5.58,5.58,0,0,1-4.39-1.84,6.94,6.94,0,0,1-1.64-4.78v-.54a6.75,6.75,0,0,1,1.69-4.7,5.16,5.16,0,0,1,4-1.87,5,5,0,0,1,4,1.61,6.45,6.45,0,0,1,1.37,4.3v1.51h-8.58l0,.06a5.28,5.28,0,0,0,1,3.14,3.1,3.1,0,0,0,2.6,1.22,6.14,6.14,0,0,0,2.15-.34,5.15,5.15,0,0,0,1.59-1l.95,1.56a5.91,5.91,0,0,1-1.88,1.16A7.58,7.58,0,0,1,355.74,482.69Zm-.36-11.84a2.61,2.61,0,0,0-2.07,1,4.85,4.85,0,0,0-1.05,2.56l0,.06h6.1v-.31a3.74,3.74,0,0,0-.75-2.38A2.73,2.73,0,0,0,355.38,470.85Z"/><path class="cls-3" d="M362.69,480.89l2-.34V471.1l-2-.35V469.2h4.16l.15,1.72a4.48,4.48,0,0,1,1.64-1.45A5.09,5.09,0,0,1,371,469a4.1,4.1,0,0,1,2.27.61,3.69,3.69,0,0,1,1.42,1.83,5,5,0,0,1,1.65-1.78,4.34,4.34,0,0,1,2.4-.66,4,4,0,0,1,3.2,1.38,6.37,6.37,0,0,1,1.18,4.18v6l2,.34v1.54h-6.41v-1.54l2-.34v-6.06a4.41,4.41,0,0,0-.67-2.77,2.44,2.44,0,0,0-2-.81,2.56,2.56,0,0,0-2,.89,3.82,3.82,0,0,0-.88,2.23v6.52l2,.34v1.54h-6.39v-1.54l2-.34v-6.06a4.37,4.37,0,0,0-.69-2.72,2.43,2.43,0,0,0-2-.86,3.3,3.3,0,0,0-1.81.45,3,3,0,0,0-1.09,1.28v7.91l2,.34v1.54h-6.39Z"/><ellipse class="cls-3" cx="372.32" cy="164.43" rx="120.43" ry="120.42"/><ellipse class="cls-5" cx="372.32" cy="164.43" rx="120.43" ry="120.42" transform="translate(-0.49 1.12) rotate(-0.17)"/><path class="cls-2" d="M293.87,130.31A7.33,7.33,0,0,1,301.6,138v2.44a7.31,7.31,0,0,1-7.73,7.68h-7.46v-1.54l2-.35v-14l-2-.34v-1.56h7.46Zm-3.06,1.9v14h3.06a4.93,4.93,0,0,0,3.9-1.62,6.16,6.16,0,0,0,1.42-4.17V138a6.13,6.13,0,0,0-1.42-4.15,4.93,4.93,0,0,0-3.9-1.62Z"/><path class="cls-2" d="M310,148.37a5.56,5.56,0,0,1-4.39-1.84,6.9,6.9,0,0,1-1.63-4.77v-.54a6.79,6.79,0,0,1,1.68-4.7,5.19,5.19,0,0,1,4-1.88,5,5,0,0,1,4,1.62,6.38,6.38,0,0,1,1.38,4.3v1.5h-8.59l0,.07a5.25,5.25,0,0,0,1,3.13,3.08,3.08,0,0,0,2.6,1.23,6.13,6.13,0,0,0,2.15-.35,4.84,4.84,0,0,0,1.6-1l.94,1.57a5.79,5.79,0,0,1-1.88,1.15A7.38,7.38,0,0,1,310,148.37Zm-.36-11.83a2.61,2.61,0,0,0-2.07,1,4.82,4.82,0,0,0-1,2.56l0,.06h6.11v-.32a3.74,3.74,0,0,0-.76-2.37A2.73,2.73,0,0,0,309.66,136.54Z"/><path class="cls-2" d="M317.09,146.58l2-.35v-9.45l-2-.34v-1.55h4.15l.17,2a4.73,4.73,0,0,1,1.66-1.64,4.48,4.48,0,0,1,2.27-.58,4.3,4.3,0,0,1,3.31,1.26,5.5,5.5,0,0,1,1.17,3.87v6.46l2,.35v1.54h-6.4v-1.54l2-.35v-6.42a3.59,3.59,0,0,0-.69-2.48,2.76,2.76,0,0,0-2.11-.73,3.45,3.45,0,0,0-1.84.5,3.57,3.57,0,0,0-1.27,1.37v7.76l2,.35v1.54h-6.4Z"/><path class="cls-2" d="M339.48,148.37a5.56,5.56,0,0,1-4.39-1.84,6.9,6.9,0,0,1-1.63-4.77v-.54a6.79,6.79,0,0,1,1.68-4.7,5.17,5.17,0,0,1,4-1.88,5,5,0,0,1,4,1.62,6.38,6.38,0,0,1,1.37,4.3v1.5H336l0,.07a5.25,5.25,0,0,0,1,3.13,3.08,3.08,0,0,0,2.6,1.23,6.13,6.13,0,0,0,2.15-.35,4.84,4.84,0,0,0,1.6-1l.94,1.57a5.9,5.9,0,0,1-1.88,1.15A7.38,7.38,0,0,1,339.48,148.37Zm-.36-11.83a2.61,2.61,0,0,0-2.07,1,4.82,4.82,0,0,0-1.05,2.56l0,.06h6.11v-.32a3.74,3.74,0,0,0-.76-2.37A2.73,2.73,0,0,0,339.12,136.54Z"/><path class="cls-2" d="M359.32,136.44l-1.19.18-5,13.53a6.68,6.68,0,0,1-1.44,2.32,3.33,3.33,0,0,1-2.53,1,4.51,4.51,0,0,1-.73-.07,4.44,4.44,0,0,1-.7-.13l.24-1.89.44,0,.64,0a1.47,1.47,0,0,0,1.25-.67,7.38,7.38,0,0,0,.83-1.53l.57-1.37-4.36-11.23-1.21-.19v-1.55h5.34v1.55l-1.49.24,2.29,6.53.44,1.69h.07l2.75-8.22-1.5-.24v-1.55h5.33Z"/><path class="cls-2" d="M361,146.58l2-.35v-9.45l-2-.34v-1.55h4.4v11.34l2,.35v1.54H361Zm4.4-15.08H363V129h2.41Z"/><path class="cls-2" d="M368.71,146.58l2-.35v-9.45l-2-.34v-1.55h4.16l.16,1.72a4.29,4.29,0,0,1,1.63-1.45,5,5,0,0,1,2.33-.52,4.18,4.18,0,0,1,2.27.61,3.72,3.72,0,0,1,1.42,1.84,5,5,0,0,1,1.65-1.79,4.37,4.37,0,0,1,2.4-.66,4,4,0,0,1,3.2,1.39,6.37,6.37,0,0,1,1.18,4.18v6l2,.35v1.54h-6.41v-1.54l2-.35v-6a4.39,4.39,0,0,0-.67-2.77,2.44,2.44,0,0,0-2-.81,2.52,2.52,0,0,0-2,.88,3.88,3.88,0,0,0-.89,2.24v6.51l2,.35v1.54h-6.39v-1.54l2-.35v-6a4.33,4.33,0,0,0-.69-2.72,2.43,2.43,0,0,0-2-.86,3.33,3.33,0,0,0-1.81.45,3,3,0,0,0-1.09,1.27v7.91l2,.35v1.54h-6.39Z"/><path class="cls-2" d="M392.85,146.58l2-.35v-9.45l-2-.34v-1.55h4.4v11.34l2,.35v1.54h-6.39Zm4.4-15.08h-2.41V129h2.41Z"/><path class="cls-2" d="M419.41,142a7.26,7.26,0,0,1-1.38,4.62,4.53,4.53,0,0,1-3.78,1.75,4.79,4.79,0,0,1-2.25-.49,4.19,4.19,0,0,1-1.59-1.46l-.22,1.7h-2.08V130.94l-2-.35V129h4.4v7.41a4.07,4.07,0,0,1,1.55-1.34,4.7,4.7,0,0,1,2.15-.47,4.39,4.39,0,0,1,3.82,2,8.81,8.81,0,0,1,1.37,5.15Zm-2.42-.25a7.37,7.37,0,0,0-.83-3.72,2.77,2.77,0,0,0-2.55-1.43,3.13,3.13,0,0,0-1.87.54,3.82,3.82,0,0,0-1.22,1.44v5.84a3.68,3.68,0,0,0,1.23,1.46,3.2,3.2,0,0,0,1.89.54,2.86,2.86,0,0,0,2.52-1.21A5.62,5.62,0,0,0,417,142Z"/><path class="cls-2" d="M421.8,146.58l2-.35v-9.45l-2-.34v-1.55h4.41v11.34l2,.35v1.54h-6.4Zm4.41-15.08H423.8V129h2.41Z"/><path class="cls-2" d="M429.71,130.59V129h4.4v17.19l2,.35v1.54h-6.39v-1.54l2-.35V130.94Z"/><path class="cls-2" d="M437.81,141.75a8.67,8.67,0,0,1,1.4-5.15,4.46,4.46,0,0,1,3.85-2,4.65,4.65,0,0,1,2.19.49,4.37,4.37,0,0,1,1.58,1.42l.21-1.66h2V148a5.55,5.55,0,0,1-1.44,4,5.41,5.41,0,0,1-4.07,1.47,9.29,9.29,0,0,1-2.06-.26,8.17,8.17,0,0,1-2-.72l.62-1.87a7.34,7.34,0,0,0,1.59.59,7.51,7.51,0,0,0,1.79.23,2.91,2.91,0,0,0,2.36-.9,3.91,3.91,0,0,0,.76-2.58v-1.26a4.39,4.39,0,0,1-1.56,1.26,4.86,4.86,0,0,1-2.08.42,4.59,4.59,0,0,1-3.82-1.76,7.2,7.2,0,0,1-1.4-4.61Zm2.41.25a5.47,5.47,0,0,0,.85,3.21,2.92,2.92,0,0,0,2.56,1.21,3.21,3.21,0,0,0,1.83-.5,3.8,3.8,0,0,0,1.21-1.4v-6.09a3.83,3.83,0,0,0-1.21-1.34,3.19,3.19,0,0,0-1.8-.49,2.81,2.81,0,0,0-2.58,1.44,7.2,7.2,0,0,0-.86,3.71Z"/><path class="cls-2" d="M452,146.58l2-.35v-9.45l-2-.34v-1.55h4.41v11.34l2,.35v1.54H452Zm4.41-15.08H454V129h2.41Z"/><path class="cls-2" d="M332.21,177.6l2-.34V162l-2-.34v-1.55h4.4v7.6a4.91,4.91,0,0,1,1.68-1.47,4.5,4.5,0,0,1,2.2-.53,4.28,4.28,0,0,1,3.3,1.27,5.62,5.62,0,0,1,1.17,3.91v6.41l2,.34v1.54h-6.4V177.6l2-.34v-6.43a3.53,3.53,0,0,0-.7-2.42,2.69,2.69,0,0,0-2.1-.78,3.46,3.46,0,0,0-1.8.47,4,4,0,0,0-1.34,1.27v7.89l2,.34v1.54h-6.39Z"/><path class="cls-2" d="M357.34,179.14c-.08-.35-.13-.68-.17-1s-.07-.57-.09-.86a5.86,5.86,0,0,1-1.74,1.49,4.51,4.51,0,0,1-2.23.59,4.42,4.42,0,0,1-3.15-1,3.72,3.72,0,0,1-1.07-2.84,3.27,3.27,0,0,1,1.52-2.9,7.34,7.34,0,0,1,4.18-1h2.48v-1.54a2.4,2.4,0,0,0-.74-1.84,2.9,2.9,0,0,0-2-.67,4.84,4.84,0,0,0-1.59.23,2.88,2.88,0,0,0-1.12.63l-.26,1.4h-1.86v-2.57a7.23,7.23,0,0,1,2.19-1.16,8.68,8.68,0,0,1,2.79-.43,5.51,5.51,0,0,1,3.64,1.15,4,4,0,0,1,1.4,3.29V177l0,.49,1,.13v1.54Zm-3.88-1.76a4.31,4.31,0,0,0,2.19-.57,3.57,3.57,0,0,0,1.42-1.38v-2.18H354.5a3.62,3.62,0,0,0-2.34.69,2,2,0,0,0-.86,1.66,1.68,1.68,0,0,0,.53,1.33A2.5,2.5,0,0,0,353.46,177.38Z"/><path class="cls-2" d="M362.17,161.62v-1.55h4.4v17.19l2,.34v1.54h-6.39V177.6l2-.34V162Z"/><path class="cls-2" d="M370.38,177.6l2-.34v-9.45l-2-.34v-1.56h4.41v11.35l2,.34v1.54h-6.4Zm4.41-15.07h-2.41v-2.46h2.41Z"/><path class="cls-2" d="M378.26,177.6l2-.34v-9.45l-2-.34v-1.56h4.15l.17,2a4.85,4.85,0,0,1,1.65-1.63,4.41,4.41,0,0,1,2.27-.58,4.36,4.36,0,0,1,3.32,1.25,5.53,5.53,0,0,1,1.17,3.87v6.47l2,.34v1.54h-6.39V177.6l2-.34v-6.42a3.59,3.59,0,0,0-.69-2.48,2.76,2.76,0,0,0-2.11-.73,3.34,3.34,0,0,0-1.84.5,3.68,3.68,0,0,0-1.28,1.37v7.76l2,.34v1.54h-6.4Z"/><path class="cls-2" d="M400.65,179.4a5.59,5.59,0,0,1-4.4-1.84,7,7,0,0,1-1.63-4.77v-.54a6.79,6.79,0,0,1,1.68-4.7,5.19,5.19,0,0,1,4-1.88,5.05,5.05,0,0,1,4.05,1.61,6.46,6.46,0,0,1,1.37,4.31v1.5h-8.58l0,.06a5.22,5.22,0,0,0,1,3.14,3.06,3.06,0,0,0,2.6,1.23,6.13,6.13,0,0,0,2.15-.35,4.9,4.9,0,0,0,1.59-1l.94,1.57a5.73,5.73,0,0,1-1.87,1.15A7.61,7.61,0,0,1,400.65,179.4Zm-.37-11.83a2.61,2.61,0,0,0-2.06,1,4.82,4.82,0,0,0-1.05,2.56l0,.06h6.1v-.32a3.66,3.66,0,0,0-.76-2.37A2.67,2.67,0,0,0,400.28,167.57Z"/><path class="cls-2" d="M302.26,208.59a4.22,4.22,0,0,1-1.58,1.37,4.86,4.86,0,0,1-2.18.47,4.53,4.53,0,0,1-3.78-1.76,7.29,7.29,0,0,1-1.36-4.61v-.26a8.84,8.84,0,0,1,1.36-5.15,4.39,4.39,0,0,1,3.81-2,4.7,4.7,0,0,1,2.07.43,4.41,4.41,0,0,1,1.54,1.25V193l-2-.34V191.1h4.41v17.19l2,.34v1.54h-4.08Zm-6.49-4.53a5.58,5.58,0,0,0,.82,3.2,2.83,2.83,0,0,0,2.53,1.21,3.18,3.18,0,0,0,1.81-.49,3.65,3.65,0,0,0,1.21-1.38v-6.14a3.85,3.85,0,0,0-1.21-1.32,3.26,3.26,0,0,0-1.79-.49,2.75,2.75,0,0,0-2.55,1.43,7.43,7.43,0,0,0-.82,3.72Z"/><path class="cls-2" d="M308.39,203.43A7.28,7.28,0,0,1,310,198.6a5.31,5.31,0,0,1,4.31-1.9,5.39,5.39,0,0,1,4.34,1.89,7.29,7.29,0,0,1,1.59,4.84v.27a7.26,7.26,0,0,1-1.59,4.85,5.9,5.9,0,0,1-8.65,0,7.25,7.25,0,0,1-1.59-4.84Zm4.14-8.91h-2.66v-2.45h2.66Zm-1.74,9.18a6.31,6.31,0,0,0,.89,3.48,2.94,2.94,0,0,0,2.64,1.37,2.91,2.91,0,0,0,2.6-1.37,6.23,6.23,0,0,0,.89-3.48v-.27a6.25,6.25,0,0,0-.89-3.46,2.93,2.93,0,0,0-2.63-1.38,2.88,2.88,0,0,0-2.61,1.38,6.33,6.33,0,0,0-.89,3.46Zm7.49-9.18h-2.67v-2.45h2.67Z"/><path class="cls-2" d="M322.07,208.63l2-.34v-9.45l-2-.35v-1.55h4.14l.18,2a4.85,4.85,0,0,1,1.65-1.63,4.41,4.41,0,0,1,2.27-.58,4.32,4.32,0,0,1,3.32,1.25,5.53,5.53,0,0,1,1.17,3.87v6.47l2,.34v1.54H330.4v-1.54l2-.34v-6.42a3.57,3.57,0,0,0-.69-2.48,2.76,2.76,0,0,0-2.11-.74,3.43,3.43,0,0,0-1.84.5,3.83,3.83,0,0,0-1.28,1.37v7.77l2,.34v1.54h-6.39Z"/><path class="cls-2" d="M348,208.22a4.57,4.57,0,0,1-1.61,1.63,4.36,4.36,0,0,1-2.27.58,4.23,4.23,0,0,1-3.36-1.38,6.41,6.41,0,0,1-1.21-4.31v-5.9l-1.52-.35v-1.55H342v7.83a4.9,4.9,0,0,0,.62,2.91,2.3,2.3,0,0,0,1.94.79,4,4,0,0,0,2.13-.52,3.25,3.25,0,0,0,1.26-1.47v-7.64l-1.77-.35v-1.55h4.18v11.35l1.52.34v1.54h-3.68Zm-5.16-13.69h-2.67v-2.44h2.67Zm5.74,0h-2.66v-2.44h2.66Z"/><path class="cls-2" d="M363.88,201.1h-1.81l-.39-1.59a3.29,3.29,0,0,0-1.11-.67,4.42,4.42,0,0,0-1.51-.25,2.83,2.83,0,0,0-1.91.56,1.79,1.79,0,0,0-.62,1.36,1.51,1.51,0,0,0,.55,1.24,5.65,5.65,0,0,0,2.24.8,9.62,9.62,0,0,1,3.73,1.47,2.94,2.94,0,0,1,1.22,2.47,3.41,3.41,0,0,1-1.42,2.85,6,6,0,0,1-3.73,1.09,9.76,9.76,0,0,1-2.7-.35,7.16,7.16,0,0,1-2.14-1v-3h1.81l.45,1.77a2.4,2.4,0,0,0,1.13.55,6,6,0,0,0,1.46.18,3.43,3.43,0,0,0,2-.52,1.6,1.6,0,0,0,.73-1.37,1.66,1.66,0,0,0-.6-1.31,5.74,5.74,0,0,0-2.3-.89,9.74,9.74,0,0,1-3.63-1.43,2.89,2.89,0,0,1-1.22-2.44,3.48,3.48,0,0,1,1.37-2.76,5.48,5.48,0,0,1,3.58-1.13,8.71,8.71,0,0,1,2.7.39,5.56,5.56,0,0,1,2,1.09Zm-3.94,9.17-.15.64a2.47,2.47,0,0,1,1.33.63,2,2,0,0,1,.52,1.48,2.19,2.19,0,0,1-1,1.87,4.67,4.67,0,0,1-2.77.7l-.08-1.33a2.89,2.89,0,0,0,1.41-.3,1,1,0,0,0,.53-.9.85.85,0,0,0-.44-.82,4.11,4.11,0,0,0-1.5-.32l.39-1.65Z"/><path class="cls-2" d="M370.73,193.75v3.19h2.5v1.79h-2.5v8a1.78,1.78,0,0,0,.38,1.31,1.41,1.41,0,0,0,1,.38,5,5,0,0,0,.72-.06,6,6,0,0,0,.66-.11l.33,1.65a3.32,3.32,0,0,1-1,.36,6.58,6.58,0,0,1-1.32.14,3.1,3.1,0,0,1-2.33-.89,3.84,3.84,0,0,1-.87-2.78v-8h-2.09v-1.79h2.09v-3.19Z"/><path class="cls-2" d="M385.16,208.22a4.5,4.5,0,0,1-1.61,1.63,4.36,4.36,0,0,1-2.27.58,4.23,4.23,0,0,1-3.36-1.38,6.41,6.41,0,0,1-1.21-4.31v-5.9l-1.52-.35v-1.55h3.93v7.83a4.9,4.9,0,0,0,.62,2.91,2.31,2.31,0,0,0,1.94.79,4,4,0,0,0,2.13-.52,3.25,3.25,0,0,0,1.26-1.47v-7.64l-1.77-.35v-1.55h4.18v11.35l1.52.34v1.54h-3.68ZM380,194.53h-2.67v-2.44H380Zm5.74,0h-2.66v-2.44h2.66Z"/><path class="cls-2" d="M390.9,198.49v-1.55h4.15l.23,1.92a4.62,4.62,0,0,1,1.39-1.59,3.24,3.24,0,0,1,1.89-.57,3.86,3.86,0,0,1,.58,0l.46.09-.32,2.24-1.37-.07a2.72,2.72,0,0,0-1.6.44,2.88,2.88,0,0,0-1,1.26v7.59l2,.34v1.54h-6.4v-1.54l2-.34v-9.45Z"/><path class="cls-2" d="M400.78,208.63l2-.34v-9.45l-2-.35v-1.55h4.16l.16,1.73a4.27,4.27,0,0,1,1.64-1.46,5,5,0,0,1,2.32-.51,4.08,4.08,0,0,1,2.27.61,3.75,3.75,0,0,1,1.43,1.83,4.8,4.8,0,0,1,1.65-1.78,4.31,4.31,0,0,1,2.39-.66,4,4,0,0,1,3.21,1.39,6.33,6.33,0,0,1,1.17,4.17v6l2,.34v1.54h-6.4v-1.54l2-.34v-6a4.38,4.38,0,0,0-.67-2.77,2.43,2.43,0,0,0-2-.82,2.54,2.54,0,0,0-2,.89,3.92,3.92,0,0,0-.89,2.23v6.52l2,.34v1.54h-6.4v-1.54l2-.34v-6a4.33,4.33,0,0,0-.7-2.72,2.39,2.39,0,0,0-2-.87,3.28,3.28,0,0,0-1.82.46,2.87,2.87,0,0,0-1.08,1.27v7.91l2,.34v1.54h-6.4Z"/><path class="cls-2" d="M430.84,210.43a5.55,5.55,0,0,1-4.39-1.84,6.94,6.94,0,0,1-1.64-4.78v-.53a6.77,6.77,0,0,1,1.69-4.71,5.16,5.16,0,0,1,4-1.87,5,5,0,0,1,4,1.61,6.46,6.46,0,0,1,1.37,4.31v1.5h-8.58l0,.06a5.28,5.28,0,0,0,1,3.14,3.08,3.08,0,0,0,2.6,1.23,6.13,6.13,0,0,0,2.15-.35,5,5,0,0,0,1.59-1l.95,1.56a5.91,5.91,0,0,1-1.88,1.16A7.61,7.61,0,0,1,430.84,210.43Zm-.36-11.84a2.61,2.61,0,0,0-2.07,1,4.85,4.85,0,0,0-1.05,2.56l0,.07h6.1v-.32a3.69,3.69,0,0,0-.75-2.37A2.7,2.7,0,0,0,430.48,198.59Z"/><path class="cls-2" d="M437.93,192.65V191.1h4.41v11.05h1.54l2.82-3.5-1.21-.16v-1.55H451v1.55l-1.61.32L445.93,203l4.25,5.37,1.5.29v1.54h-5.49v-1.54l1.23-.16-3.5-4.4h-1.58v4.22l2,.34v1.54h-6.4v-1.54l2-.34V193Z"/><ellipse class="cls-2" cx="134" cy="201.58" rx="108.16" ry="108.16"/><path class="cls-3" d="M83.37,166.74H81.55l-.45-2.54a4.41,4.41,0,0,0-1.47-.77,6.55,6.55,0,0,0-2.13-.31,4.58,4.58,0,0,0-2.94.82,2.56,2.56,0,0,0-1,2.12,2.36,2.36,0,0,0,1,1.94A10.14,10.14,0,0,0,78,169.36a9.62,9.62,0,0,1,4.27,2,4.44,4.44,0,0,1,1.46,3.37,4.15,4.15,0,0,1-1.75,3.46,7.53,7.53,0,0,1-4.6,1.3,9.32,9.32,0,0,1-3.65-.67,7.37,7.37,0,0,1-2.6-1.76V173.8H72.9l.47,2.55a5.57,5.57,0,0,0,1.66.94,6.43,6.43,0,0,0,2.31.37,4.8,4.8,0,0,0,2.88-.77,2.44,2.44,0,0,0,1.06-2.09,2.62,2.62,0,0,0-.92-2.05,7.74,7.74,0,0,0-3.24-1.39,10.62,10.62,0,0,1-4.41-2,4.08,4.08,0,0,1-1.59-3.29,4.23,4.23,0,0,1,1.77-3.47,7.23,7.23,0,0,1,4.61-1.39,8.74,8.74,0,0,1,3.41.64,7.76,7.76,0,0,1,2.46,1.56Z"/><path class="cls-3" d="M86,172.55a7.29,7.29,0,0,1,1.59-4.84,5.88,5.88,0,0,1,8.66,0,7.27,7.27,0,0,1,1.59,4.84v.27a7.24,7.24,0,0,1-1.59,4.84,5.34,5.34,0,0,1-4.31,1.88,5.41,5.41,0,0,1-4.35-1.88A7.27,7.27,0,0,1,86,172.82Zm2.41.27a6.27,6.27,0,0,0,.89,3.47,2.92,2.92,0,0,0,2.64,1.37,2.89,2.89,0,0,0,2.6-1.37,6.27,6.27,0,0,0,.89-3.47v-.27a6.28,6.28,0,0,0-.89-3.46,3.19,3.19,0,0,0-5.25,0,6.37,6.37,0,0,0-.88,3.46Z"/><path class="cls-3" d="M110.13,170.21h-1.81l-.39-1.58a3.39,3.39,0,0,0-1.11-.67,4.2,4.2,0,0,0-1.51-.25,2.81,2.81,0,0,0-1.91.56,1.79,1.79,0,0,0-.62,1.36,1.49,1.49,0,0,0,.55,1.23,5.78,5.78,0,0,0,2.24.81,9.79,9.79,0,0,1,3.73,1.46,3,3,0,0,1,1.22,2.48,3.43,3.43,0,0,1-1.43,2.85,6,6,0,0,1-3.72,1.08,9.78,9.78,0,0,1-2.7-.34,7.41,7.41,0,0,1-2.14-1v-3h1.81l.45,1.77a2.49,2.49,0,0,0,1.13.55,6.48,6.48,0,0,0,1.46.17,3.36,3.36,0,0,0,2-.52,1.58,1.58,0,0,0,.73-1.36,1.63,1.63,0,0,0-.61-1.31,5.62,5.62,0,0,0-2.29-.89,9.74,9.74,0,0,1-3.63-1.43,2.88,2.88,0,0,1-1.22-2.45,3.48,3.48,0,0,1,1.37-2.75,5.43,5.43,0,0,1,3.58-1.14,8.71,8.71,0,0,1,2.7.39,5.72,5.72,0,0,1,2,1.09Z"/><path class="cls-3" d="M125.34,167.61l-1.19.18-5,13.53a6.85,6.85,0,0,1-1.45,2.32,3.33,3.33,0,0,1-2.53,1,4.51,4.51,0,0,1-.73-.07,7,7,0,0,1-.7-.12l.25-1.9.43,0,.64,0a1.48,1.48,0,0,0,1.25-.66,7.74,7.74,0,0,0,.83-1.54l.58-1.37-4.37-11.22-1.21-.2v-1.55h5.34v1.55l-1.49.24,2.29,6.53.44,1.69h.07l2.75-8.22-1.5-.24v-1.55h5.33Z"/><path class="cls-3" d="M126.81,172.55a7.29,7.29,0,0,1,1.59-4.84,5.87,5.87,0,0,1,8.65,0,7.27,7.27,0,0,1,1.59,4.84v.27a7.23,7.23,0,0,1-1.58,4.84,5.93,5.93,0,0,1-8.66,0,7.27,7.27,0,0,1-1.59-4.84Zm2.41.27a6.27,6.27,0,0,0,.88,3.47,2.92,2.92,0,0,0,2.64,1.37,2.89,2.89,0,0,0,2.6-1.37,6.19,6.19,0,0,0,.9-3.47v-.27a6.2,6.2,0,0,0-.9-3.46,2.93,2.93,0,0,0-2.63-1.38,2.89,2.89,0,0,0-2.61,1.38,6.28,6.28,0,0,0-.88,3.46Z"/><path class="cls-3" d="M140.86,172.92a8.67,8.67,0,0,1,1.39-5.15,4.47,4.47,0,0,1,3.85-2,4.72,4.72,0,0,1,2.19.49,4.29,4.29,0,0,1,1.58,1.42l.22-1.66h2v13.06a5.57,5.57,0,0,1-1.43,4,5.41,5.41,0,0,1-4.07,1.47,9.3,9.3,0,0,1-2.07-.26,8.5,8.5,0,0,1-2-.72l.63-1.87a7.34,7.34,0,0,0,1.59.59,7.43,7.43,0,0,0,1.78.23,2.91,2.91,0,0,0,2.37-.9,4,4,0,0,0,.75-2.58v-1.26a4.36,4.36,0,0,1-1.55,1.26,4.92,4.92,0,0,1-2.08.42,4.61,4.61,0,0,1-3.83-1.76,7.19,7.19,0,0,1-1.39-4.61Zm2.41.25a5.54,5.54,0,0,0,.84,3.21,2.93,2.93,0,0,0,2.57,1.21,3.19,3.19,0,0,0,1.82-.5,3.71,3.71,0,0,0,1.21-1.4V169.6a3.74,3.74,0,0,0-1.21-1.34,3.19,3.19,0,0,0-1.8-.49,2.81,2.81,0,0,0-2.58,1.44,7.2,7.2,0,0,0-.85,3.71Z"/><path class="cls-3" d="M155,167.61v-1.55h4.14l.24,1.92a4.5,4.5,0,0,1,1.38-1.59,3.2,3.2,0,0,1,1.89-.58,3.9,3.9,0,0,1,.58.05,1.85,1.85,0,0,1,.46.09l-.31,2.23-1.37-.07a2.78,2.78,0,0,0-1.61.45,2.92,2.92,0,0,0-1,1.25v7.59l2,.35v1.54H155v-1.54l2-.35V168Z"/><path class="cls-3" d="M174,179.29c-.07-.36-.13-.68-.17-1s-.07-.57-.09-.85A5.71,5.71,0,0,1,172,179a5,5,0,0,1-5.37-.41,3.72,3.72,0,0,1-1.08-2.85,3.3,3.3,0,0,1,1.52-2.9,7.45,7.45,0,0,1,4.18-1h2.48v-1.54a2.37,2.37,0,0,0-.73-1.84,2.87,2.87,0,0,0-2-.68,5.12,5.12,0,0,0-1.59.23,3.11,3.11,0,0,0-1.12.64L168,170h-1.86V167.4a7.33,7.33,0,0,1,2.19-1.15,8.68,8.68,0,0,1,2.79-.44,5.6,5.6,0,0,1,3.65,1.15,4,4,0,0,1,1.39,3.29v6.37c0,.17,0,.34,0,.5a3.91,3.91,0,0,0,0,.49l1,.14v1.54Zm-3.88-1.76a4.22,4.22,0,0,0,2.19-.58,3.5,3.5,0,0,0,1.42-1.38v-2.18h-2.57a3.66,3.66,0,0,0-2.34.69,2.07,2.07,0,0,0-.86,1.66,1.65,1.65,0,0,0,.54,1.33A2.48,2.48,0,0,0,170.13,177.53Z"/><path class="cls-3" d="M178.69,177.75l2-.35V168l-2-.34v-1.55h4.16l.16,1.72a4.24,4.24,0,0,1,1.64-1.45,4.93,4.93,0,0,1,2.32-.52,4.16,4.16,0,0,1,2.27.61,3.73,3.73,0,0,1,1.43,1.84,4.83,4.83,0,0,1,1.65-1.79,4.31,4.31,0,0,1,2.39-.66,4,4,0,0,1,3.21,1.39,6.37,6.37,0,0,1,1.17,4.18v6l2,.35v1.54h-6.4v-1.54l2-.35v-6.05a4.46,4.46,0,0,0-.67-2.77,2.46,2.46,0,0,0-2-.81,2.51,2.51,0,0,0-2,.89,3.83,3.83,0,0,0-.89,2.23v6.51l2,.35v1.54h-6.4v-1.54l2-.35v-6.05a4.35,4.35,0,0,0-.69-2.72,2.41,2.41,0,0,0-2-.86,3.35,3.35,0,0,0-1.81.45,2.93,2.93,0,0,0-1.08,1.27v7.91l2,.35v1.54h-6.4Z"/><path class="cls-3" d="M88.19,210.57a5.59,5.59,0,0,1-4.4-1.84A7,7,0,0,1,82.16,204v-.54a6.79,6.79,0,0,1,1.68-4.7,5.19,5.19,0,0,1,4-1.88,5,5,0,0,1,4,1.61,6.43,6.43,0,0,1,1.38,4.31v1.5H84.66l0,.06a5.19,5.19,0,0,0,1,3.14,3.06,3.06,0,0,0,2.6,1.23,6.17,6.17,0,0,0,2.15-.35,4.9,4.9,0,0,0,1.59-1l.94,1.57A5.84,5.84,0,0,1,91,210.1,7.41,7.41,0,0,1,88.19,210.57Zm-.37-11.83a2.61,2.61,0,0,0-2.06,1,4.82,4.82,0,0,0-1.05,2.56l0,.06h6.1v-.32a3.68,3.68,0,0,0-.76-2.37A2.67,2.67,0,0,0,87.82,198.74Z"/><path class="cls-3" d="M105.74,201.24h-1.81l-.39-1.59a3.37,3.37,0,0,0-1.11-.66,4.2,4.2,0,0,0-1.51-.25,2.76,2.76,0,0,0-1.91.56,1.78,1.78,0,0,0-.62,1.36,1.49,1.49,0,0,0,.55,1.23,5.78,5.78,0,0,0,2.24.81,9.63,9.63,0,0,1,3.73,1.46,2.94,2.94,0,0,1,1.22,2.47,3.41,3.41,0,0,1-1.43,2.85,5.94,5.94,0,0,1-3.72,1.09,9.4,9.4,0,0,1-2.7-.35,6.92,6.92,0,0,1-2.14-1v-3h1.81l.45,1.78a2.6,2.6,0,0,0,1.13.55,6.48,6.48,0,0,0,1.46.17,3.36,3.36,0,0,0,2-.52,1.59,1.59,0,0,0,.73-1.36,1.63,1.63,0,0,0-.61-1.31,5.62,5.62,0,0,0-2.29-.89,9.66,9.66,0,0,1-3.63-1.44A2.88,2.88,0,0,1,96,200.73,3.46,3.46,0,0,1,97.34,198a5.43,5.43,0,0,1,3.58-1.14,8.71,8.71,0,0,1,2.7.39,5.72,5.72,0,0,1,2,1.09Zm-3.94,9.17-.15.64a2.42,2.42,0,0,1,1.32.64,1.93,1.93,0,0,1,.53,1.47,2.2,2.2,0,0,1-1,1.88,4.69,4.69,0,0,1-2.76.69l-.09-1.33a2.91,2.91,0,0,0,1.42-.3,1,1,0,0,0,.53-.9.86.86,0,0,0-.44-.82,4.41,4.41,0,0,0-1.51-.32l.4-1.65Z"/><path class="cls-3" d="M108.05,192.79v-1.55h4.4v17.19l2,.35v1.54h-6.39v-1.54l2-.35V193.14Z"/><path class="cls-3" d="M116.27,208.78l2-.35V199l-2-.34v-1.55h4.4v11.34l2,.35v1.54h-6.39Zm4.4-15.08h-2.41v-2.46h2.41Z"/><path class="cls-3" d="M124.51,203.94a8.66,8.66,0,0,1,1.39-5.14,4.47,4.47,0,0,1,3.85-2,4.6,4.6,0,0,1,2.19.49,4.29,4.29,0,0,1,1.58,1.42l.22-1.66h2v13a5.59,5.59,0,0,1-1.43,4.05,5.41,5.41,0,0,1-4.07,1.47,9.3,9.3,0,0,1-2.07-.26,8.25,8.25,0,0,1-1.95-.72l.62-1.87a7.34,7.34,0,0,0,1.59.59,7.5,7.5,0,0,0,1.78.23,2.89,2.89,0,0,0,2.37-.91,3.93,3.93,0,0,0,.75-2.58v-1.26a4.16,4.16,0,0,1-1.55,1.26,4.75,4.75,0,0,1-2.08.43,4.61,4.61,0,0,1-3.83-1.76,7.19,7.19,0,0,1-1.39-4.61Zm9.59-12.49,0,.07a2.82,2.82,0,0,1-.94,2.31,4.41,4.41,0,0,1-5.34,0,2.73,2.73,0,0,1-.93-2.31l0-.07h1.83a1.92,1.92,0,0,0,.43,1.3,2,2,0,0,0,2.63,0,1.92,1.92,0,0,0,.43-1.3Zm-7.18,12.75a5.54,5.54,0,0,0,.84,3.21,2.93,2.93,0,0,0,2.57,1.21,3.19,3.19,0,0,0,1.82-.5,3.79,3.79,0,0,0,1.21-1.4v-6.09a3.74,3.74,0,0,0-1.21-1.34,3.19,3.19,0,0,0-1.8-.49,2.81,2.81,0,0,0-2.58,1.44,7.19,7.19,0,0,0-.85,3.7Z"/><path class="cls-3" d="M138.67,208.78l2-.35V199l-2-.34v-1.55h4.4v11.34l2,.35v1.54h-6.39Zm4.4-15.08h-2.41v-2.46h2.41Z"/><path class="cls-3" d="M146.54,208.78l2-.35V199l-2-.34v-1.55h4.15l.17,2a4.79,4.79,0,0,1,1.66-1.63,4.38,4.38,0,0,1,2.27-.58,4.33,4.33,0,0,1,3.31,1.25,5.53,5.53,0,0,1,1.17,3.87v6.47l2,.35v1.54h-6.4v-1.54l2-.35V202a3.58,3.58,0,0,0-.7-2.48,2.75,2.75,0,0,0-2.1-.73,3.38,3.38,0,0,0-1.85.5,3.57,3.57,0,0,0-1.27,1.37v7.76l2,.35v1.54h-6.4Z"/><path class="cls-3" d="M171.81,208.74a4.26,4.26,0,0,1-1.59,1.37,4.78,4.78,0,0,1-2.17.46,4.52,4.52,0,0,1-3.78-1.75,7.32,7.32,0,0,1-1.36-4.62v-.26a8.8,8.8,0,0,1,1.36-5.14,4.38,4.38,0,0,1,3.81-2,4.84,4.84,0,0,1,2.07.43,4.33,4.33,0,0,1,1.54,1.26v-5.39l-2-.35v-1.55h4.4v17.19l2,.35v1.54H172Zm-6.49-4.54a5.7,5.7,0,0,0,.81,3.21,2.87,2.87,0,0,0,2.54,1.21,3.26,3.26,0,0,0,1.81-.49,3.9,3.9,0,0,0,1.21-1.38v-6.14a3.68,3.68,0,0,0-1.21-1.32,3.18,3.18,0,0,0-1.79-.49,2.73,2.73,0,0,0-2.55,1.43,7.36,7.36,0,0,0-.82,3.71Z"/><path class="cls-3" d="M184,210.57a5.56,5.56,0,0,1-4.39-1.84,6.91,6.91,0,0,1-1.64-4.77v-.54a6.79,6.79,0,0,1,1.69-4.7,5.17,5.17,0,0,1,4-1.88,5,5,0,0,1,4,1.61,6.42,6.42,0,0,1,1.37,4.31v1.5h-8.58l0,.06a5.26,5.26,0,0,0,1,3.14,3.08,3.08,0,0,0,2.6,1.23,6.13,6.13,0,0,0,2.15-.35,5,5,0,0,0,1.6-1l.94,1.57a5.9,5.9,0,0,1-1.88,1.15A7.38,7.38,0,0,1,184,210.57Zm-.36-11.83a2.61,2.61,0,0,0-2.07,1,4.82,4.82,0,0,0-1.05,2.56l0,.06h6.1v-.32a3.73,3.73,0,0,0-.75-2.37A2.7,2.7,0,0,0,183.6,198.74Z"/><path class="cls-3" d="M79.29,239.77a4.14,4.14,0,0,1-1.59,1.36,4.78,4.78,0,0,1-2.17.47,4.53,4.53,0,0,1-3.78-1.76,7.27,7.27,0,0,1-1.36-4.61V235a8.84,8.84,0,0,1,1.36-5.15,4.39,4.39,0,0,1,3.81-1.95,4.7,4.7,0,0,1,2.07.43,4.33,4.33,0,0,1,1.54,1.26v-5.4l-2-.34v-1.55h4.4v17.19l2,.34v1.54H79.48Zm-6.5-4.54a5.64,5.64,0,0,0,.82,3.2,2.85,2.85,0,0,0,2.54,1.21,3.18,3.18,0,0,0,1.81-.49,3.73,3.73,0,0,0,1.21-1.38v-6.14A3.85,3.85,0,0,0,78,230.31a3.26,3.26,0,0,0-1.79-.49,2.75,2.75,0,0,0-2.55,1.43,7.42,7.42,0,0,0-.83,3.72Z"/><path class="cls-3" d="M94.87,239.39A4.52,4.52,0,0,1,93.26,241a4.45,4.45,0,0,1-2.27.57,4.23,4.23,0,0,1-3.36-1.38,6.41,6.41,0,0,1-1.21-4.31V230l-1.52-.34v-1.56h3.93v7.83a4.9,4.9,0,0,0,.62,2.91,2.31,2.31,0,0,0,1.94.79,4,4,0,0,0,2.13-.52,3.2,3.2,0,0,0,1.26-1.47V230L93,229.67v-1.56h4.18v11.35l1.52.34v1.54H95ZM89.71,225.7H87v-2.44h2.67Zm5.74,0H92.79v-2.44h2.66Z"/><path class="cls-3" d="M110.74,232.27h-1.81l-.39-1.59a3.19,3.19,0,0,0-1.11-.67,4.42,4.42,0,0,0-1.51-.25,2.78,2.78,0,0,0-1.91.57,1.76,1.76,0,0,0-.62,1.35,1.51,1.51,0,0,0,.55,1.24,5.78,5.78,0,0,0,2.24.81,9.48,9.48,0,0,1,3.73,1.46,2.94,2.94,0,0,1,1.22,2.47,3.4,3.4,0,0,1-1.42,2.85A6,6,0,0,1,106,241.6a9.76,9.76,0,0,1-2.7-.35,7.16,7.16,0,0,1-2.14-1v-3h1.81l.45,1.78a2.6,2.6,0,0,0,1.13.55,6.54,6.54,0,0,0,1.46.17,3.43,3.43,0,0,0,2-.52,1.6,1.6,0,0,0,.73-1.37,1.63,1.63,0,0,0-.6-1.3,5.72,5.72,0,0,0-2.3-.9,9.57,9.57,0,0,1-3.63-1.43,2.89,2.89,0,0,1-1.22-2.44,3.48,3.48,0,0,1,1.37-2.76,5.48,5.48,0,0,1,3.58-1.13,8.67,8.67,0,0,1,2.7.39,5.56,5.56,0,0,1,2,1.09Zm-3.94,9.17-.14.64a2.48,2.48,0,0,1,1.32.63,2,2,0,0,1,.52,1.48,2.19,2.19,0,0,1-1,1.87,4.67,4.67,0,0,1-2.77.7l-.08-1.33a2.89,2.89,0,0,0,1.41-.3,1,1,0,0,0,.53-.9.85.85,0,0,0-.44-.82,4.11,4.11,0,0,0-1.5-.32l.39-1.65Z"/><path class="cls-3" d="M122.85,239.39a4.6,4.6,0,0,1-1.61,1.64,4.45,4.45,0,0,1-2.27.57,4.22,4.22,0,0,1-3.36-1.38,6.41,6.41,0,0,1-1.21-4.31V230l-1.52-.34v-1.56h3.92v7.83a4.89,4.89,0,0,0,.63,2.91,2.3,2.3,0,0,0,1.94.79,4,4,0,0,0,2.13-.52,3.25,3.25,0,0,0,1.26-1.47V230l-1.77-.34v-1.56h4.18v11.35l1.52.34v1.54H123Zm-5.16-13.69H115v-2.44h2.67Zm5.74,0h-2.66v-2.44h2.66Z"/><path class="cls-3" d="M128.24,239.8l2-.34V230l-2-.34v-1.56h4.14l.17,2a5,5,0,0,1,1.66-1.63,4.41,4.41,0,0,1,2.27-.58,4.32,4.32,0,0,1,3.31,1.25A5.48,5.48,0,0,1,141,233v6.47l2,.34v1.54h-6.39V239.8l2-.34V233a3.57,3.57,0,0,0-.69-2.48,2.78,2.78,0,0,0-2.11-.74,3.35,3.35,0,0,0-1.84.51,3.6,3.6,0,0,0-1.28,1.37v7.76l2,.34v1.54h-6.39Z"/><path class="cls-3" d="M144.23,239.8l2-.34V230l-2-.34v-1.56h4.16l.16,1.73a4.27,4.27,0,0,1,1.64-1.46,5,5,0,0,1,2.32-.51,4.08,4.08,0,0,1,2.27.61,3.75,3.75,0,0,1,1.43,1.83,4.8,4.8,0,0,1,1.65-1.78,4.31,4.31,0,0,1,2.39-.66,4,4,0,0,1,3.21,1.39,6.33,6.33,0,0,1,1.17,4.17v6l2,.34v1.54h-6.4V239.8l2-.34v-6.05a4.44,4.44,0,0,0-.67-2.77,2.46,2.46,0,0,0-2-.82,2.54,2.54,0,0,0-2,.89,3.85,3.85,0,0,0-.89,2.23v6.52l2,.34v1.54h-6.4V239.8l2-.34v-6.05a4.33,4.33,0,0,0-.69-2.72,2.39,2.39,0,0,0-2-.87,3.35,3.35,0,0,0-1.81.46,2.87,2.87,0,0,0-1.08,1.27v7.91l2,.34v1.54h-6.4Z"/><path class="cls-3" d="M174.29,241.6a5.59,5.59,0,0,1-4.4-1.84,7,7,0,0,1-1.63-4.78v-.53a6.81,6.81,0,0,1,1.68-4.71,5.18,5.18,0,0,1,4-1.87,5.05,5.05,0,0,1,4.05,1.61,6.46,6.46,0,0,1,1.37,4.31v1.5h-8.58l0,.06a5.28,5.28,0,0,0,1,3.14,3.06,3.06,0,0,0,2.6,1.23,6.13,6.13,0,0,0,2.15-.35,4.8,4.8,0,0,0,1.59-1L179,240a5.58,5.58,0,0,1-1.87,1.16A7.61,7.61,0,0,1,174.29,241.6Zm-.37-11.84a2.61,2.61,0,0,0-2.06,1,4.85,4.85,0,0,0-1.05,2.57l0,.06h6.1v-.32a3.64,3.64,0,0,0-.76-2.37A2.68,2.68,0,0,0,173.92,229.76Z"/><path class="cls-3" d="M181.38,223.82v-1.55h4.41v11h1.54l2.82-3.5-1.21-.15v-1.56h5.54v1.56l-1.61.31-3.49,4.16,4.24,5.37,1.51.29v1.54h-5.49V239.8l1.23-.16-3.51-4.4h-1.57v4.22l2,.34v1.54h-6.4V239.8l2-.34v-15.3Z"/></g></svg>