<svg xmlns="http://www.w3.org/2000/svg" viewBox="0 0 708.66 708.66"><defs><style>.cls-1{fill:#fff;}.cls-1,.cls-2{stroke:#7040a5;stroke-miterlimit:10;stroke-width:5px;}.cls-2{fill:none;}.cls-3{fill:#7040a5;}</style></defs><g id="Layer_2" data-name="Layer 2"><line class="cls-1" x1="454.85" y1="534.37" x2="103.55" y2="343.3"/><line class="cls-2" x1="235.54" y1="175.81" x2="606.55" y2="343.3"/><polyline class="cls-1" points="427.76 493.44 316.65 247.2 526.54 220.27 529.27 308.41 586.77 334.37 588.63 378.9 427.76 493.44"/><line class="cls-2" x1="322.31" y1="148.74" x2="148.33" y2="422.84"/><polyline class="cls-1" points="387.29 568.39 545.44 278.8 322.31 148.74 168.15 391.62 387.29 568.39"/><circle class="cls-1" cx="439.08" cy="204.85" r="129.53"/><circle class="cls-1" cx="541.66" cy="447.56" r="122.77"/><polygon class="cls-1" points="235.54 177.64 113.28 348.6 235.54 415.09 388.27 420.04 248.03 190.78 235.54 177.64"/><circle class="cls-1" cx="159.63" cy="251.73" r="107.36"/><circle class="cls-1" cx="269.14" cy="493.44" r="139.9"/><path class="cls-3" d="M86.81,226A8.73,8.73,0,0,1,96,235.14V238a8.72,8.72,0,0,1-9.21,9.16h-8.9v-1.84l2.38-.41V228.23l-2.38-.41V226h8.9Zm-3.65,2.26V245h3.65A5.86,5.86,0,0,0,91.45,243a7.28,7.28,0,0,0,1.7-5v-2.93a7.23,7.23,0,0,0-1.7-4.94,5.83,5.83,0,0,0-4.64-1.94Z"/><path class="cls-3" d="M106.07,247.5a6.64,6.64,0,0,1-5.24-2.19,8.27,8.27,0,0,1-2-5.7V239a8.11,8.11,0,0,1,2-5.6,6.16,6.16,0,0,1,4.75-2.24,6,6,0,0,1,4.82,1.92,7.69,7.69,0,0,1,1.64,5.14V240H101.85l0,.07a6.23,6.23,0,0,0,1.15,3.74,3.68,3.68,0,0,0,3.11,1.47,7.19,7.19,0,0,0,2.56-.42,6,6,0,0,0,1.9-1.14l1.12,1.86a6.68,6.68,0,0,1-2.24,1.38A8.78,8.78,0,0,1,106.07,247.5Zm-.44-14.11a3.08,3.08,0,0,0-2.46,1.22,5.81,5.81,0,0,0-1.26,3l0,.07h7.28v-.38a4.34,4.34,0,0,0-.91-2.82A3.2,3.2,0,0,0,105.63,233.39Z"/><path class="cls-3" d="M114.5,245.36l2.37-.41V233.68l-2.37-.41v-1.85h4.94l.2,2.35a5.76,5.76,0,0,1,2-2,5.27,5.27,0,0,1,2.7-.69,5.16,5.16,0,0,1,4,1.49,6.55,6.55,0,0,1,1.41,4.62V245l2.37.41v1.84h-7.62v-1.84l2.37-.41V237.3a4.26,4.26,0,0,0-.82-3,3.29,3.29,0,0,0-2.52-.88,4,4,0,0,0-2.19.6,4.26,4.26,0,0,0-1.52,1.63V245l2.37.41v1.84H114.5Z"/><path class="cls-3" d="M141.19,247.5a6.67,6.67,0,0,1-5.24-2.19,8.26,8.26,0,0,1-1.94-5.7V239a8.06,8.06,0,0,1,2-5.6,6.16,6.16,0,0,1,4.75-2.24,6,6,0,0,1,4.82,1.92,7.69,7.69,0,0,1,1.64,5.14V240H137l0,.07a6.23,6.23,0,0,0,1.15,3.74,3.66,3.66,0,0,0,3.1,1.47,7.12,7.12,0,0,0,2.56-.42,6.06,6.06,0,0,0,1.91-1.14l1.12,1.86a6.68,6.68,0,0,1-2.24,1.38A8.83,8.83,0,0,1,141.19,247.5Zm-.43-14.11a3.09,3.09,0,0,0-2.47,1.22,5.72,5.72,0,0,0-1.25,3l0,.07h7.27v-.38a4.39,4.39,0,0,0-.9-2.82A3.22,3.22,0,0,0,140.76,233.39Z"/><path class="cls-3" d="M164.85,233.27l-1.42.22-6,16.13a8.14,8.14,0,0,1-1.72,2.77,4,4,0,0,1-3,1.18,6.76,6.76,0,0,1-.88-.08l-.83-.15.29-2.26.52,0,.76.05a1.75,1.75,0,0,0,1.49-.8,8.82,8.82,0,0,0,1-1.83l.69-1.63-5.21-13.39-1.44-.23v-1.85h6.37v1.85l-1.78.29,2.73,7.79.52,2H157l3.28-9.8-1.79-.29v-1.85h6.36Z"/><path class="cls-3" d="M166.8,245.36l2.38-.41V233.68l-2.38-.41v-1.85h5.25V245l2.38.41v1.84H166.8Zm5.25-18h-2.87v-2.93h2.87Z"/><path class="cls-3" d="M176,245.36l2.38-.41V233.68l-2.38-.41v-1.85h5l.19,2.06a5.21,5.21,0,0,1,2-1.74,6,6,0,0,1,2.77-.61,4.82,4.82,0,0,1,2.7.73,4.4,4.4,0,0,1,1.7,2.18,5.83,5.83,0,0,1,2-2.12,5.14,5.14,0,0,1,2.86-.79,4.76,4.76,0,0,1,3.82,1.65,7.6,7.6,0,0,1,1.4,5V245l2.37.41v1.84H195.1v-1.84l2.38-.41v-7.22a5.28,5.28,0,0,0-.8-3.3,2.91,2.91,0,0,0-2.38-1,3,3,0,0,0-2.41,1.06,4.58,4.58,0,0,0-1.06,2.66V245l2.38.41v1.84h-7.63v-1.84L188,245v-7.22a5.16,5.16,0,0,0-.83-3.24,2.86,2.86,0,0,0-2.38-1,3.93,3.93,0,0,0-2.16.54,3.59,3.59,0,0,0-1.3,1.52V245l2.38.41v1.84H176Z"/><path class="cls-3" d="M204.83,245.36l2.37-.41V233.68l-2.37-.41v-1.85h5.25V245l2.37.41v1.84h-7.62Zm5.25-18H207.2v-2.93h2.88Z"/><path class="cls-3" d="M214.22,245.36l2.38-.41V233.68l-2.38-.41v-1.85h4.94l.2,2.35a5.76,5.76,0,0,1,2-2,5.28,5.28,0,0,1,2.71-.69,5.18,5.18,0,0,1,3.95,1.49,6.6,6.6,0,0,1,1.4,4.62V245l2.37.41v1.84h-7.62v-1.84l2.37-.41V237.3a4.26,4.26,0,0,0-.82-3,3.28,3.28,0,0,0-2.51-.88,4.06,4.06,0,0,0-2.2.6,4.42,4.42,0,0,0-1.52,1.63V245l2.37.41v1.84h-7.62Z"/><path class="cls-3" d="M233.86,245.36l2.38-.41V233.68l-2.38-.41v-1.85h5.25V245l2.38.41v1.84h-7.63Zm5.25-18h-2.87v-2.93h2.87Z"/><path class="cls-3" d="M117.46,264.61v3.81h3v2.13h-3v9.58a2.12,2.12,0,0,0,.46,1.56,1.65,1.65,0,0,0,1.21.45,5.51,5.51,0,0,0,.86-.07c.31,0,.58-.09.79-.13l.4,2a3.89,3.89,0,0,1-1.2.44,7.7,7.7,0,0,1-1.58.16,3.73,3.73,0,0,1-2.78-1.05,4.62,4.62,0,0,1-1-3.32v-9.58h-2.49v-2.13h2.49v-3.81Z"/><path class="cls-3" d="M133.67,284.2c-.09-.43-.15-.82-.2-1.16s-.09-.68-.11-1a7,7,0,0,1-2.07,1.78,6,6,0,0,1-6.41-.5,4.4,4.4,0,0,1-1.28-3.39,3.91,3.91,0,0,1,1.81-3.46,8.78,8.78,0,0,1,5-1.22h3v-1.84a2.85,2.85,0,0,0-.87-2.19,3.47,3.47,0,0,0-2.44-.81,5.8,5.8,0,0,0-1.9.28,3.53,3.53,0,0,0-1.34.75l-.3,1.67h-2.22V270a8.49,8.49,0,0,1,2.61-1.37,10.18,10.18,0,0,1,3.32-.52,6.64,6.64,0,0,1,4.35,1.37,4.78,4.78,0,0,1,1.66,3.92V281c0,.2,0,.4,0,.6s0,.38,0,.58l1.16.16v1.84Zm-4.62-2.1a5.09,5.09,0,0,0,2.61-.69,4.2,4.2,0,0,0,1.69-1.65v-2.59h-3.06a4.37,4.37,0,0,0-2.79.81,2.46,2.46,0,0,0-1,2,2,2,0,0,0,.64,1.58A3,3,0,0,0,129.05,282.1Z"/><path class="cls-3" d="M151.9,273.38h-2.16l-.47-1.9a3.9,3.9,0,0,0-1.32-.79,5.07,5.07,0,0,0-1.8-.3,3.28,3.28,0,0,0-2.27.67,2.11,2.11,0,0,0-.75,1.62,1.8,1.8,0,0,0,.66,1.47,6.81,6.81,0,0,0,2.67,1,11.68,11.68,0,0,1,4.45,1.74,3.52,3.52,0,0,1,1.45,3,4.08,4.08,0,0,1-1.69,3.4,7.18,7.18,0,0,1-4.44,1.29,11.88,11.88,0,0,1-3.23-.41,8.58,8.58,0,0,1-2.55-1.21v-3.6h2.16l.53,2.12a2.94,2.94,0,0,0,1.35.65,7.29,7.29,0,0,0,1.75.21,4,4,0,0,0,2.39-.62,1.93,1.93,0,0,0,.87-1.63,2,2,0,0,0-.72-1.56,6.73,6.73,0,0,0-2.73-1.06,11.57,11.57,0,0,1-4.34-1.71,3.44,3.44,0,0,1-1.45-2.92,4.11,4.11,0,0,1,1.64-3.28,6.47,6.47,0,0,1,4.26-1.35,10.35,10.35,0,0,1,3.22.46,6.86,6.86,0,0,1,2.38,1.3Z"/><path class="cls-3" d="M165.34,284.2c-.09-.43-.15-.82-.2-1.16a8.8,8.8,0,0,1-.1-1A7.2,7.2,0,0,1,163,283.8a6,6,0,0,1-6.41-.5,4.4,4.4,0,0,1-1.28-3.39,3.91,3.91,0,0,1,1.81-3.46,8.78,8.78,0,0,1,5-1.22h3v-1.84a2.85,2.85,0,0,0-.87-2.19,3.47,3.47,0,0,0-2.44-.81,5.8,5.8,0,0,0-1.9.28,3.53,3.53,0,0,0-1.34.75l-.3,1.67H156V270a8.49,8.49,0,0,1,2.61-1.37,10.2,10.2,0,0,1,3.33-.52,6.63,6.63,0,0,1,4.34,1.37,4.78,4.78,0,0,1,1.66,3.92V281c0,.2,0,.4,0,.6s0,.38,0,.58l1.16.16v1.84Zm-4.62-2.1a5.09,5.09,0,0,0,2.61-.69,4.2,4.2,0,0,0,1.69-1.65v-2.59H162a4.37,4.37,0,0,0-2.79.81,2.46,2.46,0,0,0-1,2,2,2,0,0,0,.64,1.58A3,3,0,0,0,160.72,282.1Z"/><path class="cls-3" d="M171.5,270.27v-1.85h4.94l.28,2.29a5.4,5.4,0,0,1,1.65-1.9,3.9,3.9,0,0,1,2.25-.68,4.2,4.2,0,0,1,.7.05,3.13,3.13,0,0,1,.54.11l-.38,2.67-1.63-.09a3.31,3.31,0,0,0-1.91.53,3.55,3.55,0,0,0-1.2,1.5V282l2.38.41v1.84H171.5v-1.84l2.37-.41V270.68Z"/><path class="cls-3" d="M183.16,263.3v-1.85h5.25V282l2.38.41v1.84h-7.63v-1.84l2.38-.41V263.71Z"/><path class="cls-3" d="M203.25,284.2c-.08-.43-.15-.82-.2-1.16s-.08-.68-.1-1a7.2,7.2,0,0,1-2.08,1.78,6,6,0,0,1-6.41-.5,4.43,4.43,0,0,1-1.28-3.39,3.91,3.91,0,0,1,1.81-3.46,8.78,8.78,0,0,1,5-1.22h3v-1.84a2.85,2.85,0,0,0-.87-2.19,3.47,3.47,0,0,0-2.44-.81,5.8,5.8,0,0,0-1.9.28,3.48,3.48,0,0,0-1.33.75l-.31,1.67h-2.22V270a8.49,8.49,0,0,1,2.61-1.37,10.2,10.2,0,0,1,3.33-.52,6.62,6.62,0,0,1,4.34,1.37,4.79,4.79,0,0,1,1.67,3.92v8.2c0,.19,0,.38,0,.58l1.17.16v1.84Zm-4.62-2.1a5.09,5.09,0,0,0,2.61-.69,4.2,4.2,0,0,0,1.69-1.65v-2.59h-3.06a4.37,4.37,0,0,0-2.79.81,2.46,2.46,0,0,0-1,2,2,2,0,0,0,.64,1.58A3,3,0,0,0,198.63,282.1Z"/><path class="cls-3" d="M513.69,393.52a8.73,8.73,0,0,1,9.21,9.17v2.91a8.7,8.7,0,0,1-9.21,9.15h-8.9v-1.83l2.38-.41V395.78l-2.38-.41v-1.85h8.9ZM510,395.78v16.73h3.65a5.86,5.86,0,0,0,4.64-1.94,7.28,7.28,0,0,0,1.7-5v-2.93a7.26,7.26,0,0,0-1.7-4.95,5.86,5.86,0,0,0-4.64-1.94Z"/><path class="cls-3" d="M525.75,412.92l2.37-.41V401.24l-2.37-.41V399H531v13.53l2.37.41v1.83h-7.62Zm5.25-18h-2.88V392H531Z"/><path class="cls-3" d="M535.58,407.16a10.33,10.33,0,0,1,1.66-6.14,5.33,5.33,0,0,1,4.59-2.34,5.58,5.58,0,0,1,2.61.59,5.06,5.06,0,0,1,1.88,1.69l.26-2H549v15.57a6.61,6.61,0,0,1-1.7,4.82,6.48,6.48,0,0,1-4.86,1.76,10.73,10.73,0,0,1-2.46-.32,9.5,9.5,0,0,1-2.33-.85l.74-2.23a9,9,0,0,0,1.89.7,8.91,8.91,0,0,0,2.13.28,3.51,3.51,0,0,0,2.83-1.08,4.75,4.75,0,0,0,.89-3.08v-1.5a5,5,0,0,1-1.85,1.5,5.75,5.75,0,0,1-2.48.51,5.5,5.5,0,0,1-4.56-2.1,8.58,8.58,0,0,1-1.66-5.5ZM547,392.25l0,.09a3.4,3.4,0,0,1-1.13,2.76,5.32,5.32,0,0,1-6.37,0,3.33,3.33,0,0,1-1.11-2.76l0-.09h2.19a2.39,2.39,0,0,0,.5,1.56,2,2,0,0,0,1.58.6,1.92,1.92,0,0,0,1.56-.6,2.35,2.35,0,0,0,.52-1.56Zm-8.56,15.21a6.54,6.54,0,0,0,1,3.82,3.48,3.48,0,0,0,3.07,1.45,3.82,3.82,0,0,0,2.17-.59,4.56,4.56,0,0,0,1.44-1.67V403.2a4.43,4.43,0,0,0-1.44-1.59,3.74,3.74,0,0,0-2.15-.59,3.33,3.33,0,0,0-3.07,1.72,8.58,8.58,0,0,0-1,4.42Z"/><path class="cls-3" d="M559.66,415.06a6.67,6.67,0,0,1-5.24-2.19,8.28,8.28,0,0,1-1.94-5.7v-.64a8.09,8.09,0,0,1,2-5.61,6.19,6.19,0,0,1,4.75-2.24,6,6,0,0,1,4.82,1.93,7.65,7.65,0,0,1,1.64,5.13v1.8H555.45l0,.07a6.23,6.23,0,0,0,1.15,3.74,3.65,3.65,0,0,0,3.1,1.46,7.13,7.13,0,0,0,2.56-.41,5.9,5.9,0,0,0,1.91-1.15l1.12,1.87A7,7,0,0,1,563,414.5,9,9,0,0,1,559.66,415.06Zm-.43-14.12a3.12,3.12,0,0,0-2.47,1.22,5.72,5.72,0,0,0-1.25,3.06l0,.07h7.27v-.38a4.42,4.42,0,0,0-.9-2.83A3.22,3.22,0,0,0,559.23,400.94Z"/><path class="cls-3" d="M568.52,400.83V399h4.94l.27,2.29a5.53,5.53,0,0,1,1.66-1.9,3.84,3.84,0,0,1,2.25-.69,4.23,4.23,0,0,1,.7.06,4.91,4.91,0,0,1,.54.1l-.38,2.67-1.63-.08A3.23,3.23,0,0,0,575,402a3.44,3.44,0,0,0-1.2,1.49v9.06l2.38.41v1.83h-7.62v-1.83l2.37-.41V401.24Z"/><path class="cls-3" d="M487.65,437.83l-1.41.22-6,16.12a8,8,0,0,1-1.72,2.77,4,4,0,0,1-3,1.19,6.78,6.78,0,0,1-.87-.08c-.36-.06-.64-.11-.83-.16l.29-2.26.52,0,.76,0a1.76,1.76,0,0,0,1.49-.8,8.82,8.82,0,0,0,1-1.83l.68-1.63-5.2-13.39-1.44-.23V436h6.37v1.85l-1.78.29,2.73,7.79.52,2h.09l3.28-9.8-1.79-.29V436h6.35Z"/><path class="cls-3" d="M489.4,443.72a8.67,8.67,0,0,1,1.9-5.77,7,7,0,0,1,10.31,0,8.68,8.68,0,0,1,1.91,5.78V444a8.59,8.59,0,0,1-1.9,5.77,7,7,0,0,1-10.32,0,8.65,8.65,0,0,1-1.9-5.77Zm2.87.32a7.53,7.53,0,0,0,1.06,4.14,3.81,3.81,0,0,0,6.25,0,7.45,7.45,0,0,0,1.07-4.14v-.32a7.48,7.48,0,0,0-1.07-4.13,3.49,3.49,0,0,0-3.14-1.65,3.44,3.44,0,0,0-3.11,1.65,7.48,7.48,0,0,0-1.06,4.13Z"/><path class="cls-3" d="M505.46,430.86V429h5.25v20.5l2.37.41v1.83h-7.62v-1.83l2.37-.41V431.27Z"/><path class="cls-3" d="M522.34,449.81a3.89,3.89,0,0,0,2.52-.88,2.7,2.7,0,0,0,1.08-2.16h2.58l0,.08a4.43,4.43,0,0,1-1.81,3.63,6.68,6.68,0,0,1-4.4,1.58,6.35,6.35,0,0,1-5.25-2.25,8.6,8.6,0,0,1-1.82-5.64v-.61a8.66,8.66,0,0,1,1.82-5.62,6.38,6.38,0,0,1,5.25-2.26,8.78,8.78,0,0,1,3.41.63,6.93,6.93,0,0,1,2.5,1.72l.13,3.5h-2.29l-.63-2.48a3.83,3.83,0,0,0-1.31-.8,5.16,5.16,0,0,0-1.81-.31,3.48,3.48,0,0,0-3.23,1.63,7.71,7.71,0,0,0-1,4v.61a7.66,7.66,0,0,0,1,4A3.45,3.45,0,0,0,522.34,449.81Z"/><path class="cls-3" d="M542.64,449.42a5.29,5.29,0,0,1-1.92,1.95,5.21,5.21,0,0,1-2.7.69,5,5,0,0,1-4-1.65q-1.46-1.65-1.45-5.13v-7l-1.8-.41V436h4.68v9.33a5.84,5.84,0,0,0,.74,3.47,2.78,2.78,0,0,0,2.32,1,4.77,4.77,0,0,0,2.53-.62,4,4,0,0,0,1.51-1.76v-9.11l-2.12-.41V436h5v13.53l1.81.41v1.83h-4.39Z"/><path class="cls-3" d="M549.1,430.86V429h5.25v20.5l2.37.41v1.83H549.1v-1.83l2.38-.41V431.27Z"/><path class="cls-3" d="M569.19,451.75c-.09-.42-.15-.81-.2-1.15a8.8,8.8,0,0,1-.1-1,7,7,0,0,1-2.08,1.77,6,6,0,0,1-6.41-.49,4.43,4.43,0,0,1-1.28-3.39,3.94,3.94,0,0,1,1.81-3.47,8.86,8.86,0,0,1,5-1.21h3V441a2.87,2.87,0,0,0-.87-2.2,3.47,3.47,0,0,0-2.44-.81,6.08,6.08,0,0,0-1.9.28,3.68,3.68,0,0,0-1.34.76l-.3,1.66H559.8v-3.06a8.73,8.73,0,0,1,2.61-1.38,10.47,10.47,0,0,1,3.33-.52,6.58,6.58,0,0,1,4.34,1.38,4.78,4.78,0,0,1,1.66,3.92v7.59c0,.21,0,.41,0,.6s0,.39,0,.59l1.16.16v1.83Zm-4.62-2.1a5.18,5.18,0,0,0,2.61-.68,4.26,4.26,0,0,0,1.69-1.65v-2.6h-3.06a4.37,4.37,0,0,0-2.79.82,2.46,2.46,0,0,0-1,2,2,2,0,0,0,.64,1.59A3,3,0,0,0,564.57,449.65Z"/><path class="cls-3" d="M575.35,437.83V436h4.94l.28,2.29a5.4,5.4,0,0,1,1.65-1.9,3.84,3.84,0,0,1,2.25-.69,4.23,4.23,0,0,1,.7.06,4.91,4.91,0,0,1,.54.1l-.38,2.67-1.63-.08a3.23,3.23,0,0,0-1.91.53,3.44,3.44,0,0,0-1.2,1.49v9.06l2.38.41v1.83h-7.62v-1.83l2.37-.41V438.24Z"/><path class="cls-3" d="M587,430.86V429h5.25v20.5l2.38.41v1.83H587v-1.83l2.38-.41V431.27Z"/><path class="cls-3" d="M607.1,451.75c-.08-.42-.15-.81-.2-1.15s-.08-.68-.1-1a7,7,0,0,1-2.08,1.77,6,6,0,0,1-6.41-.49,4.43,4.43,0,0,1-1.28-3.39,3.94,3.94,0,0,1,1.81-3.47,8.86,8.86,0,0,1,5-1.21h3V441a2.87,2.87,0,0,0-.87-2.2,3.47,3.47,0,0,0-2.44-.81,6.08,6.08,0,0,0-1.9.28,3.63,3.63,0,0,0-1.33.76l-.31,1.66h-2.22v-3.06a8.73,8.73,0,0,1,2.61-1.38,10.47,10.47,0,0,1,3.33-.52,6.57,6.57,0,0,1,4.34,1.38,4.78,4.78,0,0,1,1.66,3.92v7.59c0,.21,0,.41,0,.6s0,.39,0,.59l1.16.16v1.83Zm-4.62-2.1a5.18,5.18,0,0,0,2.61-.68,4.26,4.26,0,0,0,1.69-1.65v-2.6h-3.06a4.37,4.37,0,0,0-2.79.82,2.46,2.46,0,0,0-1,2,2,2,0,0,0,.64,1.59A3,3,0,0,0,602.48,449.65Z"/><path class="cls-3" d="M496.45,493l2.37-.41V475.24l-2.37-.41V473h4.84l.26,1.92a5.23,5.23,0,0,1,1.92-1.65,5.7,5.7,0,0,1,2.61-.57,5.24,5.24,0,0,1,4.56,2.33,10.56,10.56,0,0,1,1.63,6.15v.3a8.71,8.71,0,0,1-1.64,5.51,5.41,5.41,0,0,1-4.5,2.09,6.19,6.19,0,0,1-2.56-.49,5,5,0,0,1-1.88-1.45v5.44l2.38.41v1.85h-7.62Zm12.93-11.81a8.38,8.38,0,0,0-1.05-4.42,3.42,3.42,0,0,0-3.12-1.72,3.82,3.82,0,0,0-2.1.55,4.24,4.24,0,0,0-1.42,1.52v7.68a3.75,3.75,0,0,0,3.55,2,3.54,3.54,0,0,0,3.09-1.48,6.56,6.56,0,0,0,1.05-3.87Z"/><path class="cls-3" d="M525.17,488.75c-.09-.42-.15-.81-.2-1.15s-.09-.68-.11-1a6.85,6.85,0,0,1-2.07,1.77,6,6,0,0,1-6.41-.49,4.43,4.43,0,0,1-1.28-3.39,3.94,3.94,0,0,1,1.81-3.47,8.86,8.86,0,0,1,5-1.21h3V478a2.87,2.87,0,0,0-.87-2.2,3.47,3.47,0,0,0-2.44-.81,6.08,6.08,0,0,0-1.9.28,3.68,3.68,0,0,0-1.34.76l-.3,1.66h-2.22v-3.06a8.73,8.73,0,0,1,2.61-1.38,10.47,10.47,0,0,1,3.33-.52,6.58,6.58,0,0,1,4.34,1.38,4.78,4.78,0,0,1,1.66,3.92v7.59c0,.21,0,.41,0,.6s0,.39,0,.59l1.16.16v1.83Zm-4.62-2.1a5.18,5.18,0,0,0,2.61-.68,4.26,4.26,0,0,0,1.69-1.65v-2.6h-3.06a4.37,4.37,0,0,0-2.79.82,2.46,2.46,0,0,0-1,2,2,2,0,0,0,.64,1.59A3,3,0,0,0,520.55,486.65Z"/><path class="cls-3" d="M546.1,474.83l-1.42.22-6,16.12a8,8,0,0,1-1.72,2.77,4,4,0,0,1-3,1.19,6.76,6.76,0,0,1-.88-.08c-.36-.06-.64-.11-.83-.16l.29-2.26.52,0,.76,0a1.75,1.75,0,0,0,1.49-.8,8.82,8.82,0,0,0,1-1.83l.69-1.63-5.21-13.39-1.44-.23V473h6.37v1.85l-1.78.29,2.73,7.79.52,2h.09l3.28-9.8-1.79-.29V473h6.36Z"/><path class="cls-3" d="M547.66,467.86V466h5.24v20.5l2.38.41v1.83h-7.62v-1.83l2.37-.41V468.27Z"/><path class="cls-3" d="M567.75,488.75c-.09-.42-.16-.81-.21-1.15s-.08-.68-.1-1a6.89,6.89,0,0,1-2.08,1.77,5.94,5.94,0,0,1-6.4-.49,4.43,4.43,0,0,1-1.29-3.39,4,4,0,0,1,1.82-3.47,8.86,8.86,0,0,1,5-1.21h3V478a2.84,2.84,0,0,0-.88-2.2,3.43,3.43,0,0,0-2.43-.81,6.15,6.15,0,0,0-1.91.28,3.72,3.72,0,0,0-1.33.76l-.31,1.66h-2.21v-3.06A8.73,8.73,0,0,1,561,473.2a10.45,10.45,0,0,1,3.32-.52,6.59,6.59,0,0,1,4.35,1.38A4.78,4.78,0,0,1,570.3,478v7.59c0,.21,0,.41,0,.6a5.83,5.83,0,0,0,0,.59l1.17.16v1.83Zm-4.62-2.1a5.18,5.18,0,0,0,2.61-.68,4.33,4.33,0,0,0,1.69-1.65v-2.6h-3.06a4.42,4.42,0,0,0-2.8.82,2.47,2.47,0,0,0-1,2,2,2,0,0,0,.64,1.59A2.94,2.94,0,0,0,563.13,486.65Z"/><path class="cls-3" d="M586,477.93h-2.16l-.47-1.89a3.92,3.92,0,0,0-1.32-.8,5.07,5.07,0,0,0-1.8-.3,3.28,3.28,0,0,0-2.27.68,2.07,2.07,0,0,0-.75,1.61,1.8,1.8,0,0,0,.66,1.48,6.75,6.75,0,0,0,2.67,1,11.56,11.56,0,0,1,4.44,1.74,3.5,3.5,0,0,1,1.46,2.95,4.06,4.06,0,0,1-1.7,3.4,7.08,7.08,0,0,1-4.44,1.3,11.42,11.42,0,0,1-3.22-.42,8.32,8.32,0,0,1-2.55-1.2l0-3.6h2.16l.54,2.11a3.05,3.05,0,0,0,1.35.66,7.26,7.26,0,0,0,1.74.2,4,4,0,0,0,2.4-.62,1.9,1.9,0,0,0,.87-1.62,2,2,0,0,0-.72-1.56,6.92,6.92,0,0,0-2.74-1.07,11.43,11.43,0,0,1-4.33-1.7,3.45,3.45,0,0,1-1.46-2.92A4.13,4.13,0,0,1,576,474a6.52,6.52,0,0,1,4.27-1.36,10.34,10.34,0,0,1,3.22.47,6.55,6.55,0,0,1,2.38,1.3Zm-4.7,10.94-.17.76a2.87,2.87,0,0,1,1.57.76,2.29,2.29,0,0,1,.63,1.76,2.61,2.61,0,0,1-1.16,2.23,5.5,5.5,0,0,1-3.29.83l-.1-1.59a3.5,3.5,0,0,0,1.68-.35,1.18,1.18,0,0,0,.64-1.08,1,1,0,0,0-.53-1,5,5,0,0,0-1.79-.38l.46-2Z"/><path class="cls-3" d="M206.39,446.55l2.37-.41V429.41l-2.37-.41v-1.85H214V429l-2.37.41v7.13h2.2l5.93-7.33-1.59-.21v-1.85h6.74V429l-2,.37-6.49,8.05,7.09,8.76,2,.37v1.83h-7v-1.83l1.62-.21-6.06-7.54h-2.47v7.34l2.37.41v1.83h-7.62Z"/><path class="cls-3" d="M238.11,448.38c-.08-.42-.15-.81-.2-1.15s-.08-.68-.1-1a6.89,6.89,0,0,1-2.08,1.77,6,6,0,0,1-6.41-.49A4.46,4.46,0,0,1,228,444.1a3.93,3.93,0,0,1,1.82-3.47,8.83,8.83,0,0,1,5-1.21h3v-1.84a2.87,2.87,0,0,0-.87-2.2,3.46,3.46,0,0,0-2.44-.81,6.13,6.13,0,0,0-1.9.28,3.63,3.63,0,0,0-1.33.76l-.31,1.66h-2.22v-3.06a8.67,8.67,0,0,1,2.62-1.38,10.41,10.41,0,0,1,3.32-.52,6.55,6.55,0,0,1,4.34,1.38,4.79,4.79,0,0,1,1.67,3.92v8.19c0,.2,0,.39,0,.59l1.17.16v1.83Zm-4.62-2.1a5.06,5.06,0,0,0,2.61-.68,4.26,4.26,0,0,0,1.69-1.65v-2.59h-3.06a4.41,4.41,0,0,0-2.79.81,2.46,2.46,0,0,0-1,2,2,2,0,0,0,.64,1.59A3,3,0,0,0,233.49,446.28Z"/><path class="cls-3" d="M249.28,428.8v3.81h3v2.13h-3v9.58a2.2,2.2,0,0,0,.46,1.56,1.69,1.69,0,0,0,1.22.45,5.39,5.39,0,0,0,.85-.07,7.56,7.56,0,0,0,.8-.14l.39,2a3.51,3.51,0,0,1-1.19.43,7.72,7.72,0,0,1-1.58.17,3.7,3.7,0,0,1-2.78-1.06,4.58,4.58,0,0,1-1-3.31v-9.58h-2.49v-2.13h2.49V428.8Z"/><path class="cls-3" d="M255.22,434.46v-1.85h5.25v13.53l2.38.41v1.83h-7.63v-1.83l2.38-.41V434.87Z"/><path class="cls-3" d="M264.61,427.49v-1.85h5.25v20.5l2.38.41v1.83h-7.63v-1.83l2.38-.41V427.9Z"/><path class="cls-3" d="M274.42,434.46v-1.85h5.25v13.53l2.38.41v1.83h-7.63v-1.83l2.38-.41V434.87Z"/><path class="cls-3" d="M283.64,446.55l2.38-.41V434.87l-2.38-.41v-1.85h5l.19,2.05a5.08,5.08,0,0,1,1.95-1.73,6,6,0,0,1,2.77-.62,4.91,4.91,0,0,1,2.7.73,4.41,4.41,0,0,1,1.7,2.19,6,6,0,0,1,2-2.13,5.22,5.22,0,0,1,2.86-.79,4.75,4.75,0,0,1,3.82,1.66,7.57,7.57,0,0,1,1.4,5v7.19l2.38.41v1.83H302.7v-1.83l2.37-.41v-7.22a5.18,5.18,0,0,0-.8-3.3,2.9,2.9,0,0,0-2.38-1,3,3,0,0,0-2.41,1.06,4.58,4.58,0,0,0-1.06,2.66v7.77l2.38.41v1.83h-7.63v-1.83l2.38-.41v-7.22a5.14,5.14,0,0,0-.82-3.24,2.88,2.88,0,0,0-2.39-1,3.92,3.92,0,0,0-2.15.54,3.43,3.43,0,0,0-1.3,1.51v9.44l2.37.41v1.83h-7.62Z"/><path class="cls-3" d="M319.36,446.44a3.87,3.87,0,0,0,2.52-.88A2.7,2.7,0,0,0,323,443.4h2.58l0,.08a4.43,4.43,0,0,1-1.81,3.63,6.68,6.68,0,0,1-4.4,1.58,6.35,6.35,0,0,1-5.25-2.25,8.66,8.66,0,0,1-1.82-5.64v-.61a8.66,8.66,0,0,1,1.82-5.62,6.38,6.38,0,0,1,5.25-2.26,8.78,8.78,0,0,1,3.41.63,6.93,6.93,0,0,1,2.5,1.72l.13,3.5h-2.29l-.63-2.48a3.93,3.93,0,0,0-1.31-.8,5.12,5.12,0,0,0-1.81-.31,3.48,3.48,0,0,0-3.23,1.63,7.71,7.71,0,0,0-1,4v.61a7.64,7.64,0,0,0,1,4A3.45,3.45,0,0,0,319.36,446.44Z"/><path class="cls-3" d="M328.39,434.46v-1.85h5.25v13.53l2.37.41v1.83h-7.62v-1.83l2.38-.41V434.87Z"/><path class="cls-3" d="M235.94,483a9.63,9.63,0,0,1-2.76,1.84,11.09,11.09,0,0,1-4.74.87,8.94,8.94,0,0,1-6.95-3,11.17,11.17,0,0,1-2.69-7.76v-.35a11.24,11.24,0,0,1,2.66-7.77,9.06,9.06,0,0,1,7.08-3,10.83,10.83,0,0,1,4.15.73,9.1,9.1,0,0,1,3,1.95v3.85h-2l-.7-2.93a6,6,0,0,0-1.73-1,6.74,6.74,0,0,0-2.43-.38,6.36,6.36,0,0,0-5.3,2.35,9.56,9.56,0,0,0-1.86,6.1v.38a9.81,9.81,0,0,0,1.81,6.16,5.91,5.91,0,0,0,5,2.34,9.35,9.35,0,0,0,2.84-.36,7.68,7.68,0,0,0,1.78-.8v-4.65l-3.48-.15v-2.11h6.36Z"/><path class="cls-3" d="M239.54,477.35a8.71,8.71,0,0,1,1.89-5.77,7,7,0,0,1,10.32,0,8.68,8.68,0,0,1,1.9,5.78v.32a8.64,8.64,0,0,1-1.89,5.77,7.05,7.05,0,0,1-10.33,0,8.7,8.7,0,0,1-1.89-5.77Zm4.94-10.63H241.3V463.8h3.18Zm-2.07,10.95a7.44,7.44,0,0,0,1.06,4.14,3.8,3.8,0,0,0,6.24,0,7.45,7.45,0,0,0,1.07-4.14v-.32a7.48,7.48,0,0,0-1.07-4.13,3.78,3.78,0,0,0-6.25,0,7.56,7.56,0,0,0-1.05,4.13Zm8.92-10.95h-3.18V463.8h3.18Z"/><path class="cls-3" d="M259.79,483.14h6.45l.23-2.44h2.43v4.68H256.38v-2l8.53-11.49h-5.78l-.21,2.42h-2.45v-4.69h11.95v1.95Z"/><path class="cls-3" d="M271.45,464.49v-1.85h5.25v20.5l2.38.41v1.83h-7.63v-1.83l2.38-.41V464.9Z"/><path class="cls-3" d="M288.46,485.69a6.68,6.68,0,0,1-5.25-2.19,8.33,8.33,0,0,1-1.94-5.7v-.64a8.13,8.13,0,0,1,2-5.61,6.19,6.19,0,0,1,4.75-2.24,6,6,0,0,1,4.82,1.93,7.65,7.65,0,0,1,1.64,5.13v1.8H284.24l0,.07a6.25,6.25,0,0,0,1.15,3.74,3.66,3.66,0,0,0,3.11,1.46A7.2,7.2,0,0,0,291,483a6,6,0,0,0,1.9-1.15l1.12,1.87a6.85,6.85,0,0,1-2.24,1.38A9,9,0,0,1,288.46,485.69ZM288,471.57a3.11,3.11,0,0,0-2.46,1.22,5.73,5.73,0,0,0-1.26,3.06l0,.07h7.28v-.38a4.37,4.37,0,0,0-.91-2.83A3.2,3.2,0,0,0,288,471.57Z"/><path class="cls-3" d="M296.74,483.55l2.38-.41V471.87l-2.38-.41v-1.85h5l.19,2.05a5.08,5.08,0,0,1,1.95-1.73,6,6,0,0,1,2.77-.62,5,5,0,0,1,2.71.73,4.47,4.47,0,0,1,1.7,2.19,5.92,5.92,0,0,1,2-2.13,5.22,5.22,0,0,1,2.86-.79,4.75,4.75,0,0,1,3.82,1.66,7.51,7.51,0,0,1,1.4,5v7.19l2.38.41v1.83H315.8v-1.83l2.37-.41v-7.22a5.18,5.18,0,0,0-.8-3.3,2.89,2.89,0,0,0-2.37-1,3,3,0,0,0-2.42,1.06,4.58,4.58,0,0,0-1.06,2.66v7.77l2.38.41v1.83h-7.63v-1.83l2.38-.41v-7.22a5.14,5.14,0,0,0-.82-3.24,2.88,2.88,0,0,0-2.39-1,3.92,3.92,0,0,0-2.15.54,3.43,3.43,0,0,0-1.3,1.51v9.44l2.37.41v1.83h-7.62Z"/><path class="cls-3" d="M214.74,511.56h-2.16l-.46-1.89a3.92,3.92,0,0,0-1.32-.8,5.07,5.07,0,0,0-1.8-.3,3.32,3.32,0,0,0-2.28.68,2.09,2.09,0,0,0-.74,1.61,1.83,1.83,0,0,0,.65,1.48,6.81,6.81,0,0,0,2.67,1,11.62,11.62,0,0,1,4.45,1.74,3.53,3.53,0,0,1,1.46,3,4.08,4.08,0,0,1-1.7,3.4,7.08,7.08,0,0,1-4.44,1.3,11.37,11.37,0,0,1-3.22-.42,8.27,8.27,0,0,1-2.56-1.2v-3.6h2.16l.54,2.11a3.05,3.05,0,0,0,1.35.66,7.26,7.26,0,0,0,1.74.2,4,4,0,0,0,2.4-.62,1.9,1.9,0,0,0,.87-1.62,2,2,0,0,0-.73-1.56,6.86,6.86,0,0,0-2.73-1.07,11.29,11.29,0,0,1-4.33-1.7,3.45,3.45,0,0,1-1.46-2.92,4.13,4.13,0,0,1,1.64-3.28,6.51,6.51,0,0,1,4.27-1.36,10.38,10.38,0,0,1,3.22.47,6.88,6.88,0,0,1,2.38,1.3Z"/><path class="cls-3" d="M217.91,514.35a8.71,8.71,0,0,1,1.89-5.77,7,7,0,0,1,10.32,0,8.68,8.68,0,0,1,1.9,5.78v.32a8.59,8.59,0,0,1-1.9,5.77,7,7,0,0,1-10.32,0,8.7,8.7,0,0,1-1.89-5.77Zm2.87.32a7.44,7.44,0,0,0,1.06,4.14,3.8,3.8,0,0,0,6.24,0,7.45,7.45,0,0,0,1.07-4.14v-.32a7.48,7.48,0,0,0-1.07-4.13,3.78,3.78,0,0,0-6.25,0,7.56,7.56,0,0,0-1.05,4.13Z"/><path class="cls-3" d="M234.64,508.46v-1.85h5l.27,2.29a5.53,5.53,0,0,1,1.66-1.9,3.84,3.84,0,0,1,2.25-.69,4,4,0,0,1,.69.06,3.08,3.08,0,0,1,.55.11l-.38,2.66-1.63-.08a3.26,3.26,0,0,0-1.91.53,3.44,3.44,0,0,0-1.2,1.49v9.06l2.38.41v1.83h-7.63v-1.83l2.38-.41V508.87Z"/><path class="cls-3" d="M258.28,520.05a5.15,5.15,0,0,1-4.62,2.64,5,5,0,0,1-4-1.65c-1-1.1-1.45-2.81-1.45-5.13v-7l-1.8-.41v-1.85h4.68v9.33a5.92,5.92,0,0,0,.74,3.47,2.78,2.78,0,0,0,2.32,1,4.77,4.77,0,0,0,2.53-.62,3.89,3.89,0,0,0,1.51-1.76v-9.11l-2.12-.41v-1.85h5v13.53l1.81.41v1.83h-4.39Z"/><path class="cls-3" d="M264.74,501.49v-1.85H270v20.5l2.38.41v1.83h-7.63v-1.83l2.38-.41V501.9Z"/><path class="cls-3" d="M284.83,522.38c-.08-.42-.15-.81-.2-1.15s-.08-.68-.1-1a7,7,0,0,1-2.08,1.77,6,6,0,0,1-6.41-.49,4.46,4.46,0,0,1-1.28-3.39,3.94,3.94,0,0,1,1.81-3.47,8.86,8.86,0,0,1,5-1.21h3v-1.84a2.87,2.87,0,0,0-.87-2.2,3.47,3.47,0,0,0-2.44-.81,6.08,6.08,0,0,0-1.9.28,3.63,3.63,0,0,0-1.33.76l-.31,1.66h-2.22v-3.06a8.73,8.73,0,0,1,2.61-1.38,10.47,10.47,0,0,1,3.33-.52,6.57,6.57,0,0,1,4.34,1.38,4.79,4.79,0,0,1,1.67,3.92v8.19c0,.2,0,.39,0,.59l1.17.16v1.83Zm-4.62-2.1a5.09,5.09,0,0,0,2.61-.68,4.26,4.26,0,0,0,1.69-1.65v-2.59h-3.06a4.37,4.37,0,0,0-2.79.81,2.46,2.46,0,0,0-1,2,2,2,0,0,0,.64,1.59A3,3,0,0,0,280.21,520.28Z"/><path class="cls-3" d="M291,508.46v-1.85h4.94l.28,2.29a5.5,5.5,0,0,1,1.65-1.9,3.84,3.84,0,0,1,2.25-.69,4.23,4.23,0,0,1,.7.06,2.93,2.93,0,0,1,.54.11l-.37,2.66-1.64-.08a3.26,3.26,0,0,0-1.91.53,3.42,3.42,0,0,0-1.19,1.49v9.06l2.37.41v1.83H291v-1.83l2.37-.41V508.87Z"/><path class="cls-3" d="M303.35,508.46v-1.85h5.25v13.53l2.38.41v1.83h-7.63v-1.83l2.38-.41V508.87Z"/><path class="cls-3" d="M312.71,520.55l2.38-.41V508.87l-2.38-.41v-1.85h5l.2,2.34a5.73,5.73,0,0,1,2-1.94,5.27,5.27,0,0,1,2.7-.7,5.13,5.13,0,0,1,3.95,1.5,6.52,6.52,0,0,1,1.4,4.61v7.72l2.38.41v1.83h-7.63v-1.83l2.38-.41v-7.66a4.28,4.28,0,0,0-.82-3,3.32,3.32,0,0,0-2.52-.87,4,4,0,0,0-2.19.6,4.29,4.29,0,0,0-1.53,1.63v9.26l2.38.41v1.83h-7.63Z"/><path class="cls-3" d="M332.37,508.46v-1.85h5.25v13.53l2.38.41v1.83h-7.63v-1.83l2.38-.41V508.87Z"/><path class="cls-3" d="M222.4,557.55l2.37-.41V538.9l-2.37-.41v-1.85h5.25v9.07a5.79,5.79,0,0,1,2-1.77,5.52,5.52,0,0,1,2.63-.63,5.08,5.08,0,0,1,3.93,1.52,6.67,6.67,0,0,1,1.41,4.67v7.64l2.37.41v1.83h-7.62v-1.83l2.37-.41v-7.67a4.23,4.23,0,0,0-.84-2.89,3.19,3.19,0,0,0-2.5-.93,4.28,4.28,0,0,0-2.15.56,4.62,4.62,0,0,0-1.59,1.52v9.41l2.37.41v1.83H222.4Z"/><path class="cls-3" d="M252.36,559.38c-.09-.42-.15-.81-.2-1.15a8.8,8.8,0,0,1-.1-1A7,7,0,0,1,250,559a6,6,0,0,1-6.41-.49,4.43,4.43,0,0,1-1.28-3.39,3.94,3.94,0,0,1,1.81-3.47,8.86,8.86,0,0,1,5-1.21h3v-1.84a2.87,2.87,0,0,0-.87-2.2,3.47,3.47,0,0,0-2.44-.81,6.08,6.08,0,0,0-1.9.28,3.68,3.68,0,0,0-1.34.76l-.3,1.66H243v-3.06a8.73,8.73,0,0,1,2.61-1.38,10.47,10.47,0,0,1,3.33-.52,6.58,6.58,0,0,1,4.34,1.38,4.78,4.78,0,0,1,1.66,3.92v7.59c0,.21,0,.41,0,.6s0,.39,0,.59l1.16.16v1.83Zm-4.62-2.1a5.09,5.09,0,0,0,2.61-.68A4.26,4.26,0,0,0,252,555v-2.59H249a4.37,4.37,0,0,0-2.79.81,2.46,2.46,0,0,0-1,2,2,2,0,0,0,.64,1.59A3,3,0,0,0,247.74,557.28Z"/><path class="cls-3" d="M262.26,557.14h6.45l.23-2.44h2.44v4.68H258.85v-2l8.53-11.49h-5.77l-.22,2.42h-2.45v-4.69h11.95v1.95Z"/><path class="cls-3" d="M274.34,545.46v-1.85h5.24v13.53l2.38.41v1.83h-7.62v-1.83l2.37-.41V545.87Z"/><path class="cls-3" d="M284.12,545.46v-1.85h4.94l.28,2.29A5.61,5.61,0,0,1,291,544a3.85,3.85,0,0,1,2.26-.69,4.2,4.2,0,0,1,.69.06,3.28,3.28,0,0,1,.55.11l-.38,2.66-1.64-.08a3.28,3.28,0,0,0-1.91.53,3.42,3.42,0,0,0-1.19,1.49v9.06l2.38.41v1.83h-7.63v-1.83l2.38-.41V545.87Z"/><path class="cls-3" d="M295.78,538.49v-1.85H301v20.5l2.38.41v1.83h-7.63v-1.83l2.38-.41V538.9Z"/><path class="cls-3" d="M315.88,559.38c-.09-.42-.16-.81-.21-1.15s-.08-.68-.1-1a6.89,6.89,0,0,1-2.08,1.77,5.33,5.33,0,0,1-2.66.71,5.27,5.27,0,0,1-3.74-1.2,4.43,4.43,0,0,1-1.29-3.39,4,4,0,0,1,1.82-3.47,8.86,8.86,0,0,1,5-1.21h3v-1.84a2.84,2.84,0,0,0-.88-2.2,3.43,3.43,0,0,0-2.43-.81,6.15,6.15,0,0,0-1.91.28,3.63,3.63,0,0,0-1.33.76l-.31,1.66h-2.21v-3.06a8.73,8.73,0,0,1,2.61-1.38,10.45,10.45,0,0,1,3.32-.52,6.59,6.59,0,0,1,4.35,1.38,4.78,4.78,0,0,1,1.66,3.92v7.59c0,.21,0,.41,0,.6a5.83,5.83,0,0,0,0,.59l1.17.16v1.83Zm-4.62-2.1a5.09,5.09,0,0,0,2.61-.68,4.33,4.33,0,0,0,1.69-1.65v-2.59H312.5a4.42,4.42,0,0,0-2.8.81,2.47,2.47,0,0,0-1,2,2,2,0,0,0,.64,1.59A2.94,2.94,0,0,0,311.26,557.28Z"/><path class="cls-3" d="M389.29,149h-2.18l-.53-3a5.33,5.33,0,0,0-1.75-.92,8.15,8.15,0,0,0-2.54-.36,5.55,5.55,0,0,0-3.52,1,3.08,3.08,0,0,0-1.22,2.53,2.77,2.77,0,0,0,1.25,2.31,11.83,11.83,0,0,0,4,1.62,11.47,11.47,0,0,1,5.09,2.45,5.24,5.24,0,0,1,1.75,4,4.9,4.9,0,0,1-2.1,4.13,8.92,8.92,0,0,1-5.47,1.56,11.21,11.21,0,0,1-4.35-.8,8.83,8.83,0,0,1-3.1-2.1v-3.95h2.16l.55,3a7,7,0,0,0,2,1.13,7.84,7.84,0,0,0,2.76.43,5.72,5.72,0,0,0,3.43-.91,3,3,0,0,0,1.26-2.5,3.15,3.15,0,0,0-1.09-2.44,9.18,9.18,0,0,0-3.86-1.66,12.9,12.9,0,0,1-5.27-2.36,4.88,4.88,0,0,1-1.89-3.92,5.06,5.06,0,0,1,2.11-4.15,8.68,8.68,0,0,1,5.5-1.65,10.45,10.45,0,0,1,4.06.76,9.16,9.16,0,0,1,2.94,1.86Z"/><path class="cls-3" d="M392.38,155.88a8.71,8.71,0,0,1,1.89-5.77,7,7,0,0,1,10.32,0,8.68,8.68,0,0,1,1.9,5.78v.32A8.64,8.64,0,0,1,404.6,162a7.05,7.05,0,0,1-10.33,0,8.7,8.7,0,0,1-1.89-5.77Zm2.87.32a7.44,7.44,0,0,0,1.06,4.14,3.81,3.81,0,0,0,6.25,0,7.44,7.44,0,0,0,1.06-4.14v-.32a7.48,7.48,0,0,0-1.06-4.13,3.5,3.5,0,0,0-3.14-1.65,3.46,3.46,0,0,0-3.12,1.65,7.56,7.56,0,0,0-1.05,4.13Z"/><path class="cls-3" d="M408.69,162.08l2.38-.41V150.4l-2.38-.41v-1.85h4.95l.2,2.34a5.82,5.82,0,0,1,2-1.94,5.27,5.27,0,0,1,2.7-.7,5.13,5.13,0,0,1,4,1.5,6.52,6.52,0,0,1,1.4,4.61v7.72l2.38.41v1.83h-7.63v-1.83l2.38-.41V154a4.28,4.28,0,0,0-.82-3,3.32,3.32,0,0,0-2.52-.87,4,4,0,0,0-2.19.6,4.29,4.29,0,0,0-1.53,1.63v9.26l2.38.41v1.83h-7.63Z"/><path class="cls-3" d="M439.62,161.58a5.14,5.14,0,0,1-1.92,1.95,5.21,5.21,0,0,1-2.7.69,5,5,0,0,1-4-1.65q-1.44-1.65-1.44-5.13v-7l-1.81-.41v-1.85h4.68v9.33a5.92,5.92,0,0,0,.74,3.47,2.78,2.78,0,0,0,2.32.95,4.74,4.74,0,0,0,2.53-.62,3.89,3.89,0,0,0,1.51-1.76V150.4l-2.11-.41v-1.85h5v13.53l1.81.41v1.83h-4.39Z"/><path class="cls-3" d="M453.56,162a3.87,3.87,0,0,0,2.52-.88,2.7,2.7,0,0,0,1.08-2.16h2.58l0,.08a4.42,4.42,0,0,1-1.81,3.63,6.68,6.68,0,0,1-4.4,1.58,6.35,6.35,0,0,1-5.25-2.25,8.66,8.66,0,0,1-1.82-5.64v-.61a8.66,8.66,0,0,1,1.82-5.62,6.38,6.38,0,0,1,5.25-2.26,8.78,8.78,0,0,1,3.41.63,6.93,6.93,0,0,1,2.5,1.72l.13,3.5h-2.29l-.63-2.48a3.77,3.77,0,0,0-1.31-.8,5.12,5.12,0,0,0-1.81-.31,3.48,3.48,0,0,0-3.23,1.63,7.71,7.71,0,0,0-1,4v.61a7.66,7.66,0,0,0,1,4A3.45,3.45,0,0,0,453.56,162Zm.12,2.07-.18.76a2.94,2.94,0,0,1,1.58.76,2.33,2.33,0,0,1,.63,1.77,2.63,2.63,0,0,1-1.16,2.23,5.57,5.57,0,0,1-3.29.83l-.1-1.59a3.38,3.38,0,0,0,1.68-.36,1.16,1.16,0,0,0,.63-1.07,1,1,0,0,0-.52-1,5.19,5.19,0,0,0-1.79-.38l.46-2Z"/><path class="cls-3" d="M462.18,143v-1.85h5.25v20.5l2.38.41v1.83h-7.63v-1.83l2.38-.41V143.43Z"/><path class="cls-3" d="M482.27,163.91c-.08-.42-.15-.81-.2-1.15s-.08-.68-.1-1a7,7,0,0,1-2.08,1.77,6,6,0,0,1-6.41-.49,4.43,4.43,0,0,1-1.28-3.39,3.93,3.93,0,0,1,1.81-3.47,8.86,8.86,0,0,1,5-1.21h3v-1.84a2.85,2.85,0,0,0-.87-2.2,3.47,3.47,0,0,0-2.44-.81,6.08,6.08,0,0,0-1.9.28,3.68,3.68,0,0,0-1.34.76l-.3,1.66h-2.22v-3.06a8.73,8.73,0,0,1,2.61-1.38,10.47,10.47,0,0,1,3.33-.52,6.62,6.62,0,0,1,4.34,1.37,4.81,4.81,0,0,1,1.66,3.93v7.59c0,.21,0,.41,0,.6s0,.39,0,.59l1.16.16v1.83Zm-4.62-2.1a5.09,5.09,0,0,0,2.61-.68,4.26,4.26,0,0,0,1.69-1.65v-2.6h-3.06a4.37,4.37,0,0,0-2.79.82,2.46,2.46,0,0,0-1,2,2,2,0,0,0,.64,1.59A3,3,0,0,0,477.65,161.81Z"/><path class="cls-3" d="M488.43,150v-1.85h4.94l.28,2.29a5.4,5.4,0,0,1,1.65-1.9,3.84,3.84,0,0,1,2.25-.69,4.23,4.23,0,0,1,.7.06,4.91,4.91,0,0,1,.54.1l-.38,2.67-1.63-.08a3.26,3.26,0,0,0-1.91.53,3.42,3.42,0,0,0-1.19,1.49v9.06l2.37.41v1.83h-7.62v-1.83l2.37-.41V150.4Z"/><path class="cls-3" d="M500.79,150v-1.85H506v13.53l2.38.41v1.83h-7.63v-1.83l2.38-.41V150.4Z"/><path class="cls-3" d="M374.59,193.62a8.71,8.71,0,0,1-1.64,5.51,5.43,5.43,0,0,1-4.51,2.09,5.83,5.83,0,0,1-2.69-.59,5,5,0,0,1-1.89-1.74l-.26,2h-2.48V180.43l-2.38-.41v-1.85H364V187a5,5,0,0,1,1.84-1.6,5.7,5.7,0,0,1,2.58-.56,5.25,5.25,0,0,1,4.55,2.34,10.54,10.54,0,0,1,1.63,6.14Zm-2.89-.3a8.79,8.79,0,0,0-1-4.44,3.28,3.28,0,0,0-3-1.7,3.77,3.77,0,0,0-2.24.64,4.53,4.53,0,0,0-1.45,1.72v7a4.44,4.44,0,0,0,1.46,1.73,3.86,3.86,0,0,0,2.26.65,3.39,3.39,0,0,0,3-1.45,6.7,6.7,0,0,0,1-3.82Z"/><path class="cls-3" d="M387.74,200.91c-.09-.42-.15-.81-.2-1.15a8.8,8.8,0,0,1-.1-1,7,7,0,0,1-2.08,1.77A6,6,0,0,1,379,200a4.43,4.43,0,0,1-1.28-3.39,3.93,3.93,0,0,1,1.81-3.47,8.86,8.86,0,0,1,5-1.21h3v-1.84a2.85,2.85,0,0,0-.87-2.2,3.47,3.47,0,0,0-2.44-.81,6.08,6.08,0,0,0-1.9.28,3.68,3.68,0,0,0-1.34.76l-.3,1.66h-2.22v-3.06a8.73,8.73,0,0,1,2.61-1.38,10.47,10.47,0,0,1,3.33-.52,6.63,6.63,0,0,1,4.34,1.37,4.81,4.81,0,0,1,1.66,3.93v7.59c0,.21,0,.41,0,.6s0,.39,0,.59l1.16.16v1.83Zm-4.62-2.1a5.09,5.09,0,0,0,2.61-.68,4.26,4.26,0,0,0,1.69-1.65v-2.6h-3.06a4.37,4.37,0,0,0-2.79.82,2.46,2.46,0,0,0-1,2,2,2,0,0,0,.64,1.59A3,3,0,0,0,383.12,198.81Z"/><path class="cls-3" d="M393.91,193.32a10.33,10.33,0,0,1,1.66-6.14,5.33,5.33,0,0,1,4.6-2.34,5.51,5.51,0,0,1,2.6.59,5.17,5.17,0,0,1,1.89,1.69l.26-2h2.42v15.57a6.62,6.62,0,0,1-1.71,4.82,6.44,6.44,0,0,1-4.85,1.76,10.81,10.81,0,0,1-2.47-.32,9.65,9.65,0,0,1-2.33-.85l.74-2.23a9.1,9.1,0,0,0,1.9.7,8.88,8.88,0,0,0,2.13.27,3.49,3.49,0,0,0,2.82-1.07,4.69,4.69,0,0,0,.9-3.08v-1.5a5.15,5.15,0,0,1-1.86,1.5,5.68,5.68,0,0,1-2.47.51,5.51,5.51,0,0,1-4.57-2.1,8.58,8.58,0,0,1-1.66-5.5Zm11.43-14.91,0,.09a3.39,3.39,0,0,1-1.12,2.76,5.32,5.32,0,0,1-6.37,0,3.33,3.33,0,0,1-1.11-2.76l0-.09H399a2.34,2.34,0,0,0,.51,1.56,2.35,2.35,0,0,0,3.14,0,2.34,2.34,0,0,0,.51-1.56Zm-8.56,15.21a6.54,6.54,0,0,0,1,3.82,3.46,3.46,0,0,0,3.06,1.45,3.8,3.8,0,0,0,2.17-.59,4.49,4.49,0,0,0,1.45-1.67v-7.27a4.37,4.37,0,0,0-1.45-1.59,3.71,3.71,0,0,0-2.14-.59,3.35,3.35,0,0,0-3.08,1.72,8.58,8.58,0,0,0-1,4.42Z"/><path class="cls-3" d="M410.4,180v-1.85h5.25v20.5l2.38.41v1.83H410.4v-1.83l2.38-.41V180.43Z"/><path class="cls-3" d="M430.49,200.91c-.08-.42-.15-.81-.2-1.15s-.08-.68-.1-1a7,7,0,0,1-2.08,1.77,6,6,0,0,1-6.41-.49,4.46,4.46,0,0,1-1.28-3.39,3.93,3.93,0,0,1,1.81-3.47,8.86,8.86,0,0,1,5-1.21h3v-1.84a2.85,2.85,0,0,0-.87-2.2,3.46,3.46,0,0,0-2.44-.81,6.08,6.08,0,0,0-1.9.28,3.63,3.63,0,0,0-1.33.76l-.31,1.66H421.1v-3.06a8.73,8.73,0,0,1,2.61-1.38,10.47,10.47,0,0,1,3.33-.52,6.62,6.62,0,0,1,4.34,1.37,4.82,4.82,0,0,1,1.67,3.93v8.19c0,.2,0,.39,0,.59l1.17.16v1.83Zm-4.62-2.1a5.09,5.09,0,0,0,2.61-.68,4.26,4.26,0,0,0,1.69-1.65v-2.6h-3.06a4.39,4.39,0,0,0-2.79.82,2.46,2.46,0,0,0-1,2,2,2,0,0,0,.64,1.59A3,3,0,0,0,425.87,198.81Z"/><path class="cls-3" d="M436.22,199.08l2.38-.41V187.4l-2.38-.41v-1.85h4.95l.2,2.34a5.82,5.82,0,0,1,2-1.94,5.27,5.27,0,0,1,2.7-.7,5.13,5.13,0,0,1,3.95,1.5,6.52,6.52,0,0,1,1.4,4.61v7.72l2.38.41v1.83h-7.63v-1.83l2.38-.41V191a4.28,4.28,0,0,0-.82-3,3.32,3.32,0,0,0-2.52-.87,4,4,0,0,0-2.19.6,4.29,4.29,0,0,0-1.53,1.63v9.26l2.38.41v1.83h-7.63Z"/><path class="cls-3" d="M460.88,181.33v3.81h3v2.12h-3v9.58a2.17,2.17,0,0,0,.46,1.57,1.67,1.67,0,0,0,1.22.45,5.39,5.39,0,0,0,.85-.07,8.06,8.06,0,0,0,.8-.14l.39,2a3.5,3.5,0,0,1-1.2.43,7.55,7.55,0,0,1-1.57.17,3.71,3.71,0,0,1-2.79-1.06,4.59,4.59,0,0,1-1-3.32v-9.58h-2.49v-2.12H458v-3.81Z"/><path class="cls-3" d="M466.82,187v-1.85h5.25v13.53l2.37.41v1.83h-7.62v-1.83l2.37-.41V187.4Z"/><path class="cls-3" d="M476.21,180v-1.85h5.25v20.5l2.37.41v1.83h-7.62v-1.83l2.37-.41V180.43Z"/><path class="cls-3" d="M496.3,200.91c-.09-.42-.16-.81-.2-1.15s-.09-.68-.11-1a6.85,6.85,0,0,1-2.07,1.77,5.36,5.36,0,0,1-2.67.71,5.27,5.27,0,0,1-3.74-1.2,4.43,4.43,0,0,1-1.29-3.39,3.94,3.94,0,0,1,1.82-3.47,8.86,8.86,0,0,1,5-1.21h3v-1.84a2.83,2.83,0,0,0-.88-2.2,3.43,3.43,0,0,0-2.43-.81,6.08,6.08,0,0,0-1.9.28,3.68,3.68,0,0,0-1.34.76l-.3,1.66h-2.22v-3.06a8.73,8.73,0,0,1,2.61-1.38,10.45,10.45,0,0,1,3.32-.52,6.64,6.64,0,0,1,4.35,1.37,4.81,4.81,0,0,1,1.66,3.93v7.59c0,.21,0,.41,0,.6a5.85,5.85,0,0,0,0,.59l1.16.16v1.83Zm-4.62-2.1a5.09,5.09,0,0,0,2.61-.68,4.33,4.33,0,0,0,1.69-1.65v-2.6h-3.06a4.42,4.42,0,0,0-2.8.82,2.47,2.47,0,0,0-1,2,2,2,0,0,0,.64,1.59A3,3,0,0,0,491.68,198.81Z"/><path class="cls-3" d="M502.45,187v-1.85h4.95l.27,2.29a5.53,5.53,0,0,1,1.66-1.9,3.82,3.82,0,0,1,2.25-.69,4.2,4.2,0,0,1,.69.06,5.19,5.19,0,0,1,.55.1l-.38,2.67-1.63-.08a3.23,3.23,0,0,0-1.91.53,3.37,3.37,0,0,0-1.2,1.49v9.06l2.38.41v1.83h-7.63v-1.83l2.38-.41V187.4Z"/><path class="cls-3" d="M514.82,187v-1.85h5.25v13.53l2.37.41v1.83h-7.62v-1.83l2.37-.41V187.4Z"/><path class="cls-3" d="M398,236.08l2.38-.41V224.4L398,224v-1.85h5.25v13.53l2.38.41v1.83H398Zm5.25-18h-2.87v-2.93h2.87Z"/><path class="cls-3" d="M414.89,236a3.87,3.87,0,0,0,2.52-.88,2.7,2.7,0,0,0,1.08-2.16h2.58l0,.08a4.42,4.42,0,0,1-1.81,3.63,6.68,6.68,0,0,1-4.4,1.58,6.35,6.35,0,0,1-5.25-2.25,8.66,8.66,0,0,1-1.82-5.64v-.61a8.66,8.66,0,0,1,1.82-5.62,6.38,6.38,0,0,1,5.25-2.26,8.78,8.78,0,0,1,3.41.63,6.93,6.93,0,0,1,2.5,1.72l.13,3.5h-2.29l-.63-2.48a3.77,3.77,0,0,0-1.31-.8,5.12,5.12,0,0,0-1.81-.31,3.48,3.48,0,0,0-3.23,1.63,7.71,7.71,0,0,0-1,4v.61a7.66,7.66,0,0,0,1,4A3.45,3.45,0,0,0,414.89,236ZM415,238l-.18.76a2.94,2.94,0,0,1,1.58.76,2.33,2.33,0,0,1,.63,1.77,2.63,2.63,0,0,1-1.16,2.23,5.57,5.57,0,0,1-3.29.83l-.1-1.59a3.38,3.38,0,0,0,1.68-.36,1.16,1.16,0,0,0,.63-1.07,1,1,0,0,0-.52-1,5.19,5.19,0,0,0-1.79-.38l.46-2Z"/><path class="cls-3" d="M423.9,236.08l2.38-.41V224.4L423.9,224v-1.85h5.25v13.53l2.38.41v1.83H423.9Zm5.25-18h-2.87v-2.93h2.87Z"/><path class="cls-3" d="M433.29,236.08l2.38-.41V224.4l-2.38-.41v-1.85h4.95l.2,2.34a5.73,5.73,0,0,1,2-1.94,5.27,5.27,0,0,1,2.7-.7,5.13,5.13,0,0,1,3.95,1.5,6.52,6.52,0,0,1,1.4,4.61v7.72l2.38.41v1.83h-7.63v-1.83l2.38-.41V228a4.28,4.28,0,0,0-.82-3,3.32,3.32,0,0,0-2.52-.87,4,4,0,0,0-2.19.6,4.29,4.29,0,0,0-1.53,1.63v9.26l2.38.41v1.83h-7.63Z"/><path class="cls-3" d="M463.42,236a5.18,5.18,0,0,1-1.89,1.64,5.88,5.88,0,0,1-2.59.55,5.4,5.4,0,0,1-4.51-2.09,8.76,8.76,0,0,1-1.63-5.51v-.3a10.54,10.54,0,0,1,1.63-6.14,5.22,5.22,0,0,1,4.54-2.34,5.68,5.68,0,0,1,2.47.52,5.09,5.09,0,0,1,1.83,1.5v-6.43L460.9,217v-1.85h5.25v20.5l2.37.41v1.83h-4.87Zm-7.74-5.41a6.7,6.7,0,0,0,1,3.82,3.38,3.38,0,0,0,3,1.45,3.79,3.79,0,0,0,2.16-.59,4.45,4.45,0,0,0,1.44-1.64v-7.32a4.4,4.4,0,0,0-1.44-1.58,3.77,3.77,0,0,0-2.13-.58,3.28,3.28,0,0,0-3,1.7,8.8,8.8,0,0,0-1,4.44Z"/><path class="cls-3" d="M477.91,238.22a6.67,6.67,0,0,1-5.24-2.19,8.29,8.29,0,0,1-1.95-5.7v-.64a8.09,8.09,0,0,1,2-5.61,6.19,6.19,0,0,1,4.75-2.24,6,6,0,0,1,4.81,1.93,7.6,7.6,0,0,1,1.65,5.13v1.8H473.7l-.05.07a6.26,6.26,0,0,0,1.16,3.74,3.65,3.65,0,0,0,3.1,1.46,7.16,7.16,0,0,0,2.56-.41,5.75,5.75,0,0,0,1.9-1.15l1.13,1.87a7.13,7.13,0,0,1-2.24,1.38A9,9,0,0,1,477.91,238.22Zm-.43-14.12a3.12,3.12,0,0,0-2.47,1.22,5.72,5.72,0,0,0-1.25,3.06l0,.07h7.27v-.38a4.42,4.42,0,0,0-.9-2.83A3.22,3.22,0,0,0,477.48,224.1Z"/><path class="cls-3" d="M371.21,273a5.18,5.18,0,0,1-1.89,1.64,5.91,5.91,0,0,1-2.59.55,5.4,5.4,0,0,1-4.51-2.09,8.7,8.7,0,0,1-1.63-5.51v-.3a10.47,10.47,0,0,1,1.63-6.14,5.22,5.22,0,0,1,4.54-2.34,5.68,5.68,0,0,1,2.47.52,5.18,5.18,0,0,1,1.83,1.5v-6.43l-2.38-.41v-1.85h5.25v20.5l2.38.41v1.83h-4.87Zm-7.75-5.41a6.7,6.7,0,0,0,1,3.82,3.38,3.38,0,0,0,3,1.45,3.83,3.83,0,0,0,2.16-.59,4.45,4.45,0,0,0,1.44-1.64v-7.32a4.4,4.4,0,0,0-1.44-1.58,3.82,3.82,0,0,0-2.13-.58,3.27,3.27,0,0,0-3,1.7,8.79,8.79,0,0,0-1,4.44Z"/><path class="cls-3" d="M385.7,275.22a6.66,6.66,0,0,1-5.24-2.19,8.29,8.29,0,0,1-1.95-5.7v-.64a8.09,8.09,0,0,1,2-5.61,6.17,6.17,0,0,1,4.74-2.24,6,6,0,0,1,4.82,1.93,7.6,7.6,0,0,1,1.64,5.13v1.8H381.49l-.05.07a6.32,6.32,0,0,0,1.15,3.74A3.67,3.67,0,0,0,385.7,273a7.2,7.2,0,0,0,2.56-.41,5.86,5.86,0,0,0,1.9-1.15l1.12,1.87a7.08,7.08,0,0,1-2.23,1.38A9.07,9.07,0,0,1,385.7,275.22Zm-.44-14.12a3.11,3.11,0,0,0-2.46,1.22,5.81,5.81,0,0,0-1.26,3.06l0,.07h7.28v-.38a4.42,4.42,0,0,0-.9-2.83A3.24,3.24,0,0,0,385.26,261.1Z"/><path class="cls-3" d="M394.57,267.32a10.33,10.33,0,0,1,1.66-6.14,5.33,5.33,0,0,1,4.59-2.34,5.58,5.58,0,0,1,2.61.59,5.06,5.06,0,0,1,1.88,1.69l.26-2H408v15.57a6.62,6.62,0,0,1-1.71,4.82,6.48,6.48,0,0,1-4.86,1.76A10.73,10.73,0,0,1,399,281a9.5,9.5,0,0,1-2.33-.85l.74-2.23a9,9,0,0,0,1.89.7,8.88,8.88,0,0,0,2.13.27,3.5,3.5,0,0,0,2.83-1.07,4.75,4.75,0,0,0,.89-3.08v-1.5a5,5,0,0,1-1.85,1.5,5.72,5.72,0,0,1-2.48.51,5.5,5.5,0,0,1-4.56-2.1,8.58,8.58,0,0,1-1.66-5.5ZM406,252.41l0,.09a3.37,3.37,0,0,1-1.13,2.76,4.53,4.53,0,0,1-3.17,1.06,4.6,4.6,0,0,1-3.2-1.06,3.33,3.33,0,0,1-1.11-2.76l0-.09h2.19a2.39,2.39,0,0,0,.5,1.56,2,2,0,0,0,1.59.6,2,2,0,0,0,1.56-.6,2.34,2.34,0,0,0,.51-1.56Zm-8.56,15.21a6.54,6.54,0,0,0,1,3.82,3.48,3.48,0,0,0,3.07,1.45,3.82,3.82,0,0,0,2.17-.59,4.56,4.56,0,0,0,1.44-1.67v-7.27a4.43,4.43,0,0,0-1.44-1.59,3.73,3.73,0,0,0-2.14-.59,3.35,3.35,0,0,0-3.08,1.72,8.58,8.58,0,0,0-1,4.42Z"/><path class="cls-3" d="M418.65,275.22a6.67,6.67,0,0,1-5.24-2.19,8.28,8.28,0,0,1-1.94-5.7v-.64a8.09,8.09,0,0,1,2-5.61,6.19,6.19,0,0,1,4.75-2.24,6,6,0,0,1,4.82,1.93,7.65,7.65,0,0,1,1.64,5.13v1.8H414.44l0,.07a6.25,6.25,0,0,0,1.15,3.74,3.65,3.65,0,0,0,3.1,1.46,7.13,7.13,0,0,0,2.56-.41,5.9,5.9,0,0,0,1.91-1.15l1.12,1.87a7,7,0,0,1-2.24,1.38A9,9,0,0,1,418.65,275.22Zm-.43-14.12a3.12,3.12,0,0,0-2.47,1.22,5.72,5.72,0,0,0-1.25,3.06l0,.07h7.27v-.38a4.42,4.42,0,0,0-.9-2.83A3.22,3.22,0,0,0,418.22,261.1Z"/><path class="cls-3" d="M427.51,261v-1.85h4.94l.28,2.29a5.4,5.4,0,0,1,1.65-1.9,3.84,3.84,0,0,1,2.25-.69,4.23,4.23,0,0,1,.7.06,4.91,4.91,0,0,1,.54.1l-.38,2.67-1.63-.08a3.26,3.26,0,0,0-1.91.53,3.52,3.52,0,0,0-1.2,1.49v9.06l2.38.41v1.83h-7.62v-1.83l2.37-.41V261.4Z"/><path class="cls-3" d="M439.17,254v-1.85h5.25v20.5l2.38.41v1.83h-7.63v-1.83l2.38-.41V254.43Z"/><path class="cls-3" d="M456.17,275.22a6.67,6.67,0,0,1-5.24-2.19,8.29,8.29,0,0,1-1.95-5.7v-.64a8.09,8.09,0,0,1,2-5.61,6.19,6.19,0,0,1,4.74-2.24,6,6,0,0,1,4.82,1.93,7.6,7.6,0,0,1,1.64,5.13v1.8H452l0,.07a6.26,6.26,0,0,0,1.16,3.74,3.65,3.65,0,0,0,3.1,1.46,7.16,7.16,0,0,0,2.56-.41,5.75,5.75,0,0,0,1.9-1.15l1.13,1.87a7.13,7.13,0,0,1-2.24,1.38A9,9,0,0,1,456.17,275.22Zm-.44-14.12a3.11,3.11,0,0,0-2.46,1.22,5.72,5.72,0,0,0-1.25,3.06l0,.07h7.27v-.38a4.42,4.42,0,0,0-.9-2.83A3.22,3.22,0,0,0,455.73,261.1Z"/><path class="cls-3" d="M464.6,273.08l2.38-.41V261.4L464.6,261v-1.85h4.94l.21,2.34a5.71,5.71,0,0,1,2-1.94,5.34,5.34,0,0,1,2.71-.7,5.13,5.13,0,0,1,3.95,1.5,6.57,6.57,0,0,1,1.4,4.61v7.72l2.38.41v1.83h-7.63v-1.83l2.38-.41V265a4.27,4.27,0,0,0-.83-3,3.3,3.3,0,0,0-2.51-.87,4.06,4.06,0,0,0-2.2.6,4.35,4.35,0,0,0-1.52,1.63v9.26l2.38.41v1.83H464.6Z"/><path class="cls-3" d="M494.73,273a5.18,5.18,0,0,1-1.89,1.64,5.91,5.91,0,0,1-2.59.55,5.39,5.39,0,0,1-4.51-2.09,8.7,8.7,0,0,1-1.63-5.51v-.3a10.47,10.47,0,0,1,1.63-6.14,5.21,5.21,0,0,1,4.54-2.34,5.71,5.71,0,0,1,2.47.52,5.27,5.27,0,0,1,1.83,1.5v-6.43L492.2,254v-1.85h5.25v20.5l2.38.41v1.83H495ZM487,267.62a6.7,6.7,0,0,0,1,3.82,3.38,3.38,0,0,0,3,1.45,3.83,3.83,0,0,0,2.16-.59,4.45,4.45,0,0,0,1.44-1.64v-7.32a4.4,4.4,0,0,0-1.44-1.58,3.82,3.82,0,0,0-2.13-.58,3.27,3.27,0,0,0-3,1.7,8.79,8.79,0,0,0-1,4.44Z"/><path class="cls-3" d="M502,273.08l2.37-.41V261.4L502,261v-1.85h5.25v13.53l2.37.41v1.83H502Zm5.25-18h-2.88v-2.93h2.88Z"/><path class="cls-3" d="M511.83,261v-1.85h4.94l.28,2.29a5.61,5.61,0,0,1,1.65-1.9,3.85,3.85,0,0,1,2.26-.69,4.2,4.2,0,0,1,.69.06,5.19,5.19,0,0,1,.55.1l-.38,2.67-1.63-.08a3.29,3.29,0,0,0-1.92.53,3.42,3.42,0,0,0-1.19,1.49v9.06l2.38.41v1.83h-7.63v-1.83l2.38-.41V261.4Z"/></g></svg>