<svg id="Layer_1" data-name="Layer 1" xmlns="http://www.w3.org/2000/svg" viewBox="0 0 623.62 623.62"><defs><style>.cls-1{fill:none;stroke:#ecad0f;}.cls-1,.cls-2{stroke-miterlimit:10;stroke-width:5px;}.cls-2{fill:#fff;stroke:#e64324;}.cls-3{font-size:29.86px;fill:#e64324;font-family:RobotoSlab-Regular, Roboto Slab;}.cls-4{letter-spacing:0em;}.cls-5{letter-spacing:-0.01em;}.cls-6{letter-spacing:-0.01em;}.cls-7{letter-spacing:-0.01em;}</style></defs><line class="cls-1" x1="323.69" y1="106.22" x2="149.71" y2="380.32"/><polyline class="cls-2" points="388.66 525.88 546.82 236.28 323.69 106.22 169.53 349.1 388.66 525.88"/><circle class="cls-2" cx="440.46" cy="162.33" r="129.53"/><polygon class="cls-2" points="236.92 135.12 114.66 306.08 236.92 372.57 389.64 377.52 249.41 148.26 236.92 135.12"/><circle class="cls-2" cx="161" cy="209.21" r="107.36"/><circle class="cls-2" cx="270.51" cy="450.92" r="139.9"/><text class="cls-3" transform="translate(86.91 190.09)">Hipotezler <tspan x="8.97" y="37">eşliği</tspan><tspan class="cls-4" x="86.18" y="37">n</tspan><tspan x="105.25" y="37">de </tspan><tspan x="17.62" y="74">bi</tspan><tspan class="cls-5" x="44.73" y="74">r</tspan><tspan x="56.79" y="74">leştir</tspan></text><text class="cls-3" transform="translate(201.67 425.09)">Anlatıları <tspan class="cls-6" x="0.48" y="37">v</tspan><tspan x="16.96" y="37">e </tspan><tspan class="cls-4" x="40.43" y="37">n</tspan><tspan x="59.51" y="37">otları </tspan><tspan x="-17.19" y="74">hik</tspan><tspan class="cls-7" x="30.05" y="74">a</tspan><tspan class="cls-6" x="46.28" y="74">y</tspan><tspan x="63.04" y="74">eleştir</tspan></text><text class="cls-3" transform="translate(379.26 131.76)">Sistemik <tspan x="-19.03" y="37">bağlantıları </tspan><tspan x="-41.05" y="74">kurm</tspan><tspan class="cls-7" x="35.8" y="74">ay</tspan><tspan x="68.76" y="74">a başla</tspan></text></svg>