<svg
        id="Layer_1"
        xmlns="http://www.w3.org/2000/svg"
        viewBox="0 0 198.43 198.43"
        >
<path d="M137.87,68.87a32.8,32.8,0,0,0-9.93,1.53V95.64a10.43,10.43,0,0,1,9.93-6.85,10,10,0,1,1,0,19.93,10.43,10.43,0,0,1-9.93-6.85v25.24a32.8,32.8,0,0,0,9.93,1.53c17.31,0,31.35-13.38,31.35-29.88S155.18,68.87,137.87,68.87Z" />
<ellipse cx="98.75" cy="81.4" rx="9.97" ry="10.44" />
<path d="M95.64,70.44a10.4,10.4,0,0,1-6.86-9.92,10,10,0,1,1,20,0,10.41,10.41,0,0,1-6.86,9.92h25.27a32.73,32.73,0,0,0,1.53-9.92c0-17.29-13.39-31.31-29.92-31.31s-29.92,14-29.92,31.31a32.73,32.73,0,0,0,1.53,9.92Z" />
<ellipse cx="116.97" cy="98.76" rx="10.45" ry="9.96" />
<path d="M70.49,102.78a10.42,10.42,0,0,1-9.93,6.85,10,10,0,1,1,0-19.92,10.42,10.42,0,0,1,9.93,6.85V71.31a32.8,32.8,0,0,0-9.93-1.53c-17.32,0-31.35,13.38-31.35,29.89s14,29.89,31.35,29.89A32.8,32.8,0,0,0,70.49,128Z" />
<ellipse cx="99.67" cy="117.03" rx="9.97" ry="10.44" />
<path d="M102.79,128a10.41,10.41,0,0,1,6.86,9.92,10,10,0,1,1-20,0A10.41,10.41,0,0,1,96.56,128H71.28a32.73,32.73,0,0,0-1.53,9.92c0,17.29,13.4,31.31,29.92,31.31s29.93-14,29.93-31.31a32.43,32.43,0,0,0-1.54-9.92Z" />
<path d="M71,99.67a10.46,10.46,0,1,0,10.45-10A10.22,10.22,0,0,0,71,99.67Z" />
        </svg>