<svg id="Layer_1" data-name="Layer 1" xmlns="http://www.w3.org/2000/svg" viewBox="0 0 708.66 708.66"><defs><style>.cls-1{fill:#fff;}.cls-1,.cls-2{stroke:#ecad0f;stroke-miterlimit:10;stroke-width:5px;}.cls-2{fill:none;}.cls-3{font-size:29.86px;fill:#ecad0f;font-family:RobotoSlab-Regular, Roboto Slab;}.cls-4{letter-spacing:0em;}.cls-5{letter-spacing:-0.01em;}.cls-6{letter-spacing:-0.01em;}.cls-7{letter-spacing:-0.01em;}</style></defs><line class="cls-1" x1="174.29" y1="442.53" x2="365.36" y2="91.23"/><line class="cls-2" x1="532.85" y1="223.22" x2="365.36" y2="594.23"/><polyline class="cls-1" points="215.22 415.44 461.46 304.33 488.39 514.22 400.25 516.95 374.29 574.45 329.76 576.3 215.22 415.44"/><line class="cls-2" x1="559.93" y1="309.99" x2="285.82" y2="136.01"/><polyline class="cls-1" points="140.27 374.97 429.86 533.12 559.93 309.99 317.04 155.83 140.27 374.97"/><circle class="cls-1" cx="503.81" cy="426.76" r="129.53"/><circle class="cls-1" cx="261.1" cy="529.34" r="122.77"/><polygon class="cls-1" points="531.02 223.22 360.07 100.96 293.57 223.22 288.62 375.95 517.88 235.71 531.02 223.22"/><circle class="cls-1" cx="456.93" cy="147.31" r="107.36"/><circle class="cls-1" cx="215.22" cy="256.82" r="139.9"/><text class="cls-3" transform="translate(97.83 254.15)"><tspan xml:space="preserve">Etkileşileşimleri  </tspan><tspan x="38.6" y="37">analiz edin</tspan></text><text class="cls-3" transform="translate(178.65 493.31)">Katılı<tspan class="cls-4" x="77.56" y="0">m</tspan><tspan x="105.63" y="0">cılar </tspan><tspan x="9.03" y="37">arası</tspan><tspan class="cls-4" x="79.29" y="37">n</tspan><tspan x="98.37" y="37">daki </tspan><tspan x="2.64" y="74">bağlantıları </tspan><tspan x="8.41" y="111">eti</tspan><tspan class="cls-5" x="45.22" y="111">k</tspan><tspan x="63.08" y="111">etl</tspan><tspan class="cls-6" x="99.47" y="111">e</tspan><tspan x="115.34" y="111">yin</tspan></text><text class="cls-3" transform="translate(369.17 146.16)">Katılı<tspan class="cls-4" x="77.56" y="0">m</tspan><tspan x="105.63" y="0">cıları </tspan><tspan x="15.74" y="37">d</tspan><tspan class="cls-7" x="33.66" y="37">a</tspan><tspan class="cls-6" x="49.89" y="37">v</tspan><tspan x="66.37" y="37">et edin</tspan></text><text class="cls-3" transform="translate(418.68 373.55)">De<tspan class="cls-4" x="36.75" y="0">n</tspan><tspan class="cls-6" x="55.82" y="0">e</tspan><tspan x="71.68" y="0">yimleri </tspan><tspan x="22.89" y="37">katılı</tspan><tspan class="cls-4" x="97.43" y="37">m</tspan><tspan x="125.49" y="37">cı </tspan><tspan x="4.91" y="74">bağlantıları </tspan><tspan x="22.01" y="111">eşliği</tspan><tspan class="cls-4" x="99.22" y="111">n</tspan><tspan x="118.29" y="111" xml:space="preserve">de  </tspan><tspan x="38.71" y="148">izl</tspan><tspan class="cls-6" x="73.73" y="148">e</tspan><tspan x="89.6" y="148">yin</tspan></text></svg>